<svg xmlns="http://www.w3.org/2000/svg">
<defs>
<font id="PicNic-Regular" horiz-adv-x="1228" >
  <font-face 
    font-family="PicNic"
    font-weight="400"
    font-stretch="normal"
    units-per-em="2048"
    panose-1="0 0 5 0 0 0 0 0 0 0"
    ascent="1638"
    descent="-410"
    x-height="952"
    cap-height="1315"
    bbox="-825.61 -586.134 4291.28 2093.95"
    underline-thickness="102"
    underline-position="-307"
    unicode-range="U+0020-F57C0"
  />
<missing-glyph horiz-adv-x="2007" 
d="M102 1434v-205h-20v205h20zM184 1229h-20v205h143v-21h-123v-72h82v-20h-82v-92zM461 1229h-21v92h-71v113h20v-93h123v93h20v-113h-71v-92zM748 1434v-205h-154v205h154zM829 1434v-185h123v185h21v-205h-164v205h20zM1946 1434v-205h-912v205h912zM614 1249h113v164
h-113v-164zM102 1126v-184h62v113h20v-113h62v184h20v-204h-184v204h20zM481 1065v-61h31v-82h-20v61h-154v-61h-21v82h31v61h31v61h72v-61h30zM584 1106v-184h-21v204h62v-61h30v-61h31v-62h21v184h20v-204h-61v61h-31v61h-31v62h-20zM860 922h-20v184h-72v20h164v-20h-72
v-184zM1034 1106v-184h-20v204h61v-61h31v-61h41v61h31v61h61v-204h-20v184h-21v-62h-31v-61h-30v-61h-21v61h-31v61h-30v62h-21zM1454 1126v-204h-154v204h154zM1618 1024h61v-102h-20v82h-133v-82h-21v204h113v-102zM1864 1126v-20h-123v-72h82v-20h-82v-72h123v-20h-144
v204h144zM369 1044v-40h92v40h-31v62h-31v-62h-30zM1321 1106v-164h113v164h-113zM1597 1106h-71v-82h71v82zM1915 922h-10v30h30v-61h-20v31zM102 614h-20v205h143v-20h-123v-72h82v-20h-82v-93zM420 819v-205h-154v205h154zM594 717h61v-103h-20v82h-133v-82h-21v205h113
v-102zM727 707v-93h-20v205h20v-92h31v31h51v61h51v-20h-31v-62h-51v-41h51v-61h31v-21h-51v62h-51v31h-31zM1014 799v-185h-21v205h62v-61h30v-62h41v62h31v61h62v-205h-21v185h-20v-62h-31v-61h-31v-62h-20v62h-31v61h-31v62h-20zM1434 819v-20h-123v-72h82v-20h-82v-72
h123v-21h-144v205h144zM1710 819v-205h-154v205h154zM1884 717h62v-103h-21v82h-133v-82h-20v205h112v-102zM287 799v-164h112v164h-112zM573 799h-71v-82h71v82zM1577 799v-164h113v164h-113zM1864 799h-72v-82h72v82zM215 512v-20h-113v-164h113v-21h-133v205h133z

<glyph glyph-name="periodcentered" unicode="&#x2e;&#x2e;" horiz-adv-x="487" 
d="M127 739q32 12 57 -1t55.5 -43t53.5 -42q15 -8 56.5 -22.5t59.5 -32t23 -51.5q7 -53 -26 -95.5t-89.5 -55.5t-128.5 12q-48 19 -81 68.5t-42 102t6.5 99t55.5 61.5z" />
    <glyph glyph-name="ellipsis" unicode="&#x2e;&#x2e;&#x2e;" horiz-adv-x="1542" 
d="M1274 426q-81 6 -134 -51.5t-48 -145.5q2 -46 28.5 -98.5t73.5 -93.5t100 -49q76 -11 129 42.5t47 143.5q-6 97 -59.5 171t-136.5 81zM336 332q-63 44 -133.5 21.5t-108.5 -97.5q-20 -39 -23.5 -94.5t15.5 -112.5t59 -88q55 -46 126 -27t108 97q26 53 32 109.5t-13 109
t-62 82.5zM770 254q70 -9 110 -83t29 -153q-10 -73 -74 -101.5t-143 -18.5q-72 9 -111 61.5t-30 122.5q10 78 77 129.5t142 42.5z" />
    <glyph glyph-name="x_s_e" unicode="x&#xb7;se" horiz-adv-x="2699" 
d="M1929 352q11 -39 -13 -94t-22 -86q8 -168 185 -168q45 0 81 21t59.5 51t45 60t49.5 52t62 23q28 1 61 -26t64 -27q43 0 75.5 32t32.5 95q0 65 -46.5 105t-106.5 40q-36 0 -76.5 -19t-73 -46t-67.5 -54t-62.5 -45.5t-54.5 -18t-47 26.5q-20 30 -12 57.5t37.5 65.5t69 73
t82.5 80.5t78.5 88.5t57 97t18.5 106q-5 78 -46.5 129t-110.5 51t-119.5 -31.5t-76 -83t-37 -96.5t-15.5 -94q-8 -99 -103 -163.5t-192 -31.5q-30 10 -52 30t-40.5 33.5t-46.5 14.5q-26 1 -68.5 -19.5t-72.5 -32.5t-80 1q-35 14 -47 43t-13 70.5t-6 56.5q-8 26 -41 52.5
t-33 62.5q0 29 28 55t64.5 39.5t73 11t51.5 -26.5q15 -23 16.5 -62t8 -72t35.5 -52q44 -29 95 5.5t50 98.5q-1 43 -18.5 69.5t-45 49t-38.5 41.5q-7 12 -21 45.5t-29 52t-40 25.5q-35 11 -69 -4.5t-71.5 -44t-62.5 -37.5q-33 -11 -83.5 -4.5t-95.5 19.5t-101 17t-101 -11
q-26 -9 -54.5 -30.5t-50.5 -44.5t-47.5 -45.5t-48.5 -36t-50.5 -12.5t-55.5 21q-23 18 -37.5 65t-30.5 64q-33 35 -86.5 34.5t-87.5 -34.5q-30 -30 -44 -93.5t-21 -76.5q-9 -18 -36.5 -34t-52.5 -35t-32 -46q-14 -57 20 -103.5t94 -33.5q26 5 45 32t28.5 58t25.5 64.5
t37 48.5q46 31 92.5 6.5t52.5 -76.5q5 -41 -22 -110.5t-19 -106.5q5 -26 23.5 -44t38.5 -25.5t39 -24t26 -39.5q25 -86 -42 -170q-51 -65 -115 -81q-66 -17 -87 38q-7 18 -8 43q-1 24 9.5 60t20 62t7 51t-24.5 36q-31 16 -68 -4t-65.5 -63t-47.5 -94t-18.5 -103.5
t25.5 -85.5q21 -28 48.5 -37t57.5 -11.5t46 -11.5q17 -10 40.5 -42.5t49 -52.5t59.5 -15q29 4 48.5 23t27 38t16.5 49.5t15 42.5q18 41 61 46.5t66 -23.5q12 -14 28 -55t38.5 -66.5t60.5 -27.5q54 -3 123 58t92 138q22 75 -5.5 114.5t-72.5 24.5q-29 -9 -53 -52t-47 -54
q-39 -18 -74 5.5t-37 59.5q-1 24 16.5 65t27.5 69.5t-1 72.5q-9 25 -33 44t-46.5 30t-42.5 36.5t-23 63.5q-4 46 17 92t55.5 80t75.5 58.5t79 34.5q58 14 112.5 -14.5t69.5 -84.5q8 -30 -3 -77.5t-3 -69.5q7 -19 19 -30.5t23.5 -16t24.5 -14.5t21 -25q7 -18 6 -42t-5 -45
t6 -41t38 -30q36 -13 75 1t77.5 34.5t64.5 21.5q72 3 118 -66q42 -62 29 -125q-13 -67 -83 -77q-8 -2 -17 -2q-27 -1 -51 14t-41.5 36.5t-35 42t-40 30.5t-49.5 2q-62 -18 -70.5 -84t47 -134t156.5 -89q112 -24 197.5 9.5t114.5 104.5q21 39 11.5 111t-5.5 96
q9 46 59.5 71.5t102.5 16t63 -48.5zM2232 852q18 -12 21.5 -38t-5.5 -54t-24 -53t-35 -38t-37 -5q-23 19 -14.5 67t40 92.5t54.5 28.5z" />
    <glyph glyph-name="A_E" unicode="A&#xb7;E" horiz-adv-x="1601" 
d="M582 1337q-57 12 -95.5 -13t-46.5 -63t13 -78.5t69 -56.5q27 -12 72 -7t59 3q34 -5 47.5 -32t-4.5 -58q-15 -24 -56 -44.5t-56 -51.5q-13 -26 -11 -102.5t-20 -120.5q-14 -27 -37.5 -45.5t-46.5 -27.5t-50.5 -29t-47.5 -50t-25.5 -75t-2 -83.5t-3.5 -83.5
q-9 -60 -41.5 -98t-73.5 -37q-24 1 -56.5 30t-57.5 30q-49 1 -78.5 -45.5t-20.5 -104.5q6 -43 38.5 -74.5t75 -45t91.5 -10.5t88 24q44 23 65.5 58t33.5 70t28 50q15 15 46.5 30.5t53 31t25.5 36.5q2 31 0.5 43.5t-11 40.5t-11.5 37q-16 63 40 93t144 30q154 0 168 -74
q6 -30 -14.5 -60t-41.5 -61.5t-16 -64.5q4 -27 21 -48t35.5 -32t38 -26.5t26.5 -30.5q6 -13 11.5 -61.5t21.5 -80.5q22 -43 84 -56t108 17q16 11 33.5 33t35 37.5t42.5 19.5q41 5 90.5 -8.5t79.5 -9.5q50 6 74 45t18 88q-4 27 -23 69.5t-22 69.5q-2 23 6.5 61t13.5 61.5
t-6 56.5q-23 51 -75.5 61.5t-96 -20.5t-43.5 -86q0 -27 15.5 -49.5t31.5 -49.5t17 -65q2 -78 -80 -109t-165 4t-83 119q0 36 16.5 63.5t35 53t20.5 55.5q2 29 -17.5 77.5t-19.5 72.5q0 36 26.5 56.5t71.5 14.5q21 -3 50.5 -18t60 -23.5t65.5 -1.5q39 8 61.5 42t23.5 71.5
t-21 69.5t-64 38q-32 5 -86.5 -25.5t-68.5 -33.5q-33 -6 -59 14.5t-17 55.5q5 21 36 53.5t29 62.5q-1 20 -13.5 36.5t-25.5 27.5t-23 33.5t-7 52.5q4 46 46 68.5t90 20t81 -20.5q24 -13 35 -35t11.5 -43t7.5 -45.5t24 -40.5q21 -20 51.5 -22.5t58 11.5t47.5 48.5t21 82.5
q2 90 -50.5 154t-134.5 70q-52 3 -113.5 -29t-94.5 -37t-94.5 10.5t-100.5 10.5q-33 -4 -95.5 -38t-107.5 -30q-43 4 -101 46t-97 50zM913 1071q43 -7 60 -60t4 -100q-10 -36 -43 -70.5t-43 -56.5q-5 -12 -10 -65t-29 -72q-23 -19 -60.5 -21t-70.5 17t-41 57q-4 20 8 38.5
t29 30.5t36 28t25 30q13 26 12.5 72t2.5 70q11 44 42 77t78 25z" />
    <glyph glyph-name="A_O" unicode="A&#xb7;O" horiz-adv-x="2117" 
d="M1178 348q11 -17 30 -53t31.5 -54.5t39.5 -34t64 -13.5q43 3 73.5 29.5t60 73.5t43.5 62q18 20 49.5 48t52.5 51t31 49q11 27 7 101.5t13 101.5q11 21 48 63t53 90q10 28 -0.5 52t-31.5 34.5t-49.5 4t-50.5 -32.5q-83 -98 -176 -54q-24 11 -40.5 34t-22 42t-11.5 47
t-8 35q-3 11 -33 56t-34 94q-6 78 42 146t111 69q36 1 73.5 -25t51.5 -29q13 -3 30.5 2t39.5 4.5t51 -14.5q26 -13 43.5 -40.5t30 -53t25.5 -33.5q41 -28 74 -6t26 80q-3 24 -31.5 90.5t-25.5 99.5q7 65 58 84q50 19 97 -23q46 -40 58 -120q11 -81 0 -144t-36.5 -102
t-53.5 -68.5t-52.5 -60.5t-30.5 -61q-10 -51 11.5 -138t9.5 -135q-9 -38 -28.5 -69t-39.5 -50t-44.5 -49.5t-39.5 -62.5q-12 -25 -16.5 -63.5t-5.5 -71.5t-12 -72.5t-35 -69.5q-30 -37 -63 -51.5t-83 -22t-77 -16.5q-25 -9 -63.5 -34t-75.5 -39t-81 -7q-34 5 -58 30
t-46.5 60t-42.5 52q-23 19 -75 43.5t-72 48.5q-12 14 -17 46t-14 60t-33 41q-31 16 -88 -2t-74 -16q-19 4 -64 39t-73 31q-23 -2 -34 -17.5t-13 -34t-6.5 -44t-14.5 -40.5q-8 -13 -24.5 -26t-28.5 -21.5t-23.5 -22.5t-10.5 -27t12 -36q7 -15 29 -14t43 9.5t47.5 15.5t41.5 2
q34 -11 51 -42t9 -63t-41 -47q-14 -12 -47.5 -4.5t-44.5 6.5q-23 -3 -63.5 -35t-76.5 -33q-43 -2 -78.5 17t-52.5 22q-23 3 -70 -12t-83 -4q-35 11 -51.5 53.5t1 85t70.5 51.5q25 4 50 -2.5t46.5 -5t53.5 24.5q29 20 37 65t10.5 100.5t15.5 84.5t44 59t60.5 58.5t39.5 56.5
q14 37 21 133t24 139q11 33 46 64t69.5 50t61 44t23.5 49q-4 35 -30.5 47.5t-68.5 17t-62 17.5q-30 19 -44.5 51.5t-10.5 62.5t34.5 48.5t81.5 11.5q50 -7 102.5 -41t96.5 -37q34 -3 116.5 19t141.5 14q68 -8 98 -54t6 -89t-90 -43q-20 0 -40.5 7t-32.5 13.5t-24.5 6
t-21.5 -12.5q-16 -20 0.5 -47.5t44 -61.5t31.5 -57q4 -25 -8 -59.5t-12 -49.5q0 -17 12 -56.5t12 -61.5q0 -18 -21.5 -81.5t-15.5 -123.5q4 -37 21 -67t36.5 -47.5t45 -42.5t39.5 -46zM1626 1176q-10 5 -28 23t-34.5 28.5t-31.5 5.5q-38 -14 -30 -90t48 -101q9 -8 22.5 -4
t22.5 9.5t22.5 15.5t22.5 14t35.5 7t42 11t15.5 27q0 23 -17 32t-47 12.5t-43 9.5zM874 1061q-27 10 -40.5 -12.5t-23 -79.5t-15.5 -76q-7 -19 -30 -50.5t-46.5 -59.5t-46 -63t-27.5 -61.5t8 -54.5q15 -22 32.5 -22t42 8t42.5 4q11 -2 31 -13t35.5 -19t32.5 -5.5t26 21.5
q16 25 -16.5 99t-30.5 105q1 29 11 68.5t21 71.5t18.5 62t2 50.5t-26.5 26.5z" />
    <glyph glyph-name="a_o" unicode="a&#xb7;o" horiz-adv-x="1015" 
d="M584 946q-30 -5 -54.5 -26t-46 -46t-39.5 -34q-17 -9 -42 -7.5t-42.5 7.5t-48.5 12.5t-59 7.5q-55 0 -97.5 -42.5t-31.5 -108.5q7 -41 32 -101.5t23 -91.5q-3 -50 -54.5 -144t-60.5 -143q-12 -76 32 -126t112 -35q30 7 60.5 30.5t56.5 45t49 24.5q19 4 38 -7.5t32 -28
t32.5 -31t38.5 -15.5q22 -1 62 28t63 33q28 4 70 -23t71 -32q54 -8 99.5 33t42.5 104q-2 39 -34 137t-22 150q8 42 25.5 75t35 50.5t38 39.5t30.5 40q17 36 18.5 73t-22 67.5t-65.5 35.5q-35 4 -84 -20.5t-80 -20.5q-23 3 -45 20t-37.5 35t-40.5 29.5t-55 5.5zM330 678
q19 17 45.5 19t50 -5.5t54 -14t52.5 -3.5q30 4 73 39t65 39q40 8 70.5 -27t23.5 -80q-3 -18 -29 -56.5t-28 -62.5q-1 -17 6.5 -48.5t14.5 -58t4 -55.5t-21 -45q-17 -19 -45.5 -16.5t-50.5 13t-54 20t-57 6.5q-38 -5 -98 -37.5t-78 -38.5q-34 -10 -58 9t-18 51q5 23 41 61
t41 68q4 23 -3.5 57.5t-16 61.5t-6.5 56.5t22 47.5z" />
    <glyph glyph-name="D_E" unicode="D&#xb7;E" horiz-adv-x="1845" 
d="M184 96q-43 -17 -65.5 -46.5t-20.5 -59.5t17 -56t47.5 -40t70.5 -9q39 5 72.5 24.5t58 42l49 45t54.5 37t65 13.5q39 -1 74 -18t57 -37t59 -36.5t81 -16.5q43 0 77.5 14t53.5 32t46 37.5t54 26.5q22 5 67 6.5t78.5 4.5t76 27.5t73.5 72.5q14 21 21.5 61t20.5 73t44 50
q28 16 67.5 8.5t71 -24t72.5 -28t72 -3.5q37 10 57.5 34t35 58.5t26.5 48.5q9 11 49.5 44.5t48.5 64.5q13 54 -27 94.5t-94 26.5q-39 -10 -64.5 -39t-48.5 -69t-43 -58q-36 -33 -79.5 -29.5t-65.5 37.5q-10 15 -21.5 57t-27.5 60q-15 17 -51.5 25.5t-53.5 27.5
q-32 40 -29 73.5t34 55t73 18.5q31 -2 56.5 -19t39 -37t32.5 -42t38 -31q45 -23 81.5 -10.5t59 40t22 67t-29.5 71.5q-22 24 -66 30.5t-57 14.5q-15 10 -20 25.5t1 31.5t18 30.5t34 24t47 9.5q34 0 67 -17t55 -37.5t52 -38.5t58 -19q56 -3 93.5 29t31.5 83q-3 22 -22 40
t-45 35.5t-36 29.5q-10 13 -21 39.5t-25 42.5t-42 20q-30 5 -61.5 -8t-54 -32t-50.5 -37.5t-49 -22.5q-37 -7 -54 18.5t-3 54.5q9 17 54.5 53.5t51.5 59.5q13 48 -25.5 76t-95.5 16q-64 -14 -107.5 -72.5t-45.5 -121.5q-1 -33 17 -109.5t3 -101.5q-20 -35 -65 -34.5
t-70 34.5q-9 12 -42 80t-75 104q-28 23 -69.5 30t-76 3.5t-69.5 -1.5t-51 15q-17 15 -19.5 52t1 73t-8 70t-43.5 45q-37 13 -66.5 -4t-49.5 -53.5t-36.5 -76t-37.5 -75.5t-43 -47q-41 -21 -91 -16.5t-85 10.5t-98 -25q-48 -28 -73.5 -63.5t-26.5 -66t17 -54.5t52 -33
q24 -6 57 4t62 25t57.5 27t52 8t37.5 -31q16 -26 3.5 -63.5t-33.5 -66t-43 -69t-25 -72.5q-5 -49 12 -125t10 -141q-5 -44 -22.5 -78.5t-42.5 -66.5t-33 -47q-10 -19 -16 -73t-33 -73q-23 -17 -69.5 -21.5t-82.5 -19.5zM565 227q-13 28 11.5 84.5t65.5 138.5t54 146
q16 78 18 193.5t7 150.5q11 79 49 132t96 50q50 -3 74 -27.5t43 -63.5t43 -58q28 -23 86 -29t76 -35q12 -19 12.5 -53.5t-5.5 -67t-12 -70.5t-5 -59q2 -36 27.5 -98t23.5 -104q-2 -37 -9.5 -65t-23 -48.5t-27.5 -32.5t-35 -29.5t-32 -25.5q-14 -13 -40 -39.5t-40.5 -38.5
t-40 -24.5t-55.5 -14.5q-40 -3 -81 7.5t-80 25.5t-58 18q-29 6 -53.5 0t-49.5 1.5t-39 35.5z" />
    <glyph glyph-name="Eacute_E" unicode="&#xc9;&#xb7;E" horiz-adv-x="1509" 
d="M1034 739q21 -21 28 -65.5t15.5 -85.5t34.5 -58q20 -12 40 -13.5t36 3.5t40.5 11t47.5 6q27 0 77 -28.5t89 -19.5q32 7 50.5 31t33.5 55.5t30 45.5q9 8 37 29.5t41.5 38t20.5 40.5q17 52 -23 94.5t-94 30.5q-40 -9 -66.5 -37.5t-50.5 -67.5t-45 -57q-37 -30 -80.5 -24.5
t-64.5 39.5q-8 14 -18.5 56.5t-26.5 61.5q-14 17 -50 27.5t-53 30.5q-46 58 -14.5 103.5t98.5 39.5q31 -3 55 -20.5t37 -38t31.5 -43.5t36.5 -33q34 -16 66 -15t54.5 20t35.5 44t9 56.5t-26 58.5q-21 25 -64.5 32.5t-55.5 16.5q-14 11 -18.5 27t1.5 32t19 30t35 22.5t47 7.5
q34 -1 66.5 -19.5t53.5 -39.5t50 -40t57 -22q56 -5 95.5 25.5t33.5 82.5q-4 29 -48.5 64.5t-49.5 42.5q-11 13 -20.5 40t-23.5 44t-42 22q-29 5 -61 -6.5t-55.5 -29t-52 -35t-49.5 -21.5q-37 -7 -54 19.5t-1 54.5q10 17 56.5 52.5t54.5 58.5q15 47 -23 77t-94 19
q-65 -13 -112 -71t-50 -120q-1 -26 7.5 -66.5t16.5 -69.5t5 -54t-23 -31q-23 -6 -38.5 12.5t-23.5 44t-24.5 46.5t-40.5 20q-29 -1 -53.5 -14.5t-39.5 -29.5t-37.5 -31.5t-47.5 -18.5q-23 -3 -50.5 5.5t-48 17.5t-51.5 6.5t-63 -25.5q-27 -19 -39 -50.5t-12.5 -57
t-12.5 -47.5t-40 -27q-51 -9 -90 11t-45 75q-4 42 14 80.5t45.5 66.5t53.5 53.5t39 51.5t1 51q-20 41 -68.5 51.5t-91.5 -4.5q-32 -9 -63.5 -31.5t-59 -56t-43 -83.5t-12.5 -106q2 -45 21 -86t45 -68.5t54 -55t50.5 -47.5t33 -44t1.5 -47q-12 -31 -44 -46t-66.5 -17.5
t-76 -18t-67.5 -45.5q-29 -35 -38 -83t-4.5 -88t-4.5 -87q-5 -28 -16.5 -62.5t-21.5 -59t-18.5 -58.5t-8 -61.5t9.5 -67.5q14 -48 43 -75.5t83.5 -54.5t78.5 -44q22 -15 51.5 -44.5t50.5 -50t56.5 -37t76.5 -16.5q40 0 77 18.5t60.5 41t52 46.5t50.5 32q28 9 90.5 7t93.5 11
q83 32 118.5 132.5t5 184.5t-109.5 74q-35 -4 -59.5 -41t-37 -81t-36.5 -86t-57 -54q-23 -12 -96 -4t-105 4q-17 -2 -43.5 -12t-44.5 -17t-45 -9t-45 11q-23 13 -36.5 34.5t-17 39.5t-8 50.5t-8.5 50.5q-6 25 -29.5 59t-25.5 61q-5 63 35.5 128.5t93.5 58.5q26 -3 50.5 -25
t40 -47t37.5 -48t44 -28q44 -9 89 3t76 39.5t49.5 60.5t12.5 68t-38 59q-23 17 -64 23t-75.5 13.5t-49.5 30.5q-34 53 7 95.5t106 37.5q44 -3 95.5 -41.5t80.5 -46.5q32 -9 60.5 -4.5t64 -3t61.5 -33.5zM610 1374q-12 -18 -0.5 -41t39.5 -30q71 -19 175 3t157 80
q33 35 42.5 78.5t-7 75t-53.5 33.5q-28 1 -51.5 -11.5t-38.5 -30t-40 -40.5t-51 -37q-27 -14 -67.5 -26t-67 -23.5t-37.5 -30.5zM741 1042q3 37 36 60t77 28q47 5 87 -10.5t40 -54.5q0 -21 -12.5 -31.5t-33.5 -18t-30 -16.5q-9 -8 -17.5 -28t-22 -31.5t-40.5 -11.5
q-40 0 -64.5 35t-19.5 79z" />
    <glyph glyph-name="e_a" unicode="a&#xb7;e" horiz-adv-x="1488" 
d="M70 936q0 -43 -35 -111.5t-35 -117.5q0 -70 49.5 -123t134.5 -45q45 4 81 28.5t59.5 56.5t45.5 63t49.5 52t61.5 21q40 0 105 -24.5t121 -14.5q43 8 81 39t63.5 67.5t48 72t42.5 56t39 15.5q26 -8 35.5 -50.5t-1 -99t-34 -111.5t-68.5 -94.5t-100 -42.5q-35 -2 -98.5 15
t-106.5 6q-27 -7 -44 -28.5t-23 -44t-16.5 -45.5t-26.5 -32q-23 -13 -48.5 -12.5t-46.5 5.5t-57 -1q-36 -7 -65.5 -36t-42 -69t-12 -81.5t24 -77.5t66.5 -53q26 -10 93.5 -9.5t89.5 -3.5q16 -4 40 -25.5t52.5 -39.5t60.5 -16q28 2 50 16t37 39t25 48t22 56.5t20 51.5
q19 42 58.5 51.5t64.5 -16.5t8 -70q-19 -52 -21.5 -103t16.5 -90t60 -47q40 -8 73.5 12t52.5 49t45.5 71.5t45.5 62.5q23 26 62 46t70 43t47 62q13 31 7.5 58.5t-24 41t-42.5 18t-48 -10.5q-26 -15 -57.5 -46t-59 -48.5t-63.5 -14.5q-34 3 -59 31.5t-34 67t-1 73.5
q6 26 24 50t37.5 40t43 41t36.5 51q11 20 11.5 41.5t-5 37.5t-12.5 39t-8 40q-2 27 10.5 53t37 56.5t31.5 42.5q12 20 13 50t-11 58t-36 39q-40 17 -97 -5.5t-79 -16.5q-24 6 -47.5 28t-46 34.5t-54.5 2.5q-27 -9 -42.5 -32.5t-21.5 -52.5t-10.5 -58.5t-15.5 -54.5t-31 -35
q-41 -15 -61.5 -8t-58.5 19.5t-72 8.5q-35 -4 -74 -23.5t-70 -44t-63.5 -48.5t-58.5 -38.5t-51.5 -11.5t-45.5 29q-20 30 -12 57.5t37.5 65t69 72.5t82.5 80.5t79 88.5t57.5 97t18.5 106q-5 78 -46.5 129t-111.5 51q-40 0 -72 -13t-50.5 -31t-34.5 -46.5t-23 -51t-16 -52
t-15 -43.5q-13 -33 -44 -77.5t-42 -80.5q-12 -53 -9 -83t12.5 -75t9.5 -67zM258 1198q-23 19 -14.5 67t40 92.5t54.5 28.5q18 -12 21.5 -38t-5.5 -54t-24 -53t-35 -38t-37 -5zM436 276q1 13 12 19.5t24.5 8t34 5.5t34.5 10q28 13 51.5 38.5t39.5 42t32 14.5q57 -7 43 -76
q-8 -43 -71.5 -78.5t-137.5 -26.5q-66 7 -62 43z" />
    <glyph glyph-name="eacute_e" unicode="&#xe9;&#xb7;e" horiz-adv-x="1720" 
d="M1059 559q61 0 117 -22.5t110.5 -44.5t114.5 -21q63 1 124 37t95.5 88t26.5 98q-5 31 -28 46t-54.5 27.5t-46.5 29.5q-20 24 -36.5 74t-26.5 91.5t-39.5 74t-76.5 32.5q-34 0 -66 -21t-59 -54.5t-53.5 -74.5t-54.5 -82.5t-57 -76t-66.5 -57.5t-77.5 -25q-49 -3 -83 24
t-49 62t-32.5 77.5t-33.5 59.5q-23 24 -55 41t-49.5 27t-16.5 24q2 22 40 40t96 44.5t91 59.5q36 36 46.5 87.5t-10 89.5t-65.5 38q-36 0 -65.5 -21.5t-48 -49t-47 -59.5t-58.5 -48q-38 -21 -90.5 -34t-87 -24.5t-47.5 -34.5t-3 -50.5t32 -33.5q19 -5 39 -0.5t38 4t21 -13.5
q4 -14 -7 -25.5t-32 -25t-31 -23.5q-16 -17 -49 -75.5t-72 -92.5q-23 -20 -64.5 -42.5t-71.5 -38t-55 -48t-28 -77.5q-4 -53 18.5 -96t63 -90.5t56.5 -78.5q18 -34 37.5 -86t31.5 -82.5t40 -59.5t69 -40q29 -4 49 -6t44.5 7t40.5 16.5t37 23t35 27.5t33.5 28.5t32.5 26.5
q38 28 119.5 41t109.5 41q36 42 34 82t-36.5 67t-78.5 19q-41 -8 -87.5 -34.5t-81 -53.5t-79.5 -47t-86 -17q-57 4 -109.5 45t-72 95t5.5 108q28 51 87 63t116.5 -1.5t132.5 -31.5t114 -18q63 0 122.5 18t111 36t92.5 18zM1290 827q49 17 90 -31t30.5 -104.5t-83.5 -62.5
q-38 -3 -62.5 23t-30 61t9 69t46.5 45zM573 811q29 -10 44 -34.5t12 -51t-16.5 -50.5t-40.5 -33t-60 1q-36 12 -53 37.5t-12.5 51t20.5 49t45 31.5t61 -1z" />
    <glyph glyph-name="F_V" unicode="F&#xb7;V" horiz-adv-x="2281" 
d="M147 133q-42 -27 -56.5 -69t3 -77.5t60.5 -45.5q33 -8 108.5 21t110.5 32q27 3 130 -7t138 7q43 13 64 47t13.5 70.5t-38.5 56.5q-27 16 -56 9.5t-60.5 -6t-43.5 21.5q-12 18 -6.5 48t17 54.5t24 56t14.5 51.5q2 21 -4.5 63.5t-5 80.5t20.5 67q29 45 84.5 27.5
t60.5 -70.5q2 -28 -18 -60t-19 -54q2 -53 27.5 -82t58 -31.5t64.5 11.5t47 40q14 24 15.5 63.5t-2 71.5t6.5 70q7 21 32.5 58t44 76t17.5 79q-1 49 -34.5 72.5t-69.5 3.5q-26 -14 -59 -56t-62 -61q-24 -17 -66.5 -18.5t-78.5 16.5t-39 53q-2 25 31.5 76t33.5 76
q0 19 -11 55.5t-10 62.5t25 42q15 14 45.5 12.5t55 -9t64 -15.5t71.5 -7t75.5 13t75 23.5t73 17t69.5 -6.5q22 -8 30.5 -33t-1.5 -65q-8 -26 -52 -76t-47 -84q-3 -33 12 -95t13 -105q-2 -31 -24 -74t-40 -86.5t-12 -83.5q6 -45 49 -93.5t51 -82.5q6 -25 -8.5 -75t-9.5 -87
q9 -67 73 -95.5t128 -4.5q35 13 58 40.5t42 56.5t39 42q15 10 51 24t57 35q20 20 34 71.5t34 74.5q16 19 50 26t68 18.5t54 41.5q15 22 12.5 64t-7.5 76t13 71q11 19 60 42.5t70 59.5q17 28 24 79t25 73q12 16 44.5 17.5t77.5 2.5t76 14q39 16 59 44.5t18 57.5t-15 54.5
t-37.5 40t-50.5 10.5q-17 -2 -39.5 -12.5t-37 -18t-35.5 -10t-34 9.5q-15 11 -16 30.5t5.5 39t14.5 46t9 44.5q2 46 -23.5 73.5t-69.5 27.5q-26 0 -56 -24t-50 -28q-25 -5 -69 6t-76 5q-51 -10 -78.5 -46.5t-28 -77.5t20 -77t55.5 -47q44 -14 90 -3.5t67 3.5q29 -10 40 -40
t1 -64t-36 -54q-21 -16 -62.5 -35.5t-69 -39.5t-38.5 -52q-10 -29 -3.5 -108.5t-15.5 -114.5q-15 -30 -42.5 -45t-60 -27t-50.5 -31q-22 -23 -36 -86.5t-46 -95.5q-25 -25 -61 -27t-64.5 15.5t-43 55t-1.5 83.5q8 31 45.5 77t44.5 85q6 36 -20 89t-25 87q1 27 17.5 52.5
t36 43t36.5 46t18 61.5q2 48 -22.5 106t-26.5 78q-3 27 11.5 70t13.5 74q-2 53 -33 81t-80 21q-20 -3 -60.5 -31t-86.5 -54.5t-80 -27.5q-32 -1 -127 30.5t-144 27.5q-45 -4 -119 -42t-114 -40q-34 -2 -88 23t-98 28q-40 3 -70 -17.5t-42 -49.5t-8 -61.5t27 -51.5
q25 -21 73.5 -24.5t84.5 -10.5t43 -37q8 -31 -4.5 -61.5t-32 -53.5t-36.5 -59t-17 -74q0 -52 19.5 -132.5t17.5 -111.5q-1 -22 -14 -41t-27.5 -32t-28 -34.5t-16.5 -47.5q-3 -23 6.5 -60t19.5 -66t12 -63t-16 -51q-18 -20 -49.5 -19.5t-75.5 -1t-84 -26.5z" />
    <glyph glyph-name="f_v_e" unicode="f&#xb7;ve" horiz-adv-x="1781" 
d="M940 791q13 15 39 17t52 -4t63.5 -13t62.5 -7q41 1 71 23t40.5 53t9 63t-23.5 56t-58 29q-21 3 -55.5 -7.5t-61 -20.5t-51 -6t-33.5 30q-12 25 -2 51t25.5 41t34 42.5t24.5 55.5q4 28 5 65t0 70t12 58.5t41 31.5q39 9 59 -23.5t23 -79t11.5 -100.5t26.5 -77
q26 -31 61.5 -33t65 18.5t48 58.5t12.5 79q-6 42 -44.5 71.5t-45.5 61.5q-5 20 -9.5 51t-7.5 48.5t-15.5 37t-33.5 31.5q-18 13 -42 10t-38.5 -9.5t-36.5 -17t-36 -14.5q-27 -6 -48 -1t-50.5 0t-55.5 -26q-31 -23 -44 -58t-11 -67t1.5 -67.5t-7.5 -61.5q-8 -25 -47.5 -72
t-51.5 -87q-13 -42 -4 -138t-8 -141q-17 -47 -70 -99t-73 -93q-15 -30 -27.5 -124t-38.5 -153q-33 -71 -81 -83q-40 -10 -56 25q-8 17 -6 40q2 31 27 120t18 132q-5 32 -26.5 77t-24.5 76t41.5 102t54.5 103q12 39 3.5 71t-30.5 46.5t-50 17t-54 -17.5q-14 -11 -34 -45
t-42 -50q-13 -11 -36.5 -23t-38.5 -18t-55 -21t-50 -19q-64 -25 -92.5 -61.5t-16.5 -78.5q12 -37 40.5 -54.5t66.5 -10.5q23 4 61.5 30t58.5 27q23 1 39 -19.5t19 -50.5q6 -43 -21 -113t-22 -110q3 -29 19.5 -76.5t19.5 -87.5q3 -27 -17 -93t-14 -109q6 -53 42.5 -83.5
t90.5 -23.5q32 5 54 22.5t44 47.5t31 39q14 15 56.5 37.5t56.5 48.5q11 22 11 67t17 88q10 25 66.5 83.5t85.5 111.5q28 48 37.5 105.5t17 103.5t31.5 74zM872 195q-9 -40 12.5 -65.5t61.5 -33.5q26 -5 48.5 -1t37.5 -1.5t15 -27.5q0 -20 -30 -74.5t-30 -102.5
q0 -147 162 -147q40 0 72 18.5t52.5 44.5t39.5 53t44.5 46t55.5 20q24 1 53 -23t56 -24q38 0 67 28.5t29 84.5q0 58 -41 93.5t-94 35.5q-32 0 -68 -16.5t-65 -40.5t-59.5 -47.5t-54.5 -39.5t-48 -16t-41 23q-17 27 -11 51t30.5 56.5t58 62.5t69.5 69t66 76.5t48 84.5t15 93
q-5 67 -40 110.5t-93 43.5q-48 0 -85.5 -18.5t-59.5 -45.5t-37 -64t-21 -67.5t-8 -62.5q-3 -43 -22.5 -65.5t-47 -29t-55.5 -11t-51.5 -21t-30.5 -49.5z" />
    <glyph glyph-name="I_E" unicode="I&#xb7;E" horiz-adv-x="1415" 
d="M133 -35q40 -8 85.5 2t88 21.5t72.5 5.5q19 -4 38 -20t42.5 -28.5t58.5 -11.5q40 1 88.5 37.5t83.5 42.5q21 3 64 -16t77 -4q32 15 51 39t22 48.5t-3.5 47t-23 37.5t-37.5 16q-22 1 -60 -10.5t-66.5 -23t-60 -14.5t-41.5 16q-15 15 -12 48.5t12.5 61t20.5 64.5t12 59
q2 35 -14 105t-15 106q2 61 31 125.5t68 56.5q24 -5 36.5 -37.5t25 -69t36.5 -46.5q32 -14 78.5 3t75.5 17q27 0 77 -28t89 -19q32 7 50.5 31t33.5 55t30 45q8 7 37 29.5t42 39t20 40.5q17 52 -23 94.5t-94 30.5q-40 -9 -66.5 -37.5t-50.5 -67.5t-45 -57q-37 -30 -80.5 -25
t-64.5 39q-8 14 -18.5 57t-26.5 62q-12 14 -31.5 21t-42 17.5t-41.5 33.5q-36 46 0 90.5t96 38.5q39 -3 66 -30t49.5 -60.5t44.5 -45.5q34 -16 66 -15t54.5 20t35.5 44t9 56.5t-26 58.5q-21 25 -65 32.5t-56 16.5q-14 11 -18.5 27t1.5 32t19 30t35 22.5t47 7.5
q34 -1 66.5 -19.5t53.5 -39.5t50.5 -40t57.5 -22q56 -5 95.5 26t33.5 83q-4 29 -49 64t-50 42q-11 13 -20.5 40.5t-23.5 44.5t-42 22q-29 5 -61 -6.5t-55 -29t-51.5 -35t-49.5 -21.5q-37 -7 -54 19t-1 54q10 17 56 52.5t54 58.5q15 47 -22.5 77t-93.5 19q-65 -13 -112 -70.5
t-50 -119.5q-1 -26 7 -64.5t15.5 -66.5t5 -54t-21.5 -36q-32 -12 -50.5 -8.5t-53 11t-60.5 5.5q-41 -4 -86 -30.5t-80 -33.5q-27 -6 -69.5 4.5t-81.5 4.5q-41 -8 -65 -36t-26 -59t17 -57.5t55 -32.5q36 -5 80 15.5t62 17.5q46 -7 60.5 -67.5t-3.5 -110.5q-8 -25 -57.5 -98.5
t-53.5 -110.5q-3 -32 10 -90.5t9 -93.5q-4 -28 -31.5 -80.5t-30.5 -89.5q-2 -23 8 -68.5t9.5 -80t-25.5 -54.5t-56.5 -22t-57.5 6t-60.5 15.5t-60.5 4.5q-47 -6 -75 -35t-31 -63t17.5 -65t61.5 -40z" />
    <glyph glyph-name="I_E_L" unicode="I&#xb7;EL" horiz-adv-x="3098" 
d="M133 -35q51 -11 152.5 11t146.5 20q36 -1 95 -12t98.5 -16t115.5 3q101 17 126 81q20 50 -15 90q-30 34 -78 34q-22 0 -49 -11t-43.5 -21t-37.5 -11.5t-32 17.5q-14 15 -8 48t19.5 61.5t26.5 64.5t12 59q-1 32 -21.5 89.5t-15.5 88.5t22 57.5t35 43.5t38 47.5t30 66.5
q8 30 5 77.5t-11 91.5t-5.5 88t21.5 67q27 32 80 51t102 18.5t88 -12.5q30 -12 50 -37.5t38 -57.5t35 -48q12 -12 40.5 -32.5t46.5 -34.5t28.5 -37.5t1.5 -47.5q-12 -31 -44 -46t-66.5 -17.5t-76 -18t-67.5 -45.5q-29 -35 -37.5 -83.5t-4 -93.5t-3.5 -101q-3 -21 -13 -63
t-16.5 -71t-8.5 -74.5t11 -74.5q15 -43 40.5 -67.5t73 -47.5t66.5 -36q14 -10 49 -38t58.5 -44t64.5 -30.5t84 -14.5q49 0 93 18.5t73 41t74 44.5t94 27q62 7 141 -14t123 -21q54 0 143 23.5t120 23.5q25 0 85 -15t103 -12q35 3 86 28t98 21q32 -3 71 -19t64.5 -29.5t62 -19
t64.5 12.5q32 17 45.5 51t10.5 69.5t-4.5 72.5t0.5 59q5 26 42 85t40 114q4 65 -39.5 89.5t-97.5 3t-79 -72.5q-15 -30 -19.5 -89t-16.5 -101t-47 -54q-31 -11 -54.5 0t-51 27t-60.5 14q-27 -1 -59.5 -24.5t-54 -46.5t-50 -35.5t-49.5 6.5q-21 16 -22 44.5t10 55.5t23 65.5
t13 66.5q1 32 -11.5 64t-21 58t-0.5 50q7 24 35.5 54t60.5 67.5t46 78.5q12 39 10.5 86t-8.5 86.5t1 83t38 76.5q25 27 62.5 36.5t73 5.5t76.5 -4t74 9q63 20 85 74.5t-15 101.5q-20 27 -50.5 31.5t-56.5 -5.5t-54 -21.5t-40 -10.5q-15 1 -34.5 14.5t-44.5 25.5t-56 9
q-43 -3 -81 -32t-64 -35q-33 -9 -86.5 -1t-87.5 3q-45 -6 -71 -31t-27 -53.5t18.5 -54.5t56.5 -33q24 -5 53 0.5t48.5 5.5t33.5 -17q10 -16 8.5 -28t-12 -29.5t-23 -32.5t-24.5 -38t-16 -46q-6 -39 4 -102.5t-6 -103.5q-12 -39 -34.5 -73.5t-43 -71.5t-31.5 -89
q-7 -45 -2 -98.5t14.5 -98.5t7 -84.5t-25.5 -56.5q-19 -19 -50.5 -11t-56.5 25t-64 34.5t-73 17.5q-44 0 -80 -20t-74.5 -48t-78.5 -39q-50 -15 -127 3t-113 16q-27 -2 -56 -15.5t-47 -25.5t-44 -17.5t-47 8.5q-30 17 -40.5 42.5t-14 65.5t-9.5 60q-5 15 -30.5 62.5
t-32.5 93.5q-12 80 30 134t109 44q30 -4 55 -18.5t43 -33t34.5 -37.5t37.5 -36t45 -24q42 -11 77.5 -4.5t58 30t32 52t-1 62t-41.5 58.5q-23 19 -62 30t-71 22t-47 34q-32 49 10 92q40 39 103 36q51 -3 87 -38q48 -47 125 -59.5t119 23.5q31 28 34 99t13 89q11 20 30.5 38.5
t35.5 30.5t31 31t20 43q19 78 -16.5 138t-106.5 59q-29 -1 -53.5 -14.5t-39.5 -29.5t-37.5 -31.5t-47.5 -18.5q-23 -3 -50.5 5.5t-48 17.5t-51.5 6.5t-63 -25.5q-35 -24 -44.5 -66t-15 -73.5t-30.5 -38.5q-55 -15 -104.5 5.5t-53.5 76.5q-3 42 16.5 80.5t48 66.5t55.5 53.5
t40.5 51.5t1.5 51q-20 41 -68 51.5t-92 -4.5q-24 -6 -52.5 -32t-50 -53.5t-46.5 -52t-43 -28.5q-19 -4 -49 2t-44 4q-18 -3 -46 -18t-46 -15q-15 0 -63 21t-88 20q-26 -1 -48 -12t-35.5 -24.5t-35.5 -28t-47 -19.5q-27 -6 -70 4.5t-82 4.5q-41 -8 -65 -36t-25.5 -59
t17.5 -57.5t55 -32.5q36 -5 79.5 15.5t61.5 17.5q46 -7 61 -67.5t-3 -110.5q-8 -25 -57.5 -98.5t-53.5 -110.5q-3 -30 10.5 -86.5t7.5 -97.5q-6 -38 -31.5 -86.5t-29.5 -83.5q-2 -16 3 -63.5t-1 -83.5t-31 -56t-56.5 -22t-57.5 6t-60.5 15.5t-60.5 4.5q-47 -6 -75 -35
t-31 -63t17.5 -65t61.5 -40zM1581 1049q0 37 34.5 59t78.5 22q48 0 87.5 -16.5t39.5 -54.5q0 -21 -12 -29.5t-33 -15t-33 -17.5q-11 -10 -22 -29.5t-22.5 -29.5t-33.5 -10q-39 0 -61.5 35.5t-22.5 85.5z" />
    <glyph glyph-name="i_e_l" unicode="i&#xb7;el" horiz-adv-x="2105" 
d="M100 102q26 32 67.5 46t78 14t75 9.5t58.5 33.5q23 27 27 53.5t-3.5 45t-15 43.5t-4.5 46q4 29 16.5 59t24 49t31 48t26.5 41q20 35 12 60t-38 22q-23 -2 -78 -37t-103 -33q-46 2 -71.5 36t-16.5 78t50 70q30 19 65 23t66 0.5t77 3.5q27 4 79.5 39.5t94.5 36.5
q27 1 54 -13.5t44.5 -31t42 -28.5t48.5 -7q40 8 74.5 53.5t53.5 97t42.5 115.5t38.5 90q27 49 76 71t97.5 11.5t76.5 -47.5q17 -23 33.5 -68t35.5 -59q12 -10 58 -29t69.5 -47t16.5 -79q-8 -53 -41.5 -81.5t-79 -33t-99.5 -5.5t-101 1t-84.5 -12.5t-49.5 -47.5
q-26 -69 14 -120.5t113 -49.5q30 1 58.5 16.5t52 38t47.5 44.5t53.5 37.5t60.5 15.5q22 0 45.5 -14.5t40 -29t43 -22.5t54.5 4q27 11 37 40.5t15.5 76.5t16.5 76q17 43 63 99.5t84 111t44 104.5q5 38 -11.5 62.5t-39.5 9.5q-18 -12 -43 -38t-44.5 -46.5t-49.5 -37.5t-62 -19
q-40 -3 -66.5 23.5t-25.5 62t30 69.5q30 30 66 42t72 18.5t59 21.5q25 16 55 48t51.5 56.5t52 43t62.5 16.5q37 -2 59.5 -26t28 -57.5t3 -67t-12.5 -58.5q-82 -207 -94 -241q-8 -25 -10.5 -73.5t-10.5 -80.5q-8 -31 -78 -149.5t-81 -182.5q-3 -38 -0.5 -57t10.5 -53t10 -50
q3 -24 -7 -67.5t-14.5 -68.5t11.5 -56q8 -14 28.5 -13t38 8t45 13t50.5 2q37 -6 57.5 -32.5t21 -57t-19.5 -58.5t-57 -38q-32 -8 -85.5 -2.5t-82.5 -1.5t-70 -27t-65 -24q-23 -4 -61 -0.5t-58 0.5q-11 -1 -64 -28t-94 -20q-43 8 -55.5 48.5t6 84.5t55.5 62q24 12 68 18
t78.5 17t50.5 37q25 41 34 85.5t1.5 82.5t-24.5 72.5t-45 56.5t-59.5 32t-69 2t-71.5 -36q-13 -11 -49.5 -44.5t-58.5 -51t-60.5 -30t-76.5 -3.5q-37 8 -76.5 51t-85 110.5t-66.5 91.5q-39 48 -105 41t-110 -65q-30 -38 -56.5 -110t-35.5 -143t14 -116q12 -19 31 -24.5
t38 -4t46 -10t51 -41.5q20 -25 22.5 -57.5t-9.5 -60t-41.5 -47t-69.5 -19.5q-42 0 -110.5 21.5t-120.5 17.5q-46 -4 -115.5 -44t-116.5 -44q-49 -4 -78.5 28.5t-28.5 79t29 82.5zM518 1047q-8 28 3.5 49t36 45t34.5 41q8 14 20 47.5t25.5 48.5t40.5 18q45 5 79.5 -22.5
t44 -73.5t-10.5 -104q-21 -51 -81.5 -80t-119 -21t-72.5 52zM1145 918q29 -8 64.5 8.5t41.5 44.5q9 29 -8 65t-45 43q-47 14 -73.5 -23.5t-19.5 -84t40 -53.5z" />
    <glyph glyph-name="i_e" unicode="i&#xb7;e" horiz-adv-x="1439" 
d="M90 51q-39 -56 5 -102t124 -35q38 5 113 26.5t136 38.5t136 27t113 -8q25 -9 36 -26.5t9 -43t-7.5 -50.5t-13 -58.5t-8.5 -57.5q-3 -64 48.5 -105t136.5 -34q39 3 71 23.5t52.5 47t39.5 52t44 43.5t55 18q27 0 57 -26.5t55 -26.5q38 0 69.5 31.5t31.5 87.5q0 65 -42 99.5
t-102 29.5q-31 -2 -66 -20t-64 -41.5t-59.5 -46.5t-55 -38.5t-49 -14.5t-42.5 24q-18 26 -13 50t28 55.5t54 61t66.5 67t65 73t49 79t19.5 85.5q0 81 -42 131t-112 41q-41 -5 -69 -25.5t-44 -52.5t-27.5 -65t-28.5 -73t-38 -67q-31 -41 -89 -62t-114 -20t-103 19t-60 49
q-12 30 6 63.5t45 72t29 71.5q1 18 -8 64t-1 87q4 21 25.5 55t34 64t0.5 55q-13 26 -48.5 33t-45.5 19q-30 31 -14 75.5t67 40.5q50 -5 93 23.5t46 73.5q2 31 -6.5 54.5t-25 46.5t-21.5 34q-4 8 -12 43t-22.5 53t-45.5 21q-30 3 -47 -11.5t-29.5 -41t-23.5 -36.5
q-14 -13 -42 -31.5t-42.5 -35.5t-18.5 -43q-4 -28 11.5 -53t29.5 -50.5t6 -56.5q-9 -37 -38 -60t-60.5 -31.5t-70.5 -24t-62 -37.5q-25 -23 -26.5 -57t21 -59.5t60.5 -25.5q40 0 90 36t76 40q30 4 38 -27t-13 -65q-10 -17 -28.5 -37.5t-33 -35.5t-28 -40t-19.5 -53
q-7 -43 -1.5 -80t3.5 -86.5t-20 -85.5q-15 -30 -52.5 -45.5t-79 -31t-61.5 -44.5z" />
    <glyph glyph-name="L_E" unicode="L&#xb7;E" horiz-adv-x="1867" 
d="M35 117q3 -43 28.5 -64.5t53.5 -24t62.5 -3.5t45.5 -5q13 -5 34.5 -24.5t46.5 -35t54 -15.5q35 0 82.5 33.5t79.5 39.5q31 6 106.5 -11t121.5 -11q25 4 57.5 15.5t59.5 22.5t56 19t58 6t55 -18q34 -21 61 -60.5t40 -75.5t30.5 -68t36.5 -40q31 -14 77.5 3.5t76.5 17.5
q27 0 77 -28t89 -19q32 7 50.5 31t33.5 55t30 45q9 8 37 29.5t41.5 38t20.5 40.5q17 52 -23 94.5t-94 30.5q-40 -9 -66.5 -37.5t-50.5 -67.5t-45 -57q-37 -30 -80.5 -24.5t-64.5 39.5q-8 14 -18.5 56.5t-26.5 61.5q-14 17 -50 27.5t-53 30.5q-46 58 -14.5 103.5t98.5 39.5
q31 -3 55 -20.5t37 -38t31.5 -43.5t36.5 -33q34 -16 66 -15t54.5 20t35.5 44t9 56.5t-26 58.5q-21 25 -65 32.5t-56 16.5q-14 11 -18.5 27t1.5 32t19 30t35 22.5t47 7.5q34 -1 66.5 -19.5t53.5 -39.5t50.5 -40t57.5 -22q56 -5 95.5 26t33.5 83q-4 29 -49 64t-50 42
q-11 13 -20.5 40.5t-23.5 44.5t-42 22q-29 5 -61 -6.5t-55 -29.5t-51.5 -35.5t-49.5 -21.5q-37 -7 -54 19.5t-1 54.5q10 17 56.5 52.5t54.5 58.5q15 47 -23 77t-94 19q-65 -13 -112 -71t-50 -120q-1 -26 7 -65t16 -67.5t5.5 -54t-22.5 -34.5q-26 -11 -62 3.5t-64 27.5
t-72 -2q-32 -14 -43.5 -56t-9.5 -84.5t-5.5 -82t-31.5 -49.5q-32 -14 -91 4.5t-98 11.5q-22 -4 -47 -18.5t-42 -30t-38.5 -29t-37.5 -15t-38 12.5q-21 16 -22 44.5t10.5 55.5t23.5 65.5t13 66.5q1 37 -20 89.5t-13 82.5q7 24 35.5 54t60 67.5t45.5 78.5q12 39 10.5 86
t-8.5 86.5t1 83t38 76.5q25 27 62.5 36.5t73.5 5.5t77 -4t74 9q63 20 85 74.5t-15 101.5q-20 27 -50.5 31.5t-56.5 -5.5t-54 -21.5t-40 -10.5q-15 1 -34.5 14.5t-44.5 25.5t-56 9q-43 -3 -82 -32t-64 -35q-31 -7 -97.5 3.5t-94.5 -9.5q-56 -27 -79.5 -69t-9 -75t59.5 -39
q20 -3 46 3t45.5 13t38.5 6t30 -14q10 -16 8.5 -28t-12.5 -29.5t-23.5 -32.5t-24.5 -38t-16 -46q-6 -39 4 -102.5t-6 -103.5q-12 -42 -53.5 -105t-54.5 -129q-8 -45 -4.5 -94t12 -89t6.5 -77t-20 -57q-14 -15 -34 -17.5t-42.5 5t-44 17t-47 19t-43.5 10.5q-49 3 -90 -31.5
t-37 -82.5z" />
    <glyph glyph-name="L_L_E" unicode="L&#xb7;LE" horiz-adv-x="2627" 
d="M35 113q4 -42 28.5 -63t52 -23t60.5 -3t45 -6t33.5 -24t45.5 -34t52 -15q27 0 48.5 13.5t39.5 30t33 21.5q23 7 77.5 -11.5t100.5 -6.5q31 8 59.5 27.5t51.5 32t51 9.5q31 -3 70 -17t64.5 -24.5t61 -15t58.5 11.5q41 22 55 69.5t11 94t12 98t57 80.5q45 30 101 34
t102.5 -8.5t111.5 -25.5t115 -10q49 2 119 35t104 37q44 4 77.5 -23.5t41.5 -70.5q4 -20 4.5 -59.5t6.5 -66t26 -42.5q26 -20 55 -23.5t71 2t63 4.5q27 -1 74 -30t85 -21q32 6 51.5 28.5t35.5 52.5t30 42q12 10 38 29.5t40 35t22 37.5q19 51 -18.5 94t-91.5 33
q-39 -8 -66 -35t-51.5 -63.5t-44.5 -52.5q-37 -28 -78.5 -21.5t-62.5 39.5q-9 15 -17.5 56.5t-23.5 60.5q-13 17 -45.5 31t-46.5 37q-30 49 -2 90.5t83 36.5q38 -3 63 -29.5t46.5 -60.5t42.5 -46q40 -24 79 -17t60 34.5t26 64t-24 72.5q-21 27 -63 35.5t-53 17.5
q-14 11 -17.5 26.5t3 31.5t19.5 29.5t34.5 20.5t46.5 5q33 -3 61.5 -22t46.5 -40t47 -40t62 -23q55 -6 94 22t35 80q-2 27 -44 62t-48 45q-9 13 -17.5 39.5t-21.5 43.5t-41 23q-29 6 -60 -4t-54 -26t-51.5 -32.5t-49.5 -19.5q-37 -6 -54 21.5t2 52.5q11 16 57.5 48.5
t55.5 56.5q17 44 -20.5 77t-92.5 21q-65 -15 -112.5 -69t-50.5 -113q-1 -24 5 -60.5t11.5 -63t2.5 -53.5t-19 -40q-25 -29 -88.5 -11.5t-98.5 0.5q-27 -13 -37 -48t-9 -70t-8.5 -67t-35.5 -40q-35 -11 -93.5 17t-90.5 24q-18 -2 -42 -15t-44.5 -27.5t-45 -27t-42 -13.5
t-35.5 13q-16 11 -13 33t13 39t22.5 45t14.5 51q3 32 -13 78t-8 72q8 25 51 61t56 78q8 30 6 68t-8 71t3 71t38 67q23 23 48 27t45.5 -3t52.5 -13t61 -1q50 9 73 52.5t8.5 88.5t-57.5 57q-51 14 -127.5 -16t-111.5 -29q-43 1 -134 30t-145 20q-46 -8 -70 -46t-14 -80t51 -61
q19 -8 42 -6t42 8.5t37 5.5t27 -14q13 -13 5.5 -33.5t-19.5 -35t-29.5 -39t-24.5 -46.5q-10 -32 -4.5 -89t-3.5 -83q-9 -28 -43.5 -70t-44.5 -83q-6 -31 -3 -69t9.5 -71t3 -64.5t-21.5 -49.5q-17 -17 -35 -19.5t-33 3t-39 11.5t-47 3q-46 -6 -70.5 -36.5t-31.5 -72.5
t-11.5 -84.5t-18 -78t-42.5 -46.5q-47 -13 -67.5 -4t-51.5 25t-57 14q-22 -1 -46.5 -16t-42 -33t-38.5 -34.5t-37 -20t-37 9.5q-20 16 -21 43.5t9.5 54.5t22 64.5t12.5 64.5q1 36 -19 86.5t-12 79.5q7 24 35 53.5t58.5 66.5t43.5 77q11 38 9.5 84t-8.5 84t1.5 80.5
t38.5 74.5q25 27 61 36t71 5t75 -3.5t72 9.5q62 20 82 71.5t-15 98.5q-20 26 -49.5 31t-54 -4t-52 -20t-38.5 -11q-15 0 -34.5 13t-44.5 25t-55 9q-42 -3 -79.5 -31t-61.5 -34q-30 -7 -95.5 3.5t-92.5 -9.5q-33 -16 -55 -38.5t-29.5 -45t-4.5 -42.5t19.5 -34.5t42.5 -17.5
q19 -3 44.5 3t44.5 13t37.5 6t29.5 -14q14 -13 6.5 -34t-20.5 -37t-30 -44t-22 -55q-7 -39 3.5 -101t-5.5 -102q-12 -40 -52 -101t-54 -126q-8 -43 -4.5 -91t11.5 -87t6 -75.5t-19 -56.5q-14 -15 -33.5 -17.5t-41 5.5t-43 18t-46 19t-43.5 10q-48 2 -87.5 -32t-35.5 -80z
" />
    <glyph glyph-name="l_e" unicode="l&#xb7;e" horiz-adv-x="1454" 
d="M700 23q28 -18 38.5 -50.5t8.5 -62t-8 -76t-6 -72.5q0 -64 50 -105t135 -34q39 3 71 23.5t52.5 47t39.5 52t44 43.5t55 18q27 0 57 -26.5t55 -26.5q38 0 69.5 31.5t31.5 87.5q0 65 -42 99.5t-102 29.5q-31 -2 -66 -20t-64 -41.5t-59.5 -46.5t-55 -38.5t-49 -14.5
t-42.5 24q-18 27 -12.5 51t28.5 56.5t54.5 63t67 69.5t66 76.5t50 83.5t19.5 91q0 65 -43.5 112t-112.5 40q-52 -6 -85.5 -38t-46.5 -70.5t-33.5 -91.5t-43.5 -85q-29 -40 -88 -53.5t-113.5 -0.5t-76.5 42q-12 16 -13 41t4.5 48t12 53.5t6.5 49.5q0 18 -13.5 72.5t-7.5 87.5
q9 49 44.5 115t71.5 126t44 91q8 32 10.5 80.5t10.5 73.5q12 34 41.5 68t53 65.5t26.5 66.5q2 33 -19.5 73.5t-23.5 49.5q-1 14 -1.5 35t-1 40.5t-15 34.5t-44.5 17q-32 2 -62.5 -16.5t-52 -43t-51.5 -56.5t-55 -48q-28 -18 -90.5 -36.5t-106.5 -45.5q-47 -28 -65.5 -73.5
t-9.5 -81.5t34 -45q13 -4 25 0.5t27.5 15t27.5 14.5q14 5 37 -2.5t49 0.5q20 7 35.5 25.5t38.5 54.5t41 60q30 39 56 14q25 -23 16 -72q-5 -21 -15 -39q-3 -4 -60 -95.5t-92 -158.5t-42 -108q-7 -42 -2 -135t-9 -135q-7 -25 -36.5 -57t-34.5 -60q-4 -21 6.5 -62.5t16 -67.5
t-10.5 -57q-18 -24 -57.5 -32.5t-87.5 -12.5t-72 -16q-37 -18 -54 -62t-3 -84.5t57 -48.5q40 -7 89 26.5t69 37.5q26 6 89 0.5t99 -0.5q21 3 54 15.5t57.5 21.5t56.5 8.5t59 -18.5z" />
    <glyph glyph-name="l_l" unicode="ll" horiz-adv-x="1359" 
d="M592 1526q-26 4 -46.5 -10t-31.5 -33t-26 -50.5t-25 -46.5q-18 -29 -50.5 -46.5t-65.5 -32t-50 -35.5q-37 -44 -19 -91t72 -40q21 3 44.5 16t38.5 25t32.5 18.5t26.5 -4.5q14 -9 9 -33t-16 -45.5t-23 -51.5t-13 -50t8.5 -73.5t3.5 -88.5q-5 -29 -22 -63.5t-35 -62
t-34.5 -72.5t-19.5 -93q-3 -42 6.5 -105.5t20 -114t9.5 -107t-21 -93.5q-16 -30 -50 -39t-81.5 -8t-69.5 -4q-39 -9 -63.5 -33.5t-29 -53t2.5 -55.5t31.5 -45t58.5 -18q29 0 60.5 19.5t49.5 21.5q21 2 66.5 -10t79.5 -8q36 5 76 30.5t90.5 53.5t109.5 39q66 12 156 -1.5
t152 -27t151 1.5q120 26 151 110q22 60 -10 111q-26 39 -67 39q-23 0 -50.5 -14.5t-46 -28t-41 -11.5t-42.5 30q-21 30 -21 85t12 104.5t28 109.5t19 84q6 50 3.5 141t3.5 152q5 49 54 193t56 239q7 90 -10.5 143t-50.5 55q-24 1 -40 -17.5t-34.5 -50t-38.5 -48.5
q-18 -16 -63 -37.5t-71 -42.5t-22 -47q3 -25 26 -36.5t49.5 -13t51 -11t29.5 -30.5q6 -24 -23 -64.5t-66.5 -96t-47.5 -105.5q-11 -72 -1 -117t22.5 -103.5t7.5 -96.5q-5 -44 -33 -96t-33 -78q-5 -24 4 -104t-8 -109q-23 -57 -88 -78.5t-128 -2t-85 67.5q-13 22 -11.5 57
t7.5 60.5t14.5 60.5t9.5 58q2 36 -9 110.5t-3 118.5q7 39 58.5 152t58.5 188q7 79 -9.5 173t-17.5 110q-1 22 0.5 55.5t2.5 55t-2.5 44t-17.5 35.5t-40 17z" />
    <glyph glyph-name="l_l_e" unicode="l&#xb7;le" horiz-adv-x="2246" 
d="M856 377q30 -7 58.5 0t56.5 21.5t41 17.5q18 6 67 1.5t70 -1.5t61.5 27.5t71.5 29.5q27 5 83.5 -8.5t88.5 -7.5q13 2 32 11t32.5 15.5t31 6t31.5 -12.5q21 -14 14.5 -42.5t-22 -53t-32 -56t-17.5 -51.5q-2 -71 31.5 -113.5t127.5 -45.5q41 -1 74 17t56 44.5t44 53.5
t47.5 46t57.5 19q25 0 52 -27.5t54 -27.5q41 0 71.5 28.5t33.5 85.5q3 58 -37 94t-94 39q-33 2 -70.5 -13.5t-69 -38.5t-64 -46t-58.5 -39t-50.5 -15t-41.5 25q-21 26 -9 62.5t42 69t72.5 75.5t81.5 83t69.5 91t35.5 99q8 77 -39 129.5t-129 38.5q-43 -8 -73.5 -40t-47 -75
t-29.5 -87t-30 -84t-39 -58q-24 -19 -48.5 -22.5t-42 3t-42 13t-45.5 4.5q-15 -2 -33.5 -10t-33.5 -16.5t-30 -14.5t-28.5 -3.5t-23.5 15.5q-14 12 -11 36t11 42t18 45t12 45q2 19 -9.5 68.5t-4.5 80.5q8 38 28.5 70t40 51.5t40 45t28.5 50.5q10 32 13 63t12 54
q13 34 64.5 91.5t54.5 101.5q2 24 -4.5 44.5t-17.5 41.5t-15 34q-1 13 -2 32.5t-2 38t-16 34.5t-44 22q-39 7 -73 -20t-72 -71.5t-68 -61.5q-31 -19 -100 -39.5t-107 -40.5q-68 -37 -80.5 -100t44.5 -88q27 -9 49.5 -10t47 9.5t43.5 24t40.5 33t37 36t33 34t29.5 26.5
q47 36 73 3.5t-5 -85.5q-15 -27 -62.5 -81t-91.5 -114t-63 -114q-21 -60 -17.5 -222.5t-23.5 -187.5q-26 -40 -67.5 -55t-90 -19.5t-70.5 -15.5q-36 -17 -55 -58.5t-8.5 -81t51.5 -48.5zM723 1309q-32 2 -62.5 -16.5t-52 -43t-51.5 -56.5t-55 -48q-28 -18 -90.5 -36.5
t-106.5 -45.5q-47 -28 -65.5 -74t-9.5 -82t34 -45q13 -4 25 0.5t27.5 15.5t27.5 15q14 5 37 -2.5t49 0.5q20 7 35.5 25t38.5 54.5t41 59.5q30 39 55 15q25 -22 17 -70q-4 -22 -15 -41q-2 -3 -60 -96t-92.5 -159.5t-41.5 -107.5q-7 -42 -2 -135t-9 -135q-7 -25 -36.5 -57
t-34.5 -60q-4 -21 6.5 -62t16 -67t-10.5 -57q-18 -24 -56 -32.5t-84.5 -12.5t-70.5 -16q-37 -18 -55.5 -62t-6 -84.5t55.5 -48.5q41 -7 94.5 19.5t63.5 27.5q20 3 57.5 -0.5t60.5 0.5q24 4 65 24t70 27t82.5 1.5t85.5 2.5q37 10 57 38t19.5 58.5t-21 57.5t-57.5 33
q-23 4 -50.5 -2t-44.5 -13.5t-37.5 -8.5t-28.5 13q-16 31 -11.5 56t14.5 69t7 68q-2 16 -10.5 50t-11 53t0.5 57q9 49 44.5 115t71.5 126t44 91q8 32 10.5 80t10.5 73q13 37 65 97t55 104q2 33 -19.5 73.5t-23.5 49.5q-1 14 -1.5 35t-0.5 40.5t-14.5 34.5t-44.5 17z" />
    <glyph glyph-name="M_P" unicode="M&#xb7;P" horiz-adv-x="1689" 
d="M1729 743q4 23 26.5 53t38 64t8.5 78q-6 38 -29.5 60t-60.5 40.5t-55 36.5q-15 14 -28.5 49t-32.5 69t-50 52q-22 15 -55 10.5t-58 -16.5t-63 -24.5t-70 -12.5t-80.5 37.5t-78.5 42.5q-53 9 -83 -33t-9 -86q11 -23 34.5 -42.5t44 -31t37 -32.5t17.5 -49q1 -53 -38 -88
t-94.5 -39t-115.5 16q-49 20 -76 74t-22 116t41 103q22 25 53 50.5t50 40.5t34.5 35.5t17.5 43.5q4 41 -26 66.5t-74 25.5q-27 0 -51 -13t-40 -29.5t-40.5 -35t-50.5 -26.5q-30 -9 -66 -9.5t-62.5 4.5t-58.5 10.5t-49 6.5q-50 1 -79 -26.5t-27 -69.5q1 -26 22 -43.5
t45.5 -24.5t44.5 -21.5t21 -35.5q1 -23 -26.5 -66.5t-56 -97.5t-30.5 -101q-2 -36 8.5 -108.5t3.5 -116.5q-3 -30 -19 -54.5t-34.5 -39t-42.5 -36t-37 -42.5q-17 -29 -17.5 -99.5t-6 -132t-35.5 -81.5q-20 -13 -61.5 -8t-74.5 9.5t-71 -22.5q-33 -28 -38.5 -63t11.5 -64.5
t53.5 -51t82.5 -25.5q28 -2 92.5 15t95.5 17q27 0 108 -22t127 -15q48 7 71 44.5t17 74.5t-32 47q-34 13 -71.5 8.5t-75.5 -2t-50 22.5q-9 17 1 35.5t28.5 34t37 40.5t23.5 50q6 33 -7.5 80.5t-8.5 72.5q7 34 33 75.5t54 87.5t38 89q7 42 3 87t-12 79.5t-7 77t18 80.5
q24 41 57 32.5t41 -46.5q3 -17 -2.5 -70t2.5 -74q4 -14 16.5 -26t25 -19.5t23 -22.5t11.5 -34q1 -30 -27.5 -70t-27.5 -78q2 -47 31.5 -72t69.5 -22.5t73 27.5q30 23 52.5 104t39.5 96q38 35 70.5 -2t27.5 -104q-3 -41 -24 -70.5t-50 -66t-45 -84.5q-20 -62 -10.5 -186.5
t-15.5 -149.5q-17 -26 -50.5 -31.5t-74.5 -8t-66 -20.5q-28 -20 -33.5 -52.5t7 -62.5t39.5 -53t59 -24q40 -2 110.5 33t106.5 39q20 2 76 -5t100.5 -8t112.5 17q32 11 48.5 39.5t15 59t-21 57.5t-52.5 36q-36 10 -94 -9.5t-85 -14.5q-34 6 -48.5 36t-6.5 64q5 22 40 81.5
t42 90.5q6 27 7 81t9.5 88t36.5 48q27 10 52 10t58.5 -10.5t59.5 -22t56 -23t47 -15.5q69 -15 124 8t68 76q6 25 7.5 78.5t7.5 80.5zM1386 1104q57 8 118 -51t91.5 -142t8.5 -141q-10 -26 -26 -39.5t-36 -16.5t-38 -1.5t-41.5 3.5t-37.5 1q-17 -2 -46.5 -12.5t-51 -18.5
t-42.5 -4.5t-30 23.5q-11 25 1.5 53t37 61.5t31.5 54.5q12 34 15 94t11 96t35 40z" />
    <glyph glyph-name="m_p" unicode="m&#xb7;p" horiz-adv-x="1624" 
d="M791 1065q26 0 45.5 -14t30 -31.5t31.5 -33t50 -17.5q23 -2 44.5 12t40.5 34.5t38.5 41.5t44.5 36t53 15q43 0 64 -22t35 -57.5t30 -49.5q14 -13 49 -26t58 -35t29 -66q8 -56 -14 -129t-19 -92q4 -23 20 -29t47 -7t50 -7q37 -13 50 -51.5t-5.5 -74.5t-59.5 -42
q-42 -6 -95.5 20.5t-68.5 28.5q-30 5 -77.5 -6.5t-63.5 -11.5q-34 0 -55.5 25t-19 57.5t29.5 52.5q15 11 40 13.5t46 16.5q31 21 35 69t-14.5 96t-59 85t-88.5 37q-56 0 -94.5 -45.5t-38.5 -112.5q0 -23 22 -79t21 -91q-1 -39 -34.5 -97t-31.5 -75q4 -32 26.5 -44
t62.5 -16.5t59 -12.5q42 -19 52 -55.5t-12 -67.5t-63 -37q-35 -3 -76 15t-57 18q-20 0 -84 -26.5t-106 -26.5q-32 0 -51 23t-17.5 53t23.5 50q12 11 44 28t49.5 37t20.5 54q3 38 -21.5 78t-25.5 72q-1 24 20 72t21 92q0 85 -51.5 115t-109.5 -7t-74 -119q-7 -36 5 -99.5
t5 -109.5q-5 -31 -34 -64.5t-55 -69t-26 -74.5t15.5 -103t11.5 -102q-4 -33 -22 -67.5t-38 -57.5t-38.5 -50t-23.5 -47t7 -47q17 -27 41 -29.5t57.5 8t51.5 9.5q35 0 56.5 -24.5t21.5 -65.5q-1 -19 -14.5 -41t-37 -41.5t-63.5 -28.5t-86 -2q-54 11 -99.5 2t-69.5 -23
t-60 -30t-72 -20q-48 -6 -78 21.5t-16 74.5q10 29 35 48t51 28.5t55.5 30t46.5 51.5q16 28 23.5 91t15.5 89q8 30 42.5 97.5t39.5 131.5q3 44 -16 112t-19 107t16 71t39 54.5l46 45t39 54.5t16 72q0 52 -19 71.5t-53 14.5q-27 -4 -60.5 -31.5t-61 -59t-62 -60.5t-62.5 -35
q-58 -12 -89.5 22.5t-12.5 86.5q12 33 44 58t69.5 43.5t75 39t65.5 56t35 83.5q14 103 46.5 145t84.5 42q37 0 53.5 -27.5t17 -61.5t10 -65.5t35.5 -38.5q31 -8 73 12.5t83 45t64 24.5z" />
    <glyph glyph-name="N_E" unicode="N&#xb7;E" horiz-adv-x="1923" 
d="M109 90q-24 -54 15.5 -108t98.5 -41q47 10 74.5 38.5t50.5 38.5q20 8 60 4.5t63 4.5q28 10 62.5 52t48.5 52q19 13 52 23t55.5 25t33.5 48q15 45 -22.5 91t-86.5 40q-20 -2 -44 -14.5t-42.5 -26t-40.5 -25t-37.5 -11.5t-33.5 14q-21 17 -18.5 46.5t16.5 58t38 64t47 65
t42.5 61t25.5 51.5q7 26 5.5 55.5t-4 60t-3.5 55t7 40t28 16.5q38 1 73.5 -59t59 -139t58 -181.5t65.5 -158.5q101 -182 199 -228q59 -28 96 9t20 110q-4 17 -35 91t-28 118q3 39 28.5 100.5t28.5 104.5q2 28 -10 86.5t-12 87.5q0 45 24.5 90t57.5 45q26 0 38 -27t13.5 -61
t11 -70t29.5 -49q18 -12 38.5 -12.5t37.5 5.5t43 13t49 7q27 0 77 -28.5t89 -19.5q32 7 50.5 31t33.5 55.5t30 45.5q9 8 37 29.5t41.5 38t20.5 40.5q17 52 -23 94.5t-94 30.5q-40 -9 -66.5 -37.5t-50.5 -67.5t-45 -57q-37 -30 -80.5 -24.5t-64.5 39.5q-8 14 -18.5 56.5
t-26.5 61.5q-14 17 -50 27.5t-53 30.5q-46 58 -14.5 103.5t98.5 39.5q31 -3 55 -20.5t37 -38t31.5 -43.5t36.5 -33q34 -16 66 -15t54.5 20t35.5 44t9 56.5t-26 58.5q-21 25 -65 32.5t-56 16.5q-14 11 -18.5 27t1.5 32t19 30t35 22.5t47 7.5q34 -1 66.5 -19.5t53.5 -39.5
t50.5 -40t57.5 -22q56 -5 95.5 25.5t33.5 82.5q-4 29 -49 64.5t-50 42.5q-11 13 -20.5 40t-23.5 44t-42 22q-29 5 -61 -6.5t-55 -29t-51.5 -35t-49.5 -21.5q-37 -7 -54 19.5t-1 54.5q10 17 56.5 52.5t54.5 58.5q15 47 -23 77t-94 19q-67 -13 -116 -71.5t-46 -119.5
q2 -26 24.5 -85.5t12.5 -94.5q-15 -53 -82.5 -91t-153.5 -46q-41 -3 -147 3t-141 -3q-45 -9 -63.5 -45t-4.5 -74.5t51 -54.5q28 -12 77.5 -15.5t86 -3.5t65 -16.5t29.5 -54.5q1 -22 -20.5 -50t-47.5 -51t-48 -54t-23 -58q-1 -24 16 -101t13 -108q-7 -57 -42.5 -59.5
t-60.5 44.5q-17 30 -28 127t-31 123q-15 19 -61.5 51.5t-63.5 65.5q-8 16 -20.5 51.5t-24.5 66t-28.5 62t-40 51t-52.5 21.5q-60 4 -95 -66.5t-32 -169.5q2 -68 -12.5 -125.5t-37.5 -97.5t-47.5 -74t-45 -71.5t-25.5 -73.5q-5 -39 -2 -92t8.5 -100t5 -91t-11.5 -65
q-15 -29 -38 -42.5t-43 -16t-41.5 -17t-34.5 -43.5z" />
    <glyph glyph-name="N_N_E" unicode="N&#xb7;NE" horiz-adv-x="3026" 
d="M1266 516q-32 -51 -2.5 -111.5t90.5 -54.5q45 5 74.5 28t50.5 30q20 6 55.5 -2.5t56.5 -4.5q28 6 64.5 41.5t50.5 42.5q19 10 51 16t54 17.5t36 40.5q25 53 -1.5 101t-84.5 45q-18 -1 -40.5 -9.5t-42 -18t-39 -16.5t-37 -5.5t-31.5 14.5q-20 25 -15 48.5t29.5 56.5
t52 60.5t53 60t31.5 54.5q6 24 4.5 51.5t-4 56t-3.5 51t7 37t27 15.5q35 1 66 -54t51 -127.5t50.5 -166.5t59.5 -147q90 -164 185 -211q56 -27 102 8.5t29 101.5q-3 14 -33.5 84t-26.5 111q3 36 27 93t27 97q2 26 -8.5 80.5t-10.5 81.5q0 43 18 79t48 36q26 0 37 -29.5
t11 -66.5t8 -75.5t28 -51.5q18 -12 38.5 -12.5t37.5 5.5t43 12.5t49 6.5q27 0 77 -28t89 -19q32 7 50.5 31t33.5 55t30 45q9 8 37 29.5t41.5 38t20.5 40.5q17 52 -23 94.5t-94 30.5q-40 -9 -66.5 -37.5t-50.5 -67.5t-45 -57q-37 -30 -80.5 -24.5t-64.5 39.5q-8 14 -18.5 57
t-26.5 62q-14 17 -50.5 26.5t-52.5 30.5q-45 66 -14.5 107.5t98.5 35.5q31 -3 55 -20.5t37 -38t31.5 -43.5t36.5 -33q34 -16 66 -15t54.5 20t35.5 44t9 56.5t-26 58.5q-21 25 -65 32.5t-56 16.5q-14 11 -18.5 27t1.5 32t19 30t35 22.5t47 7.5q34 -1 66.5 -19.5t53.5 -39.5
t50.5 -40t57.5 -22q56 -5 95.5 26t33.5 83q-4 29 -49 64t-50 42q-11 13 -20.5 40.5t-23.5 44.5t-42 22q-29 5 -61 -6.5t-55 -29.5t-51.5 -35.5t-49.5 -21.5q-37 -7 -54 19.5t-1 54.5q10 17 56.5 52.5t54.5 58.5q15 47 -23 77t-94 19q-67 -13 -116 -71.5t-46 -118.5
q2 -26 24.5 -86t12.5 -95q-15 -53 -80.5 -91t-151.5 -46q-41 -4 -133.5 6.5t-134.5 3.5q-43 -8 -59.5 -44t-3.5 -74.5t47 -53.5q23 -10 57 -13t63 -3.5t56.5 -4.5t44 -19t18.5 -44q1 -20 -17.5 -45t-42.5 -46t-45 -48t-24 -49q-4 -30 13.5 -103.5t13.5 -99.5
q-5 -34 -19.5 -45t-32.5 0.5t-34 40.5q-16 28 -26 118.5t-29 113.5q-14 17 -57.5 47t-59.5 61q-7 14 -19.5 46t-24.5 59t-28.5 55t-39.5 45.5t-50 19.5q-57 4 -95.5 -62.5t-35.5 -156.5q2 -63 -11.5 -116t-35.5 -90t-45 -68.5t-42 -66.5t-24 -68q-4 -36 -0.5 -78t9.5 -76.5
t5 -67t-14 -51.5q-20 -31 -50 -37.5t-59 -13.5t-48 -39zM1022 225q3 39 28.5 100.5t28.5 104.5q3 45 -9 90.5t-9 83.5q2 30 40 86.5t78 122t48 115.5q5 33 25 56.5t45.5 38t50 29.5t41 38.5t16.5 56.5q0 56 -33 88t-96 12q-21 -7 -50 -29.5t-55.5 -46t-68 -46.5t-88.5 -30
t-117 1q-42 7 -73 8t-50 -3.5t-31 -11.5t-17.5 -19t-7 -21t-1.5 -23q0 -20 11.5 -41.5t35 -43t68 -33t102.5 -5.5q106 10 106 -67q0 -17 -22 -42.5t-48 -48t-48 -53t-23 -57.5q-1 -24 16 -101t13 -108q-5 -37 -23.5 -51.5t-41 -3.5t-38.5 41q-17 30 -28 127t-31 123
q-15 19 -61.5 51t-63.5 65q-8 16 -20.5 51.5t-24.5 66t-28.5 62t-40 51t-52.5 21.5q-60 4 -95 -66t-32 -169q2 -68 -12.5 -125.5t-37.5 -98t-47.5 -74.5t-45 -71.5t-25.5 -73.5q-5 -39 -2 -92t8.5 -100t5 -91t-11.5 -65q-15 -29 -38 -42.5t-43 -16t-41.5 -17t-34.5 -43.5
q-24 -54 15.5 -108t98.5 -41q29 6 47 16.5t25 20t20.5 21.5t32.5 20q20 8 60 4t63 4q28 10 62.5 52t48.5 52q18 13 51.5 23.5t56 25.5t33.5 48q15 45 -22.5 91t-86.5 40q-20 -2 -44 -14.5t-42.5 -26t-40.5 -25t-37.5 -12t-33.5 13.5q-21 17 -18.5 46.5t16.5 58t38 64t47 65
t42.5 61t25.5 51.5q7 26 5.5 56t-4 60t-3.5 55t7 40.5t28 16.5q31 1 59 -36t51 -101t44 -132.5t48.5 -145t53.5 -124.5q101 -181 199 -227q59 -28 97 8.5t19 109.5q-4 17 -35 91t-28 118z" />
    <glyph glyph-name="n_e" unicode="n&#xb7;e" horiz-adv-x="1740" 
d="M115 768q-26 -23 -27 -55.5t22 -57t60 -24.5q17 0 32.5 7.5t32.5 21t27 18.5q34 21 56 4t8 -66q-11 -36 -52 -110t-47 -92q-12 -49 -11 -78t6.5 -68.5t4.5 -58.5q-5 -66 -94 -125q-35 -23 -54 -63t-6.5 -72.5t60.5 -32.5q29 0 56 15t56.5 38.5t47.5 32.5q24 12 73.5 22.5
t73.5 26.5q29 20 32 55t-23 64q-7 8 -30 26.5t-35 38t-15 50.5q-3 33 7.5 64t38.5 82t42 83q11 26 23.5 95.5t41.5 111.5q27 38 60 59.5t61 24t50.5 -12.5t29.5 -44q9 -35 -5 -75t-33 -82t-21 -71q-2 -31 14 -106.5t8 -120.5q-6 -36 -22 -52.5t-51.5 -36.5t-65.5 -50
q-47 -47 -38.5 -101t62.5 -57q53 -3 128 19t131 45.5t120 35.5t94 -10q37 -21 42 -56.5t-9.5 -96.5t-15.5 -89q-3 -64 48 -105t136 -34q39 3 71 23.5t52.5 47t39.5 52t44 43.5t55 18q27 0 57.5 -26.5t55.5 -26.5q38 0 69 31.5t31 87.5q0 65 -41.5 99.5t-101.5 29.5
q-31 -2 -66 -20t-64 -41.5t-59.5 -46.5t-55 -38.5t-49 -14.5t-42.5 24q-22 24 -9.5 60t44 69.5t74 78.5t80.5 87.5t64 96.5t24 105q-3 64 -40 108t-96 44q-56 0 -92.5 -21.5t-55 -58t-29.5 -74.5t-27.5 -81t-38.5 -68q-33 -37 -98 -51t-122.5 -2t-72.5 43q-7 21 -6 33
t5 37.5t3 43.5q-1 21 -12 62.5t-11 70.5q0 23 21 59.5t47.5 70t49 74t25.5 71.5t-22 63q-21 22 -68.5 27.5t-66.5 19.5q-15 11 -31 31t-26 34t-29 25t-43 11q-29 0 -58 -20t-50.5 -47t-41 -53t-37 -40t-30.5 -6t-13.5 21.5t7 27t14 35.5t4.5 41q-3 27 -25.5 42.5t-55 10.5
t-60.5 -33q-23 -23 -42 -77t-42 -74q-24 -21 -73 -42t-64 -34z" />
    <glyph glyph-name="n_n" unicode="nn" horiz-adv-x="2017" 
d="M72 631q4 -40 48 -55t79 8q37 23 69 31.5t43 -3.5q15 -22 0 -58.5t-44 -82t-36 -65.5q-10 -29 -12.5 -57t-0.5 -45.5t7 -44t6 -38.5q3 -27 -26 -63t-68 -62q-35 -23 -54 -63t-6.5 -72.5t60.5 -32.5q29 0 56 13t57 35.5t47 31.5q22 11 73.5 23.5t69.5 27.5q36 28 35 83.5
t-39 74.5q-60 28 -63 80q-2 33 9 60t37 69t42 80q5 12 14.5 65.5t32.5 85.5q27 38 60 59.5t61 24t50.5 -12.5t29.5 -44q11 -44 -24.5 -120t-35.5 -107q0 -20 12 -87t3 -120q-5 -29 -18 -51t-25.5 -33.5t-36.5 -29.5t-37 -30q-32 -29 -37.5 -66t14 -62t54.5 -25q28 0 50.5 9
t52 25t56.5 25q17 6 58 12.5t69 13t51.5 27.5t22.5 56q-1 25 -13 42t-29 26t-33 18t-25.5 24t-6.5 37q7 46 -6.5 102.5t-13.5 86.5q0 139 94 213q40 32 115 34.5t106 14.5q25 9 64.5 39t68.5 45t48 0q13 -10 13.5 -30.5t-8 -44t-22.5 -52.5t-28.5 -54t-27.5 -49.5t-17 -37.5
q-10 -29 -12.5 -60.5t-0.5 -51.5t7 -51.5t6 -41.5q3 -27 -26.5 -63t-68.5 -62q-35 -23 -54 -63t-6.5 -72.5t60.5 -32.5q18 0 58.5 28.5t62.5 36.5q25 9 69 15.5t60 13.5q13 6 29.5 23t35 30t40.5 15q28 2 72.5 -21t80.5 -18q24 4 64 35.5t73 37.5q27 5 80 4t68 9
q28 12 37 39t-4.5 50.5t-42.5 26.5q-36 3 -56 28t-14 63q7 46 -6.5 102t-13.5 86q0 42 38.5 133.5t34.5 136.5q-3 30 -15.5 46.5t-38 31.5t-34.5 23q-14 13 -35 43t-42 45.5t-52 15.5q-29 0 -58 -24.5t-47.5 -53t-42 -49t-44.5 -14.5q-19 5 -22.5 30t1.5 52t-5 51t-42 27
q-34 3 -57.5 -18t-34 -50t-25.5 -63t-30 -48q-26 -24 -101 -39t-96 -22q-31 -10 -76.5 -35t-80 -37.5t-64.5 -5.5q-23 5 -43.5 27.5t-35 46t-40.5 42.5t-59 19q-29 0 -59 -18t-53 -43t-44 -49t-39 -38.5t-31 -10.5q-13 5 -2.5 35.5t19 61.5t-24.5 56q-29 19 -68.5 -2.5
t-66.5 -64.5q-4 -6 -18.5 -32t-25 -41.5t-22.5 -25.5q-21 -18 -55.5 -33.5t-57 -25t-37.5 -32t-11 -58.5zM1358 406q-3 33 7.5 63t29.5 67.5t28 65.5q7 23 13.5 62t12.5 71.5t17.5 67t35.5 63t59 45.5q50 24 101.5 -7.5t49.5 -78.5q-1 -43 -27 -95.5t-26 -88.5
q0 -27 17.5 -92.5t11.5 -114.5q-7 -61 -65.5 -107t-123.5 -46q-60 0 -98 37t-43 88z" />
    <glyph glyph-name="R_E" unicode="R&#xb7;E" horiz-adv-x="1871" 
d="M86 133q-31 -13 -41.5 -45t-1 -63.5t40 -54.5t72.5 -19q38 3 68.5 19t55 32.5t46.5 20.5q34 6 92.5 -15t85.5 -16q53 9 75 46.5t12 76.5t-42 59q-21 11 -49 11t-54 -5.5t-48 0.5t-31 29q-8 21 1 40t25 32t32.5 32.5t20.5 38.5q6 31 -1 97.5t6 97.5q23 68 74 102.5
t83 -8.5q14 -21 16 -53.5t-0.5 -57t7.5 -53.5q12 -28 69.5 -78t67.5 -82q6 -21 0 -84t2 -112q10 -56 52 -98.5t98 -42.5q27 0 82 18.5t81 3.5q21 -12 33 -55t16 -88t18 -87.5t38 -54.5q23 -11 45.5 -12t39 5t41.5 12t48 6q27 0 77 -28t89 -19q32 7 50.5 31t33.5 55t30 45
q9 8 37 29.5t41.5 38t20.5 40.5q17 52 -23 94.5t-94 30.5q-40 -9 -66.5 -37.5t-50.5 -67.5t-45 -57q-37 -30 -80.5 -24.5t-64.5 39.5q-8 14 -18.5 56.5t-26.5 61.5q-14 17 -50 27.5t-53 30.5q-46 58 -14.5 103.5t98.5 39.5q31 -3 55 -20.5t37 -38t31.5 -43.5t36.5 -33
q34 -16 66 -15t54.5 20t35.5 44t9 56.5t-26 58.5q-21 25 -64.5 32.5t-55.5 16.5q-14 11 -18.5 27t1.5 32t19 30t35 22.5t47 7.5q34 -1 66.5 -19.5t53.5 -39.5t50 -40t57 -22q56 -5 95.5 25.5t33.5 82.5q-4 29 -48.5 64.5t-49.5 42.5q-11 13 -20.5 40t-23.5 44t-42 22
q-29 5 -61 -6.5t-55.5 -29t-52 -35t-49.5 -21.5q-37 -7 -54 19.5t-1 54.5q10 17 56.5 52.5t54.5 58.5q15 47 -23 77t-94 19q-65 -13 -112 -71t-50 -120q-1 -26 6 -61.5t13.5 -61t4.5 -53t-18 -45.5q-18 -21 -77 -42t-80 -34q-14 -8 -61 -46.5t-77 -45.5q-38 -9 -62.5 6.5
t-27.5 44.5q-2 16 7 37.5t19.5 41t16 50t-3.5 64.5q-10 37 -38.5 67.5t-58 48.5t-58.5 45.5t-41 59.5q-12 40 7 61t54 13q19 -4 79 -41t95 -37q55 0 88 39t25 96q-5 33 -25 61.5t-40 54.5t-25 52q-4 25 16.5 75t15.5 87q-9 56 -52 95.5t-99 39.5q-33 0 -105.5 -17.5
t-105.5 -17.5q-29 0 -72 19.5t-89.5 35t-90.5 7.5q-64 -12 -86 -61.5t-0.5 -94.5t64.5 -45q23 0 55 15t53 18q29 4 42.5 -20.5t2.5 -61.5q-6 -22 -42 -49t-76 -60.5t-54 -68.5q-12 -30 -12 -78.5t3.5 -90t-7.5 -98.5q-13 -57 -59.5 -108.5t-57.5 -79.5q-9 -28 -8.5 -63
t6 -65.5t1.5 -63.5t-22 -56q-14 -17 -29 -24t-37.5 -12t-37.5 -11zM625 967q5 14 5.5 52.5t10.5 55.5q11 22 39.5 30.5t54.5 -1.5q22 -9 27 -44t8 -40q8 -13 30.5 -21t28.5 -12q24 -17 18.5 -62.5t-32.5 -54.5q-22 -7 -64.5 7.5t-62.5 11.5q-22 -4 -41.5 -14t-38 -23
t-24.5 -16q-22 -11 -33 2t2 39q5 9 35 41t37 49z" />
    <glyph glyph-name="r_e" unicode="r&#xb7;e" horiz-adv-x="1536" 
d="M61 61q-32 -48 9.5 -89.5t126.5 -32.5q53 6 149.5 26.5t184.5 40t176 34.5t149.5 11.5t79.5 -31.5q13 -16 6.5 -41t-19 -44t-25.5 -47.5t-13 -51.5q0 -147 164 -147q40 0 71.5 19t52 46t39.5 54t43.5 46t53.5 19q25 0 54 -24.5t56 -24.5q38 0 67.5 28.5t29.5 84.5
q0 58 -41 92t-95 34q-32 0 -68 -16.5t-65 -39.5t-59.5 -46.5t-54.5 -39.5t-48 -15.5t-41 22.5q-18 20 -5 54.5t44.5 67.5t72 78.5t77 88.5t60.5 97.5t22 105.5q-3 65 -38 107t-93 42q-68 0 -111.5 -28.5t-62 -73t-29.5 -90.5t-26 -90t-40 -62q-44 -33 -124.5 -44t-154.5 4.5
t-99 52.5q-15 22 -15.5 52.5t7 56.5t18 60t12.5 54q3 25 -2.5 79t-1.5 93q5 58 42 99t91 24q28 -9 40.5 -25t10 -37t-8.5 -38t-17.5 -40.5t-14.5 -31.5q-22 -57 -4.5 -99t70.5 -39q40 2 64.5 36t31 74.5t15 91.5t18.5 73q13 28 34.5 52t34 44t13.5 51q1 59 -33 87.5
t-88 25.5q-27 -1 -62.5 -22t-64 -44t-64 -37.5t-65.5 -5.5q-18 5 -23.5 29.5t-4 54.5t0 59.5t-17.5 49.5t-51 20t-64 -19.5t-45.5 -43.5t-37 -53.5t-36.5 -42.5q-18 -15 -69 -32.5t-85 -40.5t-34 -62q0 -50 30.5 -76.5t74.5 -26.5q38 0 63 14t59 48q18 18 38.5 23t34.5 -7
t13 -39q0 -13 -15.5 -53t-20.5 -72q-4 -24 -12 -102t-15.5 -132t-29 -114t-52.5 -84q-35 -27 -86 -39.5t-91 -25.5t-61 -44z" />
    <glyph glyph-name="S_E" unicode="S&#xb7;E" horiz-adv-x="1654" 
d="M84 88q20 -30 53.5 -40.5t67 -7.5t73 2.5t72.5 -9.5q37 -12 94 -63.5t103 -57.5q42 -6 113 23t138 53.5t107 9.5q30 -11 44 -49.5t25 -76t34 -46.5q30 -13 75 3.5t74 16.5q26 0 75 -26.5t87 -18.5q31 6 49.5 29.5t33 54t28.5 43.5q10 9 29 24.5t29 24.5t21 24.5t17 33.5
q17 51 -21.5 91.5t-91.5 29.5q-39 -8 -65.5 -35.5t-51 -66.5t-43.5 -56q-36 -30 -78 -24.5t-63 38.5q-8 14 -17.5 56.5t-25.5 60.5q-14 16 -48.5 25.5t-51.5 29.5q-44 57 -13.5 101.5t95.5 38.5q30 -3 53.5 -20t36 -37.5t30.5 -42.5t35 -31q34 -16 64.5 -15t53 19.5
t34.5 42.5t8 55t-25 57q-20 24 -62.5 31.5t-53.5 15.5q-14 11 -18.5 27t1.5 31.5t18.5 29.5t34 22t46.5 7q34 -1 65 -19t51.5 -39t48.5 -39.5t56 -21.5q55 -5 94 25.5t33 81.5q-3 22 -21 40.5t-42.5 35.5t-32.5 28q-10 13 -20 40.5t-23.5 44t-40.5 20.5q-37 6 -75 -13
t-75.5 -45.5t-62.5 -31.5q-35 -7 -47.5 11.5t4.5 43.5q9 14 50.5 45.5t49.5 52.5q17 43 -19 71t-88 17q-59 -12 -100.5 -63t-44.5 -107q-1 -25 7 -77t5 -83t-28 -40q-7 -2 -21 -11q-5 46 -31 85t-67 61q-36 19 -82.5 18t-87.5 4.5t-76 40.5q-25 25 -31.5 76.5t-23.5 73.5
q-11 15 -32.5 27.5t-38 20.5t-29.5 29t-13 54q0 77 67 121.5t140 11.5q32 -15 63 -51.5t52 -70.5t56.5 -64t78.5 -35q41 -5 71.5 14t43 49t10.5 64t-21 57q-23 29 -53.5 40t-67 20t-63.5 30q-18 15 -38.5 55.5t-37 77.5t-47.5 67t-70 30q-36 0 -60 -23.5t-34.5 -54
t-28.5 -65t-42 -50.5q-17 -12 -49 -23.5t-61 -23t-58.5 -31t-51.5 -56t-30 -89.5q-9 -53 7 -91t40.5 -55t54.5 -38t41 -39q17 -28 23.5 -86t29.5 -84q18 -20 57 -28t76.5 -9t80.5 -19.5t69 -58.5q28 -41 29 -76t-13.5 -69t-15.5 -46q-2 -20 12 -54t10 -58q-6 -31 -45.5 -43
t-83.5 -2q-21 5 -57.5 39.5t-60.5 40.5q-33 7 -69 5t-65.5 -6.5t-55 6.5t-38.5 44q-13 29 -1.5 56.5t30 44t35.5 47.5t16 67q-3 74 -63.5 96.5t-114.5 -27.5q-32 -30 -45 -65t-17.5 -83t-9.5 -67q-5 -20 -18 -46t-25 -48t-21.5 -45t-8.5 -46t14 -42z" />
    <glyph glyph-name="s_e" unicode="s&#xb7;e" horiz-adv-x="1638" 
d="M131 133q24 -21 61 -24t66 1t61 -12q20 -10 34.5 -37.5t24.5 -52t39 -44t77 -19.5q43 0 77 20t50.5 43.5t34 52t26.5 37.5q20 21 59.5 23t55.5 8q75 29 75 166q0 100 -69 186t-191 123q-101 32 -147 116q-36 66 -15 112q16 37 62 32q25 -3 37 -19.5t14 -36t7.5 -41.5
t17.5 -32q17 -15 39.5 -16.5t52 4.5t43.5 6q21 0 61 -21.5t68 -21.5q25 0 64 12t69 23t58 10.5t40 -20.5q12 -17 5 -44t-20.5 -49t-26.5 -55t-13 -61q0 -148 162 -148q40 0 71.5 18.5t52.5 45t40 53t43.5 46t54.5 20.5q26 1 55.5 -23.5t55.5 -24.5q38 0 67 28.5t29 84.5
q0 58 -41 93.5t-94 35.5q-32 0 -67.5 -16.5t-64.5 -40.5t-60 -47.5t-55.5 -39.5t-48.5 -16t-42 23q-22 24 -11.5 59.5t38.5 67.5t68 76t77.5 84.5t67 94t36.5 103.5q10 68 -36.5 117t-122.5 35q-57 -11 -92.5 -53t-47 -87.5t-27 -102.5t-34.5 -85q-53 -76 -137 -61
q-27 5 -70 31t-64 32q-32 10 -96 -2t-96 10q-23 12 -41 39t-29 51t-39 43t-71 19q-32 0 -54 -12t-33 -32.5t-17.5 -40.5t-12 -44.5t-10.5 -36.5q-9 -20 -30.5 -38.5t-39.5 -31t-31 -39.5t-10 -65q3 -50 31 -87t74.5 -59t89 -35.5t98 -26.5t78.5 -21q39 -14 62.5 -46.5
t28.5 -69t0 -71.5t-21 -59.5t-37 -28.5q-41 -9 -79 17t-65 26q-26 0 -48.5 -17.5t-41.5 -29.5t-41 -2t-33.5 34t-14.5 48t-17 49t-39 37q-33 15 -61 8t-51.5 -25t-36.5 -48t-16.5 -61.5t9.5 -65t41 -58.5z" />
    <glyph glyph-name="s_t" unicode="st" horiz-adv-x="1882" 
d="M616 639q15 -49 46 -82t62 -47t65 -36t51 -50q11 -18 11 -40.5t-6 -40t-13 -38t-7 -33.5q0 -15 16 -56t7 -71q-10 -30 -38.5 -48t-64 -32.5t-51.5 -29.5q-12 -11 -29 -48t-41.5 -62t-66.5 -25q-39 0 -75 24t-59 53.5t-52.5 59.5t-55.5 39q-32 10 -78 -7t-75 -8
q-42 13 -68 59.5t-26 96.5t26 86.5t60 38.5q23 1 56 -34t60 -44q17 -5 56.5 15.5t62.5 7.5t42.5 -64t25.5 -59q20 -31 56 -43t79 6q48 23 57.5 77t-16.5 95q-12 24 -52.5 51.5t-48.5 55.5q-5 18 -3 38t7 36t1.5 35t-19.5 36q-12 13 -34.5 20.5t-41.5 10.5t-38 16t-27 37
q-6 28 -5 46t13.5 40t24.5 36t28 34.5t25 35.5q12 22 18.5 59t9.5 65t18.5 52.5t45.5 30.5q37 8 75 -14t74 -50t60 -30q27 -2 74 18t67 23q27 3 83 -4t73 -6q23 1 39 21.5t32.5 47.5t36.5 37q17 9 69.5 12t78.5 27q22 20 40 76.5t29.5 112t37 105t61.5 60.5q55 16 90 -16
t35 -82q0 -32 -38 -99t-38 -91q0 -26 13 -43t38 -17q15 0 66 27t84 27q106 0 106 -103q0 -47 -36 -90.5t-91 -52.5q-39 -6 -82 -2.5t-93 -7t-77 -39.5q-17 -18 -20 -48t3 -60.5t9.5 -66.5t-0.5 -67q-4 -23 -19.5 -58t-34 -68t-37 -70.5t-30.5 -68.5t-11 -58t19 -42
q11 -9 23.5 -10t24.5 5.5t23 14.5t23.5 18.5t20.5 14.5q13 7 38.5 11.5t39.5 15.5q18 14 32.5 51t24 70t35 57t64.5 19q58 -7 77 -71.5t-1 -135.5t-62 -98t-107 -43.5t-94 -30.5q-24 -12 -44 -42t-32.5 -57.5t-37 -49.5t-58.5 -23q-73 -1 -127.5 72.5t-54.5 162.5
q0 33 39.5 99t46.5 110q5 31 -8 85.5t-13 88.5q0 32 14.5 69t32.5 65t33.5 60t18 53t-14.5 44q-17 22 -56.5 12t-82.5 -51q-93 -89 -203 -94q-37 -1 -70 11t-67.5 31.5t-50.5 25.5q-47 18 -90.5 -2.5t-62 -70t0.5 -122.5z" />
    <glyph glyph-name="s_t_e" unicode="ste" horiz-adv-x="2666" 
d="M104 330q23 1 56.5 -34t60.5 -44q17 -5 56.5 15t62.5 7q23 -14 45 -67t23 -55q20 -31 56 -43t79 6q50 24 67.5 77t-6.5 95q-11 21 -38 36.5t-51 31.5t-32 38q-9 30 -1.5 50.5t7.5 47t-20 48.5q-12 13 -34.5 20.5t-41.5 10.5t-38 16t-27 37q-6 28 -5 46t13.5 40t24.5 36
t28 34.5t25 35.5q12 22 18.5 59t9.5 65t18.5 52.5t45.5 30.5q29 6 60 -6.5t53 -32t49 -37t47 -18.5q35 -2 79 23.5t62 29.5q28 6 84.5 -2.5t71.5 -7.5q23 1 39 21.5t32.5 47.5t36.5 37q17 9 69.5 12t78.5 27q22 20 40 76.5t29.5 112t37 105t61.5 60.5q55 16 90 -16t35 -82
q0 -32 -38 -99t-38 -91q0 -26 13 -43t38 -17q16 0 66 27t84 27q106 0 106 -103q0 -47 -36 -90.5t-91 -52.5q-39 -6 -82 -2.5t-93 -7t-77 -39.5q-17 -18 -20 -48t3 -60.5t9.5 -66.5t-0.5 -67q-4 -23 -19.5 -58t-34 -68t-37 -70.5t-30.5 -68.5t-11 -58t19 -42
q12 -13 29.5 -7.5t30 16.5t29 25t26.5 18q14 6 60 10t73 22q30 19 62.5 95.5t74.5 105.5q29 20 81 37t90.5 28.5t72 45.5t39.5 90q35 305 248 305q69 0 110.5 -51t46.5 -129q3 -52 -18.5 -106t-57 -97t-78.5 -88.5t-82.5 -80.5t-69 -73t-37.5 -65.5t12 -57.5
q18 -27 46.5 -25.5t54.5 19.5t60.5 47t65 56.5t68 47t69.5 19.5q74 0 122 -36t48 -111q0 -72 -31 -102.5t-77 -30.5q-31 0 -62 22t-55 19q-20 -2 -44 -23t-49 -49t-54.5 -56t-70.5 -47.5t-87 -19.5q-100 0 -142.5 47.5t-42.5 120.5q0 53 29 107.5t29 78.5q0 42 -22 65
t-56 11q-29 -10 -51.5 -43.5t-35.5 -68.5t-34 -71.5t-47 -51.5q-42 -24 -102.5 -33t-92.5 -25q-24 -12 -47 -43.5t-38.5 -61.5t-42.5 -57t-60 -32q-54 -8 -97.5 21.5t-64 76.5t-20.5 96q0 36 11.5 71.5t26 60t29 57t19.5 61.5q5 31 -8 85.5t-13 88.5q0 50 46.5 132.5
t50.5 103.5q10 50 -29 65.5t-82 -16.5q-7 -5 -51.5 -45t-84 -59t-93.5 -21q-50 -2 -96.5 13t-85 33t-62.5 20q-59 6 -102.5 -50.5t-20.5 -119.5q8 -21 41 -52t41 -45q7 -13 14.5 -51.5t26.5 -54.5q15 -14 58.5 -25.5t74.5 -36.5q47 -39 52 -107.5t-40 -123.5
q-22 -26 -71 -61.5t-72 -59.5q-9 -10 -28.5 -40t-36 -53t-45.5 -44t-62 -23q-39 -3 -75 20.5t-59 54t-52.5 61.5t-55.5 40q-32 10 -78 -6.5t-75 -7.5q-36 11 -59.5 43.5t-29.5 71.5t-1 76.5t27 63t54 26.5zM2193 895q-23 16 -54.5 -28.5t-39.5 -92.5t15 -67q17 -8 37 5
t34.5 38t23.5 53t5.5 54t-21.5 38z" />
    <glyph glyph-name="T_E" unicode="T&#xb7;E" horiz-adv-x="1861" 
d="M96 963q-18 -44 -8 -74t34 -45t58 -11t62 27q32 26 68 92.5t65 94.5q35 36 87.5 46t93 -13.5t40.5 -75.5q0 -43 -21.5 -83t-45 -75.5t-25.5 -65.5q-5 -41 14 -102.5t14 -95.5q-5 -32 -49.5 -102t-50.5 -113q-3 -25 2.5 -57t12.5 -54.5t7.5 -47t-12.5 -40.5
q-16 -20 -42.5 -23.5t-51 3.5t-59.5 15.5t-60 8.5q-56 0 -83.5 -41.5t-14 -88t58.5 -58.5q30 -13 90.5 -1t71.5 11q25 -2 62 -26.5t65 -24.5q32 0 68 32t69 37q28 5 85 -13t94 -13t60.5 30.5t27 55t-14.5 57t-55 35.5q-22 4 -55 -2.5t-58 -13.5t-47.5 -3t-31.5 25
q-10 18 -5 43t14 43t19.5 42.5t12.5 41.5q3 23 -4.5 78.5t-2.5 83.5q5 27 35.5 57.5t36.5 56.5q6 29 -2.5 78.5t-3.5 71.5t34 59.5t31 63.5q3 21 -8 67.5t-4 83.5q6 37 42.5 66.5t79 42t81.5 8t51 -28.5q14 -28 -1 -79t-5 -76q8 -21 26.5 -33t38 -15t42.5 -10.5t36 -19.5
q24 -22 43.5 -98.5t53.5 -91.5q18 -10 40 -9t36 6.5t38 12t47 6.5q27 0 77 -28t89 -19q32 7 51 31t34 55.5t30 44.5q11 10 30 24.5t29.5 24t21.5 25t17 34.5q17 52 -22.5 94.5t-93.5 30.5q-39 -9 -65.5 -38.5t-50 -67.5t-46.5 -55q-37 -27 -80.5 -22t-65.5 36q-12 17 -21 59
t-24 60q-14 17 -49.5 27t-52.5 30q-46 58 -14.5 103.5t98.5 39.5q31 -3 55 -20.5t37 -38t31.5 -43.5t36.5 -33q34 -16 66 -15t54.5 20t35.5 44t9 56.5t-26 58.5q-21 25 -65 32.5t-56 16.5q-14 11 -18.5 27t1.5 32t19 30t35 22.5t47 7.5q34 -1 66.5 -19.5t53.5 -39.5t50 -40
t57 -22q56 -5 95.5 26t33.5 83q-4 29 -48.5 64t-49.5 42q-11 13 -20.5 40.5t-23.5 44.5t-42 22q-29 5 -61 -6.5t-55 -29t-51.5 -35t-49.5 -21.5q-37 -7 -54 19t-1 54q10 17 56 52.5t54 58.5q15 47 -23 77t-94 19q-65 -13 -111.5 -70.5t-49.5 -119.5q-1 -26 6 -63.5t14 -64.5
t5 -54t-19 -40q-30 -19 -45 -15t-40.5 12t-45.5 3q-25 -7 -80.5 -53.5t-97.5 -46.5q-36 0 -91 25.5t-92 25.5q-40 0 -90 -44.5t-84 -45.5q-29 -1 -61 11.5t-58 11.5q-29 -1 -66 -30.5t-63 -29.5q-18 0 -39.5 11.5t-37 22.5t-39.5 16t-47 -7q-25 -12 -33 -37.5t-10.5 -63
t-10.5 -58.5q-10 -26 -43 -63t-45 -66z" />
    <glyph glyph-name="t_e" unicode="t&#xb7;e" horiz-adv-x="1396" 
d="M715 98q28 -11 32.5 -45t-5.5 -70.5t-23 -86.5t-14 -78q-3 -63 46.5 -102.5t133.5 -32.5q38 3 69 23t51.5 46t39 51t43 42.5t53.5 17.5q26 0 55 -26.5t53 -26.5q38 0 68.5 31t30.5 85q0 63 -40.5 95.5t-99.5 29.5q-31 -2 -65 -19t-62 -40t-57.5 -45.5t-53.5 -37.5
t-47.5 -14t-41.5 23q-22 24 -11.5 57.5t38 63.5t66.5 70.5t75.5 77.5t64 85.5t31.5 94.5q9 89 -32.5 142t-115.5 40q-48 -9 -78.5 -36.5t-43.5 -64t-22 -73.5t-23 -71t-37 -50q-33 -17 -49 -11.5t-53 16t-73 5.5q-27 -4 -64 -23.5t-63.5 -34t-62 -10t-68.5 39.5
q-22 24 -22.5 55.5t16.5 67t37.5 68t45 70.5t34.5 62q16 38 39 134t49 128q21 26 43.5 33.5t61.5 8t65 5.5q43 9 64 49t10 79t-49 46q-27 5 -62 -6t-52.5 -17.5t-43.5 9.5q-14 12 -14.5 45t4 69.5t5.5 72.5t-15.5 60t-53.5 25q-38 1 -57.5 -17.5t-24.5 -52t-6 -69t-5 -78
t-17 -69.5q-10 -22 -38.5 -29.5t-66 -9.5t-53.5 -8q-35 -14 -51 -44.5t-9 -61.5t35 -46q24 -12 46.5 -6t49 5t40.5 -19q17 -27 10 -64t-29 -67q-14 -20 -50 -49t-46 -50q-9 -21 -13 -81t-18 -99q-8 -21 -32.5 -43t-47 -39t-37 -47.5t-6.5 -69.5q7 -35 31.5 -52.5t52.5 -20
t69 -9.5t68 -22q19 -10 43.5 -28t40 -29t41 -19t54.5 -6q41 3 84.5 33t77 52.5t57.5 12.5z" />
    <glyph glyph-name="U_E" unicode="U&#xb7;E" horiz-adv-x="1974" 
d="M72 909q0 -137 118 -137q40 0 80.5 33.5t70.5 76.5t74 93t85 74q59 34 89.5 3.5t0.5 -85.5q-15 -28 -58 -66t-84.5 -69.5t-79 -78t-46.5 -91.5q-5 -26 -4.5 -86.5t-7.5 -114.5t-34 -96q-16 -25 -49 -63.5t-56 -66t-36.5 -67t-3.5 -78.5q11 -41 40 -61t66 -32t52 -26
q12 -11 30 -41t39.5 -50.5t55.5 -24.5q36 -4 62.5 4.5t60 27.5t63.5 29q15 5 57.5 10t70 18.5t40.5 43.5q12 38 9 57t-12 56.5t-9 64.5q0 54 28 90.5t56 28.5q19 -6 20 -30.5t-5 -48t7 -42.5q14 -18 50.5 -17.5t56.5 -13.5q13 -10 18.5 -28t7 -33.5t12 -31.5t31.5 -24
q20 -6 44.5 -3t45 9.5t44 4t40.5 -18.5q18 -17 25.5 -65t17 -94t33.5 -60q20 -11 44 -12t43.5 5t45 12t43.5 5q26 -1 76 -28.5t90 -18.5q32 7 51.5 28.5t35.5 55t28 47.5q7 9 48 43.5t50 65.5q17 52 -23 94.5t-94 30.5q-40 -9 -66.5 -37.5t-50 -67.5t-44.5 -57
q-37 -30 -81 -25t-65 39q-8 14 -18.5 57t-26.5 62q-14 17 -50 28.5t-56 33.5q-19 21 -20 47t12.5 47t39.5 34.5t56 10.5q31 -3 55 -20.5t37 -38t31.5 -43.5t36.5 -33q34 -16 66 -15t54.5 19.5t35.5 43.5t9 56.5t-26 58.5q-21 25 -65 33t-56 17q-14 11 -18.5 27t1.5 32t19 30
t35 22t47 7q28 -1 54 -13t46 -28.5t39 -33.5t41.5 -30t46.5 -15q56 -5 95.5 25.5t33.5 82.5q-4 29 -48.5 64.5t-49.5 42.5q-11 13 -20.5 40t-23.5 44t-42 22q-29 5 -61 -6.5t-55 -29t-51.5 -35t-49.5 -21.5q-37 -7 -54 19.5t-1 54.5q10 17 56 52t54 58q15 47 -23 77t-94 19
q-66 -13 -113.5 -70t-47.5 -114q0 -31 21.5 -97.5t12.5 -90.5q-7 -19 -28.5 -25t-56.5 -12t-62 -23q-20 -13 -35.5 -44.5t-24.5 -60.5t-29.5 -54.5t-51.5 -30.5q-71 -13 -117 25t-41 102q3 37 27.5 80t54.5 77t65 79.5t52 82.5q32 68 49 154.5t39 132.5q13 27 42 63t47.5 72
t20.5 84q3 66 -43 91t-103 4t-85 -72q-20 -36 -26.5 -120.5t-24.5 -117.5q-16 -29 -72 -94.5t-86 -118.5q-35 -63 -58.5 -179t-45.5 -159q-14 -28 -45 -46t-66 -35t-53 -40q-17 -22 -22.5 -62t-16.5 -79.5t-43 -64.5q-32 -26 -68 -31t-62.5 9t-46.5 38t-21.5 56t13.5 63
q11 19 53 64.5t78 91.5t41 77q5 27 -6.5 73.5t-7.5 82.5q4 31 36.5 71.5t77 80t89 81t77 87.5t36.5 87q3 36 -9.5 80t-13.5 58q-1 20 10 52.5t10 61.5q-2 40 -29 65.5t-67 24.5q-33 -1 -65.5 -24t-54.5 -50.5t-48.5 -57.5t-44.5 -40q-32 -18 -135 -47t-154 -51
q-72 -31 -116.5 -94.5t-44.5 -110.5z" />
    <glyph glyph-name="U_R" unicode="UR" horiz-adv-x="2404" 
d="M72 909q0 -137 118 -137q40 0 80.5 33.5t70.5 76.5t74 93t85 74q59 34 89.5 3.5t0.5 -85.5q-15 -28 -58 -66t-84.5 -69.5t-79 -78t-46.5 -91.5q-5 -26 -4.5 -86.5t-7.5 -114.5t-34 -96q-16 -25 -49 -63.5t-56 -66t-36.5 -67t-3.5 -78.5q11 -41 40 -61t66 -32t52 -26
q12 -11 30 -41t39.5 -50.5t55.5 -24.5q36 -4 62.5 4.5t60 27.5t63.5 29q15 5 57.5 10t70 18.5t40.5 43.5q12 38 9 57t-12 56.5t-9 64.5q0 54 28 90.5t56 28.5q20 -6 27 -29.5t9 -54t9 -43.5q8 -16 34 -17.5t52.5 -3.5t36.5 -18q11 -18 4 -54.5t2 -68.5q11 -31 45.5 -45
t76.5 -2t72 49q27 33 68 120t82 130q36 39 133.5 109.5t134.5 121.5q31 45 65 148t42 121q26 60 79.5 82t79.5 -15q16 -22 15 -54.5t-7.5 -57.5t1.5 -54q9 -29 62 -83t60 -87q5 -24 -7.5 -81.5t-10.5 -94.5q3 -66 46.5 -118t113.5 -58q57 -5 108.5 15t85.5 53t54 70.5
t22 70.5q1 38 -20 65.5t-54 30.5q-27 2 -79 -28.5t-78 -34.5q-38 -6 -60 11t-24 46q-1 16 10 37t23.5 39t20 48.5t1.5 63.5q-7 39 -33.5 72t-54.5 53t-54.5 50t-33.5 63q-9 42 11.5 61.5t55.5 8.5q18 -5 74.5 -48.5t91.5 -46.5q56 -5 92.5 31.5t32.5 93.5q-3 42 -38.5 94
t-37.5 82q-2 24 24.5 72.5t23.5 85.5q-5 58 -44.5 101t-95.5 47q-32 3 -105.5 -9t-107.5 -8q-29 3 -70 26t-86 42t-89 16q-65 -6 -92 -54.5t-9.5 -95t60.5 -48.5q22 -1 55.5 11t54.5 13q30 1 41.5 -25t-2.5 -61q-8 -21 -46 -44t-80.5 -53t-59.5 -65q-17 -34 -19 -125.5
t-22 -138.5q-17 -39 -51 -71.5t-78.5 -68t-71.5 -67.5q-22 -26 -61.5 -101.5t-83 -139t-90.5 -86.5q-35 -19 -77.5 -12.5t-78.5 26.5t-57 56t-13 75q8 38 42 82t78.5 96t66.5 94q36 69 51.5 156.5t36.5 130.5q13 27 42 63t47.5 72t20.5 84q3 66 -43 91t-103 4t-85 -72
q-20 -36 -26.5 -120.5t-24.5 -117.5q-16 -29 -72 -94.5t-86 -118.5q-35 -63 -58.5 -179t-45.5 -159q-14 -28 -45 -46t-66 -35t-53 -40q-17 -22 -22.5 -62t-16.5 -79.5t-43 -64.5q-32 -26 -68 -31t-62.5 9t-46.5 38t-21.5 56t13.5 63q11 19 53 64.5t78 91.5t41 77
q5 27 -6.5 73.5t-7.5 82.5q4 31 36.5 71.5t77 80t89 81t77 87.5t36.5 87q3 36 -9.5 80t-13.5 58q-1 20 10 52.5t10 61.5q-2 40 -29 65.5t-67 24.5q-33 -1 -65.5 -24t-54.5 -50.5t-48.5 -57.5t-44.5 -40q-32 -18 -135 -47t-154 -51q-72 -31 -116.5 -94.5t-44.5 -110.5z
M1878 1067q46 37 59 72q5 12 9.5 49.5t15.5 56.5q12 20 41.5 26.5t54.5 -5.5q20 -10 22 -45t7 -43q8 -11 26.5 -20t22.5 -13q21 -20 15 -66t-33 -53q-22 -6 -63.5 12.5t-61.5 16.5t-48.5 -12t-41.5 -21q-29 -27 -46 -12q-15 15 5 41q7 8 16 16z" />
    <glyph glyph-name="u_e" unicode="u&#xb7;e" horiz-adv-x="1630" 
d="M1055 84q15 -16 8.5 -43t-21 -49t-29 -55.5t-14.5 -61.5q0 -147 162 -147q40 0 71.5 18.5t52.5 44.5t40 53t43.5 46t54.5 20q26 1 55.5 -23t55.5 -24q38 0 67 28t29 84q0 58 -41 93.5t-94 35.5q-32 0 -67.5 -16.5t-64.5 -40.5t-60 -47.5t-55.5 -39.5t-48.5 -16t-42 23
q-17 27 -13.5 50.5t25 55t51 61t64 67t64.5 72.5t53 78.5t29 84.5q12 83 -33 134t-123 36q-47 -9 -79 -46t-46 -78.5t-35 -94.5t-45 -82q-32 -40 -93.5 -83.5t-124.5 -71.5t-117.5 -35t-71.5 26q-14 24 3.5 73t47 107t35.5 82q8 25 4 110.5t12 119.5q10 31 48 103t48 134
q11 63 -7 97t-48 35.5t-62.5 -18t-48.5 -54.5q-17 -38 -24.5 -107t-20.5 -96q-14 -30 -30 -49t-36.5 -35.5t-31.5 -28.5q-26 -30 -53.5 -102.5t-57.5 -108.5q-33 -38 -65.5 -46t-50.5 14.5t-13 64.5q4 29 24.5 61t53 72.5t49.5 69.5t25.5 113t28.5 110q63 81 74.5 149.5
t-36.5 88.5q-25 12 -46.5 9t-34.5 -10.5t-27.5 -24t-25 -31.5t-26.5 -32.5t-32 -27.5q-22 -14 -71.5 -27t-88.5 -23.5t-70.5 -40t-31.5 -75.5q0 -49 24 -68.5t62 -11.5q12 2 31.5 14t33.5 21t31 13t25 -9q11 -15 -10.5 -44.5t-49.5 -68.5t-28 -69t12.5 -58.5t5.5 -86.5
q-3 -28 -16.5 -56.5t-27 -49.5t-24 -44t-7 -48.5t23.5 -53.5q40 -53 110.5 -49.5t139.5 57.5q25 19 56.5 57.5t53.5 58t41 11.5q20 -9 20.5 -35.5t-14.5 -63t-32.5 -71t-37.5 -71.5t-26 -52q-10 -25 -10.5 -54.5t8.5 -55.5t33 -43t59 -17q37 0 87.5 22.5t96 54t95.5 66
t88.5 58.5t74 31t50.5 -17z" />
    <glyph glyph-name="u_r" unicode="ur" horiz-adv-x="1931" 
d="M82 791q0 -30 22.5 -45.5t57.5 -8.5q15 3 39 15.5t42.5 19t30.5 0.5q10 -8 6 -19t-18 -31.5t-28.5 -39.5t-26.5 -43.5t-12 -44.5q0 -30 12.5 -58.5t5.5 -86.5q-3 -28 -16.5 -56.5t-27 -49.5t-24 -44t-7 -48.5t23.5 -53.5q40 -53 110.5 -49.5t139.5 57.5q16 12 37.5 30.5
t35.5 30.5t29 23.5t27.5 15t21.5 0.5q20 -8 21 -31t-14 -55.5t-33 -64t-37.5 -65.5t-26.5 -50q-10 -25 -10.5 -54.5t8.5 -55.5t33 -43t59 -17q30 0 60.5 16.5t51.5 37t48.5 45.5t46.5 36q33 19 124.5 42t133.5 46q19 10 95 63.5t130 71.5q45 15 138 15.5t141 11.5
q145 32 168 131q8 39 -8.5 71t-55.5 29q-29 -2 -109 -30.5t-106 -14.5q-13 7 -17.5 24.5t2.5 48.5t12 49t20 59t16 45q6 27 4.5 43.5t-6 46.5t-4.5 47q0 50 42 106t95 39q32 -10 44.5 -30.5t6.5 -46t-15 -45.5t-21 -42q-4 -5 -5 -8q-33 -57 -16 -98.5t82 -38.5
q40 2 64.5 35.5t31 74t15 91.5t18.5 73q12 26 46.5 67t35.5 81q1 59 -33 87.5t-88 25.5q-27 -1 -62.5 -22t-64 -44t-64 -37.5t-65.5 -5.5q-18 5 -23.5 29.5t-4 54.5t0 59.5t-17.5 49.5t-51 20t-64 -19.5t-45 -44t-36.5 -54t-36.5 -42.5q-18 -15 -69.5 -32.5t-85.5 -40.5
t-34 -62q0 -50 30.5 -76t74.5 -26q39 0 63.5 13.5t58.5 47.5q22 22 46.5 24t35.5 -18.5t-2 -68.5q-13 -41 -24 -144.5t-29 -165.5q-25 -85 -54 -131.5t-75 -83.5q-40 -33 -83.5 -48.5t-91.5 -23t-65 -12.5q-26 -8 -89 -52.5t-76 -51.5q-47 -25 -72.5 -10.5t-13.5 55.5
q6 18 41.5 73t44.5 93q6 26 -3.5 109.5t3.5 119.5q10 32 32 68.5t44 83t36 112.5q14 62 -3.5 96t-48.5 36t-64.5 -17.5t-49.5 -54.5q-17 -38 -24.5 -107t-20.5 -96q-14 -30 -35.5 -49.5t-46.5 -35t-37 -28.5q-26 -30 -53 -102.5t-57 -108.5q-51 -58 -84 -45.5t-25 78.5
q4 29 24.5 61t53 72.5t49.5 69.5t25.5 113t28.5 110q63 81 74.5 149.5t-36.5 88.5q-34 10 -53.5 8t-39 -18.5t-31.5 -34t-30.5 -39t-37.5 -33.5q-15 -10 -50 -19t-68 -19t-65.5 -26t-52.5 -48.5t-20 -79.5z" />
    <glyph glyph-name="X_S_E" unicode="X&#xb7;SE" horiz-adv-x="3463" 
d="M35 258q-16 -120 28 -203.5t115 -97.5q41 -8 89 16t71 27q22 3 80 -13t94 -7q35 9 56 38.5t39.5 76.5t33.5 69q32 46 79.5 49t72.5 -49q10 -23 13.5 -75t17.5 -88t55 -48q43 -12 104.5 9t77.5 22q23 2 83.5 -12t102.5 -7q27 4 55 22t48.5 35t58 29t82.5 8q37 -3 68 -17.5
t52 -33.5t40.5 -38t44.5 -34.5t53 -19.5q41 -6 74 0t74 22.5t65 22.5q22 6 63.5 9t69 12.5t49.5 35.5q26 32 28.5 76t-7 93.5t-8.5 68.5q1 21 13.5 39.5t27.5 32t32 41.5t25 63q13 59 -14 114t-80 83q-30 16 -65.5 19t-61.5 0t-58.5 6.5t-60.5 37.5q-25 25 -31.5 76.5
t-23.5 73.5q-11 15 -32.5 27.5t-38 20.5t-29.5 29t-13 54q0 50 37 95t87.5 61t102.5 -3q38 -18 83.5 -54.5t84.5 -59.5t82 -23q41 0 98 28.5t107 31.5q65 4 131.5 -22t103.5 -72t19 -93q-12 -31 -44 -46t-66.5 -17.5t-76 -18t-67.5 -45.5q-29 -35 -37.5 -83.5t-4 -93.5
t-3.5 -101q-3 -21 -13 -63t-16.5 -71t-8.5 -74.5t11 -74.5q15 -43 42.5 -70.5t72 -55.5t65.5 -46q14 -12 47 -45t51 -47t54 -28t78 -13q40 1 77 15.5t60 33t51.5 38.5t50.5 28q28 9 91 7t94 11q61 24 98 84.5t37 122.5q0 79 -30 133.5t-91 50.5q-29 -2 -48.5 -26.5
t-31 -59.5t-22.5 -70.5t-29.5 -65t-44.5 -38.5q-41 -10 -66.5 -6t-69 11t-73.5 5q-21 -2 -47.5 -14t-44.5 -21.5t-44.5 -13.5t-47.5 10q-30 17 -40.5 42.5t-14 65.5t-9.5 60q-5 15 -30.5 62.5t-32.5 93.5q-12 80 30 134t109 44q30 -4 55 -18.5t43 -33t34.5 -37.5t37.5 -36
t45 -24q42 -11 77.5 -4.5t58 30t32 52t-1 62t-41.5 58.5q-23 19 -62 30t-71 22t-47 34q-32 50 11 92q41 40 105 36q50 -4 85 -38q48 -47 124.5 -59.5t118.5 23.5q31 28 34 99t13 89q11 20 30.5 38.5t35.5 30.5t31 31t20 43q19 78 -16.5 138t-106.5 59q-29 -1 -53.5 -14.5
t-39.5 -29.5t-37.5 -31.5t-47.5 -18.5q-23 -3 -50.5 5.5t-48 17.5t-51.5 6.5t-63 -25.5q-27 -19 -40 -50.5t-13.5 -58t-8.5 -47t-28 -22.5q-42 -4 -74 11.5t-55 42.5t-44.5 55.5t-53 53.5t-70.5 33q-38 8 -92 -5t-96.5 -29t-95 -22t-87.5 15q-23 12 -47 40.5t-41.5 53.5
t-49.5 44.5t-71 19.5q-36 0 -61 -20t-36.5 -46t-30.5 -58t-42 -48q-17 -12 -48.5 -23.5t-60 -23t-58.5 -31t-51.5 -56t-30.5 -89.5t7 -91t40.5 -55t54.5 -38t41 -39q17 -28 23.5 -86t29.5 -84q18 -20 57 -28.5t76 -9.5t80 -19.5t70 -57.5q28 -41 29 -76t-13.5 -69t-15.5 -46
q-2 -20 12 -54t10 -58q-6 -31 -45.5 -43t-83.5 -2q-21 5 -58 39.5t-61 40.5q-33 7 -69 5t-65.5 -6.5t-54.5 6.5t-38 44q-13 29 -1.5 56.5t30 44t35.5 47.5t16 67q-3 73 -60.5 92t-117.5 -23q-34 -23 -53.5 -55.5t-26.5 -67.5t-13 -70.5t-21 -72.5t-42 -65
q-60 -61 -174.5 -72t-155.5 45q-23 32 -28 94t-15 88q-6 16 -21.5 30.5t-30.5 24t-26.5 29.5t-11.5 47q0 38 25.5 64.5t56.5 39t60.5 32.5t36.5 45q10 39 -2 103t-5 118q9 68 53.5 120t96.5 50t78 -74q10 -28 -2 -66t-29.5 -67.5t-22.5 -65t19 -59.5q27 -29 60 -34.5
t62.5 12t54 48.5t37.5 79t9 100q-8 91 -31 156.5t-52.5 99.5t-68.5 49.5t-74 15t-73 -11.5q-36 -10 -57.5 -34t-40.5 -64t-29 -54q-30 -45 -66.5 -43t-56.5 52q-7 18 -7.5 70.5t-11 92t-44.5 48.5q-44 13 -94 -18t-74 -29q-27 2 -84 30t-100 27q-87 -2 -157.5 -90
t-70.5 -199q0 -73 25.5 -139t70.5 -99.5t95 -11.5q34 16 44 51t3 71t-13 83.5t0 75.5q13 55 66.5 80t107.5 13.5t70 -48.5q12 -27 14 -81.5t17 -84.5q10 -20 31.5 -37.5t34 -38t12.5 -59.5q0 -32 -22 -55t-49.5 -35t-56.5 -35t-40 -55t-4 -63t20.5 -52.5t19 -54t-9.5 -66.5
q-16 -37 -44.5 -51.5t-67 -19.5t-56.5 -15q-19 -11 -30.5 -32.5t-25 -52t-32.5 -52.5q-28 -33 -67 -38t-67.5 18.5t-28.5 64.5q0 29 17 59t34.5 49.5t26 49.5t-8.5 59q-15 29 -45.5 38.5t-65.5 -2.5t-69 -38t-59.5 -70t-32.5 -96zM2994 1049q0 37 34.5 59t78.5 22
q48 0 87.5 -16.5t39.5 -54.5q0 -21 -12 -29.5t-33 -15t-33 -17.5q-11 -10 -22 -29.5t-22.5 -29.5t-33.5 -10q-39 0 -61.5 35.5t-22.5 85.5z" />
    <glyph glyph-name="X_S_E_S" unicode="X&#xb7;SES" horiz-adv-x="4370" 
d="M35 258q-16 -120 28 -203.5t115 -97.5q41 -8 89 16t71 27q22 3 80 -13t94 -7q35 9 56 38.5t39.5 76.5t33.5 69q32 46 79.5 49t72.5 -49q10 -23 13.5 -75t17.5 -88t55 -48q43 -12 104.5 9t77.5 22q23 2 83.5 -12t102.5 -7q27 4 55 22t48.5 35t58 29t82.5 8q37 -3 68 -17.5
t52 -33.5t40.5 -38t44.5 -34.5t53 -19.5q41 -6 74 0t74 22.5t65 22.5q22 6 63.5 9t69 12.5t49.5 35.5q26 32 28.5 76t-7 93.5t-8.5 68.5q1 21 13.5 39.5t27.5 32t32 41.5t25 63q13 59 -14 114t-80 83q-30 16 -65.5 19t-61.5 0t-58.5 6.5t-60.5 37.5q-25 25 -31.5 76.5
t-23.5 73.5q-11 15 -32.5 27.5t-38 20.5t-29.5 29t-13 54q0 50 37 95t87.5 61t102.5 -3q38 -18 83.5 -54.5t84.5 -59.5t82 -23q41 0 98 28.5t107 31.5q65 4 131.5 -22t103.5 -72t19 -93q-12 -31 -44 -46t-66.5 -17.5t-76 -18t-67.5 -45.5q-29 -35 -37.5 -83.5t-4 -93.5
t-3.5 -101q-3 -21 -13 -63t-16.5 -71t-8.5 -74.5t11 -74.5q15 -43 42.5 -70.5t72 -55.5t65.5 -46q10 -9 46.5 -43.5t52.5 -46t52.5 -25t78.5 -12.5q40 1 73 18.5t51.5 38.5t42.5 42t46 26q31 7 107 -3.5t104 -4.5q30 6 102.5 50t122.5 46q40 2 76 -13.5t62.5 -39t50 -48
t49 -44.5t49.5 -25q28 -6 52 -6t46.5 5t38.5 11t41.5 16.5t42.5 16.5q25 9 64 11.5t67.5 11t50.5 34.5q26 32 28.5 76t-7 93.5t-8.5 68.5q1 21 13.5 39.5t27.5 32t32 41.5t25 63q13 59 -14 114t-80 83q-30 16 -65.5 19t-61.5 0t-58.5 6.5t-60.5 37.5q-25 25 -31.5 76.5
t-23.5 73.5q-11 15 -32.5 27.5t-38 20.5t-29.5 29t-13 54q0 77 67 121.5t140 11.5q32 -15 63 -51.5t52 -70.5t56.5 -64t78.5 -35q41 -5 71.5 14t43 49t10.5 64t-21 57q-23 29 -53.5 40t-67 20t-63.5 30q-18 15 -38.5 55.5t-37 77.5t-47.5 67t-70 30q-36 0 -60.5 -23.5
t-35 -53.5t-29 -65t-41.5 -51q-17 -12 -48.5 -23.5t-60 -23t-58.5 -31t-51.5 -56t-30.5 -89.5t7 -91t40.5 -55t54.5 -38t41 -39q17 -28 23.5 -86t29.5 -84q18 -20 57 -28.5t76 -9.5t80 -19.5t70 -57.5q28 -41 29 -76t-13.5 -69t-15.5 -46q-2 -20 12 -54t10 -58
q-6 -31 -45.5 -43t-83.5 -2q-21 5 -58 39.5t-61 40.5q-33 7 -69 5t-65.5 -6.5t-54.5 6.5t-38 44q-13 29 -1.5 56.5t30 44t35.5 47.5t16 67q-3 74 -63.5 95.5t-114.5 -26.5q-29 -26 -42.5 -67.5t-15 -83t-3 -82t-13.5 -74.5t-39 -51q-23 -17 -51.5 -15t-48 11.5t-53 18.5
t-66.5 6q-36 -3 -82.5 -26.5t-84 -48.5t-89 -42.5t-98.5 -12.5q-36 4 -60.5 19.5t-37 40t-19.5 47.5t-13.5 54t-13.5 48q-4 10 -32 59.5t-35 96.5q-12 80 30 134t109 44q30 -4 55 -18.5t43 -33t34.5 -37.5t37.5 -36t45 -24q42 -11 77.5 -4.5t58 30t32 52t-1 62t-41.5 58.5
q-23 19 -62 30t-71 22t-47 34q-32 50 11 92q41 40 105 36q50 -4 85 -38q48 -47 124.5 -59.5t118.5 23.5q31 28 34 99t13 89q11 20 30.5 38.5t35.5 30.5t31 31t20 43q19 78 -16.5 138t-106.5 59q-29 -1 -53.5 -14.5t-39.5 -29.5t-37.5 -31.5t-47.5 -18.5q-23 -3 -50.5 5.5
t-48 17.5t-51.5 6.5t-63 -25.5q-27 -19 -40 -50.5t-13.5 -58t-8.5 -47t-28 -22.5q-42 -4 -74 11.5t-55 42.5t-44.5 55.5t-53 53.5t-70.5 33q-38 8 -92 -5t-96.5 -30t-95 -23t-87.5 15q-22 12 -47 42.5t-43.5 56.5t-51 45t-71.5 16q-37 -3 -61.5 -24t-35 -46t-28.5 -55.5
t-41 -46.5q-17 -12 -48.5 -23.5t-60 -23t-58.5 -31t-51.5 -56t-30.5 -89.5t7 -91t40.5 -55t54.5 -38t41 -39q17 -28 23.5 -86t29.5 -84q18 -20 57 -28.5t76 -9.5t80 -19.5t70 -57.5q28 -41 29 -76t-13.5 -69t-15.5 -46q-2 -20 12 -54t10 -58q-6 -31 -45.5 -43t-83.5 -2
q-21 5 -58 39.5t-61 40.5q-33 7 -69 5t-65.5 -6.5t-54.5 6.5t-38 44q-13 29 -1.5 56.5t30 44t35.5 47.5t16 67q-3 73 -60.5 92t-117.5 -23q-34 -23 -53.5 -55.5t-26.5 -67.5t-13 -70.5t-21 -72.5t-42 -65q-60 -61 -174.5 -72t-155.5 45q-23 32 -28 94t-15 88
q-6 16 -21.5 30.5t-30.5 24t-26.5 29.5t-11.5 47q0 38 25.5 64.5t56.5 39t60.5 32.5t36.5 45q10 39 -2 103t-5 118q9 68 53.5 120t96.5 50t78 -74q10 -28 -2 -66t-29.5 -67.5t-22.5 -65t19 -59.5q27 -29 60 -34.5t62.5 12t54 48.5t37.5 79t9 100q-8 91 -31 156.5t-52.5 99.5
t-68.5 49.5t-74 15t-73 -11.5q-36 -10 -57.5 -34t-40.5 -64t-29 -54q-30 -45 -66.5 -43t-56.5 52q-7 18 -7.5 70.5t-11 92t-44.5 48.5q-44 13 -94 -18t-74 -29q-27 2 -84 30t-100 27q-87 -2 -157.5 -90t-70.5 -199q0 -73 25.5 -139t70.5 -99.5t95 -11.5q34 16 44 51t3 71
t-13 83.5t0 75.5q13 55 66.5 80t107.5 13.5t70 -48.5q12 -27 14 -81.5t17 -84.5q10 -20 31.5 -37.5t34 -38t12.5 -59.5q0 -32 -22 -55t-49.5 -35t-56.5 -35t-40 -55t-4 -63t20.5 -52.5t19 -54t-9.5 -66.5q-16 -37 -44.5 -51.5t-67 -19.5t-56.5 -15q-19 -11 -30.5 -32.5
t-25 -52t-32.5 -52.5q-28 -33 -67 -38t-67.5 18.5t-28.5 64.5q0 29 17 59t34.5 49.5t26 49.5t-8.5 59q-15 29 -45.5 38.5t-65.5 -2.5t-69 -38t-59.5 -70t-32.5 -96zM2994 1049q0 37 34.5 59t78.5 22q48 0 87.5 -16.5t39.5 -54.5q0 -21 -12 -29.5t-33 -15t-33 -17.5
q-11 -10 -22 -29.5t-22.5 -29.5t-33.5 -10q-39 0 -61.5 35.5t-22.5 85.5z" />
    <glyph glyph-name="x_s_e_s" unicode="x&#xb7;ses" horiz-adv-x="3332" 
d="M117 745q-14 -57 20 -103.5t94 -33.5q26 5 45 32t28.5 58t25.5 64.5t37 48.5q46 31 92.5 6.5t52.5 -76.5q5 -41 -22 -110.5t-19 -106.5q5 -26 23.5 -44t38.5 -25.5t39 -24t26 -39.5q25 -86 -42 -170q-51 -65 -115 -81q-66 -17 -87 38q-7 18 -8 43q-1 24 9.5 60t20 62
t7 51t-24.5 36q-31 16 -68 -4t-65.5 -63t-47.5 -94t-18.5 -103.5t25.5 -85.5q21 -28 48.5 -37t57.5 -11.5t46 -11.5q17 -10 40.5 -42.5t49 -52.5t59.5 -15q29 4 48.5 23t27 38t16.5 49.5t15 42.5q18 41 61 46.5t66 -23.5q12 -14 28 -55t38.5 -66.5t60.5 -27.5q54 -3 123 58
t92 138q22 75 -5.5 114.5t-72.5 24.5q-29 -9 -53 -52t-47 -54q-39 -18 -74 5.5t-37 59.5q-1 24 16.5 65t27.5 69.5t-1 72.5q-9 25 -33 44t-46.5 30t-42.5 36.5t-23 63.5q-7 87 68.5 168.5t172.5 100.5q54 10 106.5 -23t61.5 -80q7 -35 -3.5 -80t-2.5 -67q7 -19 19 -30.5
t23.5 -16t24.5 -14.5t21 -25q7 -18 6 -42t-5 -45t6 -41t38 -30q36 -13 75 1t77.5 34.5t64.5 21.5q72 3 118 -66q42 -62 29 -125q-13 -67 -83 -77q-8 -2 -17 -2q-27 -1 -51 14t-41.5 36.5t-35 42t-40 30.5t-49.5 2q-62 -18 -70.5 -84t47 -134t156.5 -89q112 -24 197.5 9.5
t114.5 104.5q21 39 11.5 111t-5.5 96q9 46 59.5 71.5t102.5 16t63 -48.5q10 -36 -13.5 -96t-21.5 -96q3 -64 54 -111.5t131 -44.5q45 2 85 24t69 52t57.5 60t62.5 50t72 19q40 -1 82 -27t79 -62.5t74 -72.5t79.5 -61t82.5 -25q43 0 79 17.5t53.5 36.5t38 48t26.5 35
q20 21 60.5 23.5t53.5 7.5q76 30 76 166q0 100 -69 185t-191 124q-101 32 -147 117q-36 66 -15 112q16 36 62 31q25 -3 35 -22.5t9 -43t2 -48.5t15 -35q25 -15 46.5 -11t53 13.5t44.5 7.5q15 -3 40 -20.5t50 -18.5q36 -1 61.5 23.5t32.5 59t-10.5 73.5t-59.5 63
q-28 16 -63.5 11t-61 -13t-65.5 10q-24 12 -43.5 39t-32 51t-40 43t-66.5 19q-32 0 -54 -12t-33 -32.5t-17.5 -40.5t-12 -44.5t-10.5 -36.5q-9 -20 -30.5 -38.5t-39.5 -31t-31 -39.5t-10 -65q3 -42 24.5 -75t52 -53t72.5 -37t78.5 -25.5t79 -19.5t64.5 -19q51 -19 76 -63
t23.5 -88.5t-20.5 -81t-47 -42.5q-41 -9 -78.5 17t-64.5 26q-20 0 -43.5 -8.5t-40 -15.5t-43 -8.5t-51.5 12.5q-25 12 -40.5 36.5t-24 49t-20 48t-36 38t-63.5 14.5q-36 0 -76 -21.5t-71.5 -51.5t-67 -62t-61.5 -52t-55.5 -22t-49.5 27q-18 21 -13 51t26 58.5t53 65.5
t68.5 72t73 78.5t65 84.5t45 89.5t13.5 94.5q-5 78 -46.5 129t-110.5 51q-62 0 -107 -22t-68 -55t-39 -77.5t-22.5 -85t-16 -82t-20.5 -63.5q-36 -69 -115.5 -105t-154.5 -10q-29 10 -66 45.5t-73 36.5q-26 1 -65.5 -20t-79.5 -35t-76 0q-35 14 -47 42.5t-13 69.5t-6 56
q-8 27 -41 56t-33 58t27.5 55.5t63 40.5t71.5 12t51 -24q18 -27 21.5 -66t9 -70t29.5 -48q49 -32 100 2.5t49 97.5q-1 39 -16 65t-44 51.5t-38 37.5q-10 13 -24.5 48t-33 58t-47.5 27q-33 5 -66.5 -12.5t-69.5 -44t-62 -35.5q-41 -14 -108 0.5t-121.5 29t-131.5 -2.5
q-32 -9 -63.5 -31t-54 -46.5t-48 -48t-47.5 -37.5t-50 -12.5t-58 23.5q-23 18 -37.5 65t-30.5 64q-33 35 -86.5 34.5t-87.5 -34.5q-30 -30 -44 -93.5t-21 -76.5q-9 -18 -36.5 -34t-52.5 -35t-32 -46zM2152 664q-23 19 -14.5 67t40 92.5t54.5 28.5q18 -12 21.5 -38t-5.5 -54
t-24 -53t-35 -38t-37 -5z" />
    <glyph glyph-name="C_h" unicode="Ch" horiz-adv-x="2183" 
d="M88 709q-8 -43 6 -103t15 -74q3 -24 -8.5 -83t-2.5 -89q12 -38 32.5 -65.5t51 -58.5t49.5 -56q12 -15 34.5 -56.5t49 -71t68.5 -48.5q56 -19 90.5 -16.5t85 11t76.5 5.5q23 -3 92 -28t111 -15q30 7 49.5 31.5t36.5 63t28 53.5q13 17 36.5 32t44 32.5t32.5 47.5
q14 40 11 76t-24.5 60t-49 34.5t-63 -0.5t-65.5 -45q-23 -25 -41.5 -62t-29 -63.5t-34.5 -50t-62 -31.5q-43 -9 -72 3t-64.5 41.5t-64.5 43.5q-35 17 -75.5 20t-66 7.5t-38.5 26.5q-17 27 -18 58t7 55.5t15 57.5t4 58q-3 26 -17 52.5t-29.5 44.5t-27 45t-10.5 55
q1 31 24 53.5t52.5 34t64.5 30.5t53 41q23 28 39 77t37.5 92.5t63.5 70.5q34 22 66 27.5t49 1.5t47.5 -17t39.5 -16q18 -6 43 -8.5t39.5 -4t27.5 -13t17 -34.5t-8.5 -45t-31 -38t-37.5 -41.5t-25 -53.5q-13 -65 33.5 -103t97.5 -5q31 20 50 68.5t38 64.5q23 18 72 34t69 31
q16 11 48 70t55 72q20 12 60.5 6.5t70.5 3.5q29 11 61.5 52.5t49.5 55.5q25 20 51 23.5t38.5 -14.5t-1.5 -66q-18 -54 -64 -104t-55 -82q-8 -26 -7.5 -103t-21.5 -108q-25 -48 -61 -85t-60 -81q-21 -39 -22.5 -80t7 -85.5t7.5 -63.5q-3 -98 -30 -167t-60 -92
q-24 -17 -84 -24t-94 -29q-51 -33 -59 -84.5t24.5 -88.5t87.5 -34q43 3 81.5 25t77 53t64.5 43q21 9 63 19t71 18t54.5 30.5t28.5 57.5q3 37 -13.5 56.5t-39.5 23t-45.5 12.5t-26.5 27q-5 21 7.5 41.5t33 43t27.5 40.5q8 24 5.5 52.5t-9.5 52.5t0 47t33 36q26 14 70.5 -11
t64.5 -24q24 1 50 26t45.5 44.5t35.5 9.5q15 -7 8 -31t-20.5 -47t-29 -51.5t-17.5 -44.5q-3 -20 7 -87t3 -97q-6 -28 -20 -43t-38.5 -27.5t-35.5 -21.5q-35 -28 -35.5 -62.5t22.5 -55t52 -15.5q21 4 60.5 26.5t59.5 24.5q23 3 68.5 -2t58.5 2q15 5 35 28.5t33 30.5
q9 5 31.5 14t38.5 19t26 27q27 43 4.5 89t-69.5 40q-23 -3 -67.5 -41t-70.5 -33q-12 2 -15.5 14t-1 30t6.5 36t8.5 38t5.5 31q1 19 -7.5 51t-6.5 58q3 33 20.5 60.5t43 64t39.5 82.5q13 40 1.5 73t-37.5 48.5t-58.5 18.5t-63.5 -17q-19 -12 -45.5 -34t-46 -38.5t-41 -30
t-41.5 -13t-37 16.5q-16 15 -17.5 38t11 50.5t26 50.5t32 51t24.5 40q18 34 13.5 107.5t10.5 105.5q14 30 44.5 58t52.5 52t24 52q2 25 -6.5 42t-25.5 34t-23 26q-3 5 -19 38t-33 48t-44 16t-52.5 -16t-44 -39.5t-46 -52.5t-52.5 -47q-28 -20 -102.5 -38.5t-114.5 -35.5
q-24 -10 -54 -35.5t-52.5 -47t-54.5 -35.5t-64 -9q-28 5 -51 30t-37.5 53.5t-44 57t-68.5 39.5q-41 12 -79.5 -6t-77.5 -49t-66 -39q-40 -11 -77.5 -7t-89 -0.5t-87.5 -25.5q-32 -19 -47.5 -60.5t-31 -100.5t-40.5 -99q-18 -30 -47 -61.5t-51 -52t-42 -53t-26 -70.5z" />
    <glyph glyph-name="F_U" unicode="FU" horiz-adv-x="2641" 
d="M147 133q-42 -27 -56.5 -69t3 -77.5t60.5 -45.5q33 -8 108.5 21t110.5 32q27 3 130 -7t138 7q43 13 64 47t13.5 70.5t-38.5 56.5q-27 16 -56 9.5t-60.5 -6t-43.5 21.5q-12 18 -6.5 48t17 54.5t24 56t14.5 51.5q2 21 -4.5 63.5t-5 80.5t20.5 67q29 45 84.5 27.5
t60.5 -70.5q2 -28 -18 -60t-19 -54q2 -53 27.5 -82t58 -31.5t64.5 11.5t47 40q14 24 15.5 63.5t-2 71.5t6.5 70q7 21 32.5 58t44 76t17.5 79q-1 49 -34.5 72.5t-69.5 3.5q-25 -14 -58 -55.5t-63 -61.5q-24 -17 -66.5 -18.5t-78.5 16.5t-39 53q-2 25 31.5 76t33.5 76
q0 19 -11 55.5t-10 63t25 45.5q18 15 45 14.5t51 -9t57 -18t58 -10.5q24 -1 67.5 8t79 17.5t73.5 7.5t59 -19q21 -17 27 -43t3.5 -51t-3.5 -50t11.5 -47t43.5 -34q29 -9 51.5 -8t46.5 16t43 33t41.5 44t40.5 48.5t41 46.5t43 39q63 44 101 14.5t8 -85.5q-15 -28 -58 -66
t-85 -69.5t-79.5 -78t-46.5 -91.5q-5 -26 -4 -86.5t-7 -114.5t-34 -96q-16 -25 -49 -63.5t-56 -66t-36.5 -67t-3.5 -78.5q11 -41 40 -61t66 -32t52 -26q12 -11 29.5 -41t39 -50.5t55.5 -24.5q36 -4 62.5 4.5t61 27.5t63.5 29q15 5 57.5 10t70 18.5t40.5 43.5q12 38 9 57
t-12.5 56.5t-9.5 64.5q0 54 28 90.5t56 28.5q20 -6 22.5 -31.5t-2 -50.5t4.5 -45q10 -20 50.5 -20t51.5 -19q13 -13 0.5 -54t-4.5 -69q20 -62 77 -60.5t118 62.5q30 30 52.5 68.5t48 94.5t42.5 87q19 35 55 72t67.5 62.5t59 59t35.5 64.5q14 57 -10.5 86t-66.5 22.5
t-78 -41.5q-27 -26 -69 -88.5t-84.5 -115.5t-82.5 -74q-69 -35 -130.5 -0.5t-55.5 102.5q3 39 39.5 88t85.5 108t71 105q32 68 49 154.5t39 132.5q11 24 32 51.5t36.5 46.5t28.5 51t14 70q3 66 -43 91t-103 4t-85 -72q-20 -38 -28 -122.5t-24 -115.5t-72 -96.5t-85 -116.5
q-35 -63 -59 -179t-46 -159q-14 -28 -45 -46t-66 -35t-53 -40q-17 -22 -22 -62t-16 -79.5t-43 -64.5q-32 -26 -68 -31t-62.5 9t-46.5 38t-21.5 56t13.5 63q11 19 53 64.5t78 91.5t41 77q5 27 -6.5 73.5t-7.5 82.5q5 38 53.5 91.5t104 100t104 106.5t53.5 109q3 36 -12 79.5
t-16 58.5q-1 20 13 52.5t13 61.5q-2 43 -33.5 70t-85.5 18q-43 -7 -88 -40.5t-82.5 -75.5t-74 -82t-73.5 -64t-69 -18q-25 5 -42.5 23.5t-25.5 38.5t-25 39t-42 24q-44 9 -107 -12.5t-91 -22.5q-32 -1 -114 37.5t-130 34.5q-45 -4 -129.5 -42t-124.5 -40q-34 -2 -88 23
t-98 28q-40 3 -70 -17.5t-42 -49.5t-8 -61.5t27 -51.5q25 -21 73.5 -24.5t84.5 -10.5t43 -37q8 -31 -4.5 -61.5t-32 -53.5t-36.5 -59t-17 -74q0 -52 19.5 -132.5t17.5 -111.5q-1 -22 -14 -41t-27.5 -32t-28 -34.5t-16.5 -47.5q-3 -23 6.5 -60t19.5 -66t12 -63t-16 -51
q-18 -20 -49.5 -19.5t-75.5 -1t-84 -26.5z" />
    <glyph glyph-name="I_C_E" unicode="&#xb7;ICE" horiz-adv-x="2789" 
d="M-66 -444q40 -8 85.5 1.5t88 21t72.5 5.5q19 -4 38 -19.5t42.5 -28t58.5 -11.5q40 1 89 37.5t84 42.5q20 3 45.5 -8.5t43 -18.5t52.5 6q32 15 51 39.5t21.5 49t-4 47t-23 37.5t-37.5 16q-22 1 -59.5 -11t-66 -23.5t-59.5 -14.5t-42 16q-15 15 -12 48t12 61.5t19 65
t9 58.5q-1 32 -21 90t-15 89q7 39 30.5 69t51.5 65.5t42 80.5q8 30 5.5 74.5t-10 84.5t-5 81t20.5 63q37 46 100 46.5t94 -48.5q19 -29 18.5 -96t-7.5 -119.5t2 -92.5q11 -39 30.5 -66t52 -59t50.5 -55q13 -16 34.5 -58t48 -72.5t68.5 -49.5q41 -18 94 -21t109 0.5t80 0.5
q23 -3 92 -28t111 -15q30 7 49.5 31t36.5 62.5t28 53.5q13 17 36.5 32t44 33t32.5 48q14 40 11 76t-24.5 60t-49 34.5t-63 -0.5t-65.5 -45q-24 -26 -42 -62.5t-26.5 -63t-28.5 -49t-50 -28.5q-53 -11 -88 -0.5t-77 41.5t-66 43q-33 16 -79.5 26t-77 20t-44.5 32
q-17 27 -18 58t6.5 55.5t15 57.5t4.5 58q-3 33 -25 65t-41 64t-18 68q1 40 37.5 67.5t88.5 51.5t71 44q14 16 29.5 46.5t30 60t34.5 59.5t52 52.5t73 31.5q103 22 212 -24t140 -125q20 -53 23 -116t2.5 -119.5t11.5 -90.5q15 -44 42.5 -71.5t72 -55t65.5 -45.5
q14 -12 47 -45t51 -47t54 -28t78 -13q40 1 77 15.5t60 33t51.5 38.5t50.5 28q28 9 90.5 7t93.5 11q83 32 118.5 131t5.5 182.5t-109 77.5q-29 -2 -48.5 -26.5t-31 -59.5t-22.5 -70.5t-29.5 -65t-44.5 -38.5q-25 -15 -101 -1t-108 11q-21 -3 -48 -15t-44.5 -21.5t-44.5 -13
t-48 10.5q-30 17 -40.5 42.5t-13.5 65.5t-9 60q-5 15 -31 62.5t-33 93.5q-12 80 30.5 134t109.5 44q30 -4 55 -18.5t43 -33t34.5 -37.5t37.5 -36t45 -24q42 -11 77.5 -4.5t58 30t32 52t-1 62t-41.5 58.5q-23 19 -62 30t-71.5 22t-47.5 34q-32 50 11 92q41 40 105 37
q50 -4 85 -38q48 -47 125 -60t119 23q31 28 34 99t13 89q11 20 30.5 38.5t35.5 30.5t31 31t20 43q19 78 -16.5 138t-106.5 59q-29 -1 -53.5 -14.5t-39.5 -29.5t-37.5 -31.5t-47.5 -18.5q-23 -3 -50.5 5.5t-48 17.5t-51.5 6.5t-63 -25.5q-35 -24 -44.5 -66t-15 -73.5
t-30.5 -38.5q-55 -15 -104.5 5.5t-53.5 76.5q-3 42 16.5 80.5t48 66.5t55.5 53.5t40.5 51.5t1.5 51q-20 41 -68.5 51.5t-91.5 -4.5q-71 -20 -126.5 -94t-51.5 -183q2 -52 27.5 -98.5t58.5 -78t64.5 -59.5t48 -56.5t6.5 -55.5q-12 -32 -35.5 -47t-46 -16t-51.5 -3.5
t-46 -11.5q-25 -13 -60 -54.5t-65 -45.5q-27 -4 -60 20.5t-58.5 57t-56.5 63.5t-52 37q-41 12 -79.5 -6t-77.5 -49t-66 -39q-40 -11 -77 -7t-88.5 -0.5t-88.5 -25.5q-32 -19 -51 -54t-27 -73t-15 -75t-22 -67t-41 -42q-17 -13 -58.5 -3t-55.5 9q-18 -2 -46.5 -19t-50.5 -18
q-21 -1 -70.5 20.5t-88.5 20.5q-42 -1 -87.5 -28.5t-78.5 -34.5q-27 -6 -69.5 4.5t-82.5 3.5q-41 -8 -65 -36t-25.5 -58.5t17.5 -57t55 -32.5q36 -5 79.5 15t61.5 17q46 -7 61.5 -67t-4.5 -111q-8 -24 -57.5 -98t-52.5 -111q-3 -30 10.5 -86.5t7.5 -97.5q-6 -38 -31.5 -86.5
t-29.5 -83.5q-2 -19 8 -64.5t9.5 -82t-25.5 -56.5t-57 -22t-58 6t-60.5 15.5t-60.5 4.5q-47 -6 -75 -35t-31 -62.5t17.5 -64.5t61.5 -40zM2341 1513q3 37 36 60.5t77 28.5q47 5 86.5 -11t39.5 -55q0 -21 -12 -31.5t-33 -18t-30 -16.5q-9 -8 -17.5 -28t-22 -31.5t-40.5 -11.5
q-40 0 -63.5 34.5t-20.5 79.5z" />
    <glyph glyph-name="I_C_E_S" unicode="&#xb7;ICES" horiz-adv-x="3287" 
d="M-55 -444q40 -8 85.5 1.5t87.5 21t72 5.5q19 -4 38 -19.5t43 -28t59 -11.5q40 1 88.5 37.5t83.5 42.5q20 3 45.5 -8.5t43 -18.5t52.5 6q32 15 51 39.5t21.5 49t-4 47t-23 37.5t-37.5 16q-22 1 -59.5 -11t-66 -23.5t-59.5 -14.5t-42 16q-15 15 -12 48t12.5 61.5t19.5 65
t9 58.5q-1 32 -21.5 90t-15.5 89t21.5 57.5t34.5 43.5t38 47.5t31 66.5q8 30 5.5 74.5t-10 84.5t-5.5 81t20 63q37 46 100 46.5t94 -48.5q19 -29 18.5 -96t-7.5 -119.5t2 -92.5q11 -39 30.5 -66t52 -59t50.5 -55q13 -16 34.5 -58t48 -72.5t68.5 -49.5q41 -18 94 -21t109 0.5
t80 0.5q23 -3 92 -28t111 -15q30 7 49.5 31t36.5 62.5t28 53.5q13 17 36.5 32t44 33t32.5 48q14 40 11 76t-24.5 60t-48.5 34.5t-62.5 -0.5t-65.5 -45q-24 -26 -42 -62.5t-27 -63t-29 -49t-50 -28.5q-53 -11 -88 -0.5t-77 41.5t-66 43q-33 16 -79.5 26t-77 20t-44.5 32
q-17 27 -18 58t6.5 55.5t15 57.5t4.5 58q-3 33 -25 65t-41 64t-18 68q1 40 37.5 67.5t88.5 51.5t71 44q14 16 29.5 46.5t30 60t34.5 59.5t52 52.5t73 31.5q103 22 212 -24t140 -125q20 -53 23 -116t2.5 -119.5t11.5 -90.5q15 -44 44 -72t76.5 -55.5t68.5 -44.5
q16 -12 50 -43.5t54 -46.5t57.5 -29.5t79.5 -13.5q43 1 91 23t89 51.5t80.5 58t77.5 44.5t68 9q34 -9 54 -34t25.5 -50.5t14.5 -56t22 -45.5q18 -20 57 -28.5t76 -9.5t80 -19.5t70 -57.5q28 -41 29 -75.5t-13.5 -68.5t-15.5 -46q-2 -20 12.5 -54.5t10.5 -58.5
q-6 -31 -45.5 -43t-83.5 -2q-21 5 -58 39.5t-61 40.5q-33 7 -69 5t-65.5 -6.5t-54.5 6.5t-38 44q-10 29 -5 46.5t19 37t29 35t26 41t10 55.5q-3 74 -63.5 97t-114.5 -27q-32 -30 -45 -65t-17 -83t-9 -67q-5 -20 -18.5 -46t-25 -48t-21 -45.5t-9 -46.5t13.5 -42
q20 -30 53.5 -40.5t67 -7.5t73 2.5t72.5 -9.5q34 -11 62 -37t56 -50t63 -32q29 -4 45 -5.5t39 5.5t37 13t38 16.5t43 17.5q25 9 64.5 12t68 11.5t50.5 34.5q26 32 28 75.5t-7.5 93t-8.5 68.5q2 26 20.5 47.5t42.5 53t35 76.5q13 59 -14 113.5t-80 82.5q-30 16 -65.5 19.5
t-61.5 0.5t-58.5 6.5t-60.5 37.5q-25 25 -31.5 76t-23.5 73q-11 15 -32.5 27.5t-38 20.5t-29.5 29t-13 54q0 77 67 121.5t140 11.5q32 -15 63 -51.5t52 -70.5t56.5 -64t78.5 -35q41 -5 71.5 14t43 49t10.5 64t-21 57q-23 29 -53.5 40.5t-67 20.5t-63.5 30q-18 15 -38.5 55.5
t-36.5 77.5t-47 66.5t-70 29.5q-36 0 -60.5 -23.5t-35 -53.5t-29 -65t-41.5 -51q-13 -10 -91 -39.5t-112 -72.5q-22 -27 -39 -84t-36.5 -100.5t-55.5 -55.5q-25 -15 -101 -1t-108 11q-21 -3 -47.5 -15t-44.5 -21.5t-44.5 -13t-47.5 10.5q-30 17 -40.5 42.5t-14 65.5t-9.5 60
q-5 15 -30.5 62.5t-32.5 93.5q-12 80 30 134t109 44q30 -4 55 -18.5t43 -33t34.5 -37.5t37.5 -36t45 -24q42 -11 77.5 -4.5t58 30t32 52t-1 62t-41.5 58.5q-23 19 -62 30t-71 22t-47 34q-32 49 10 92q40 40 103 37q51 -3 87 -38q48 -47 125 -60t119 23q31 28 34 99t13 89
q11 20 30.5 38.5t35.5 30.5t31 31t20 43q19 78 -16.5 138t-106.5 59q-29 -1 -53.5 -14.5t-39.5 -29.5t-37.5 -31.5t-47.5 -18.5q-23 -3 -50.5 5.5t-48 17.5t-51.5 6.5t-63 -25.5q-35 -24 -44.5 -66t-15 -73.5t-30.5 -38.5q-55 -15 -104.5 5.5t-53.5 76.5q-3 42 16.5 80.5
t48 66.5t55.5 53.5t40.5 51.5t1.5 51q-20 41 -68.5 51.5t-91.5 -4.5q-71 -20 -126.5 -94t-51.5 -183q2 -52 27.5 -98.5t58.5 -78t64.5 -59.5t48 -56.5t6.5 -55.5q-12 -32 -35.5 -47t-46 -16t-51 -3.5t-45.5 -11.5q-25 -13 -60 -54.5t-65 -45.5q-27 -4 -60 20.5t-59 57
t-57 63.5t-52 37q-41 12 -79.5 -6t-77.5 -49t-66 -39q-40 -11 -77 -7t-88.5 -0.5t-88.5 -25.5q-38 -23 -59 -71t-26.5 -94t-22 -89t-47.5 -57q-17 -13 -59 -3t-56 9q-18 -2 -46 -19t-50 -18q-21 -1 -71 20.5t-89 20.5q-42 -1 -87.5 -28.5t-78.5 -34.5q-27 -6 -69.5 4.5
t-82.5 3.5q-41 -8 -65 -36t-25.5 -58.5t17.5 -57t55 -32.5q36 -5 79.5 15t61.5 17q47 -7 62.5 -67t-4.5 -111q-8 -24 -58 -98t-53 -111q-3 -30 10.5 -86.5t7.5 -97.5q-6 -38 -31.5 -86.5t-29.5 -83.5q-2 -19 8 -64.5t9.5 -82t-25.5 -56.5t-57 -22t-58 6t-60.5 15.5
t-60.5 4.5q-62 -8 -89.5 -52.5t-9 -91t72.5 -58.5zM2351 1513q3 37 36 60.5t77 28.5q47 5 87 -11t40 -55q0 -21 -12.5 -31.5t-33.5 -18t-30 -16.5q-9 -8 -17.5 -28t-22 -31.5t-40.5 -11.5q-40 0 -63.5 34.5t-20.5 79.5z" />
    <glyph glyph-name="I_e_l" unicode="Iel" horiz-adv-x="2428" 
d="M2263 1499q-32 2 -62.5 -16.5t-52 -43t-51.5 -56.5t-55 -48q-28 -18 -90.5 -36.5t-106.5 -45.5q-47 -28 -65.5 -73.5t-9.5 -81.5t34 -45q13 -4 25 0.5t27.5 15t27.5 14.5q14 5 37 -2.5t49 0.5q20 7 35.5 25.5t38.5 54.5t41 60q30 39 56 14q25 -23 16 -72q-5 -21 -15 -39
q-3 -4 -60 -95.5t-92 -158.5t-42 -108q-7 -42 -2 -135t-9 -135q-7 -25 -36.5 -57t-34.5 -60q-4 -21 6.5 -62.5t16 -67.5t-10.5 -57q-18 -24 -56 -32.5t-84.5 -12.5t-70.5 -16q-37 -18 -55.5 -62t-6 -84.5t55.5 -48.5q41 -7 94 20t64 28q20 3 57.5 -0.5t60.5 0.5
q24 4 65.5 24t70.5 27t82.5 1.5t85.5 2.5q37 10 57 38t19.5 58.5t-21.5 57t-58 32.5q-23 4 -50.5 -2t-44.5 -13t-37.5 -8t-28.5 13q-16 31 -11.5 56t14.5 68.5t7 67.5q-2 16 -10.5 50t-11 53t0.5 57q9 49 44.5 115t71.5 126t44 91q8 32 10.5 80.5t10.5 73.5q13 37 65 96.5
t55 103.5q2 33 -19.5 73.5t-23.5 49.5q-1 14 -1.5 35t-0.5 40.5t-14.5 34.5t-44.5 17zM694 1315q-42 -1 -87.5 -29t-78.5 -35q-27 -6 -69.5 4.5t-81.5 4.5q-41 -8 -65 -36t-26 -59t17 -57.5t55 -32.5q36 -5 80 15.5t62 17.5q46 -7 60.5 -67.5t-3.5 -110.5
q-8 -25 -57.5 -98.5t-53.5 -110.5q-3 -30 11 -86.5t8 -97.5q-6 -38 -32 -86.5t-30 -83.5q-2 -19 8 -64.5t9.5 -82t-25.5 -56.5t-56.5 -22t-57.5 6t-60.5 15.5t-60.5 4.5q-47 -6 -75 -35t-31 -63t17.5 -65t61.5 -40q40 -8 85.5 2t88 21.5t72.5 5.5q19 -4 38 -20t42.5 -28.5
t58.5 -11.5q40 1 88.5 37.5t83.5 42.5q21 3 64 -16t77 -4q32 15 51 39t22 48.5t-3.5 47t-23 37.5t-37.5 16q-22 1 -60 -10.5t-66.5 -23t-60 -14.5t-41.5 16q-14 15 -11 48t12.5 61.5t19 65t8.5 58.5q-1 32 -21.5 89.5t-15.5 88.5t22 57.5t35 43.5t38 47.5t30 66.5
q8 30 5.5 77.5t-10 92t-5.5 88.5t20 66q16 19 42.5 20t53.5 -9t59 -13.5t60 6.5q40 16 59.5 45.5t18 58t-19.5 53.5t-47 33q-28 8 -61.5 -7t-49.5 -13q-15 2 -67 22t-93 19zM938 803q-9 -44 15.5 -74.5t68.5 -38.5q30 -5 55.5 -0.5t42.5 -1.5t17 -31q0 -23 -17.5 -52.5
t-35 -67t-17.5 -78.5q0 -73 42 -120.5t142 -47.5q45 0 81 21t59.5 51t45 60t49.5 52t62 23q28 1 61 -26.5t64 -27.5q43 0 76 32t33 95q0 65 -47 105.5t-107 40.5q-36 0 -76.5 -19t-73 -46t-67.5 -54t-62.5 -45.5t-54.5 -18t-47 26.5q-20 30 -12 57.5t37.5 65t69 72.5
t82.5 80.5t79 88.5t57.5 97t18.5 106q-5 78 -47 129.5t-111 51.5q-56 0 -100 -22t-70 -54t-43.5 -76.5t-24 -79.5t-9.5 -73q-4 -48 -27 -74t-54.5 -34t-63.5 -13.5t-58 -24t-33 -55.5zM1405 1139q18 -12 21.5 -38t-5.5 -54.5t-24 -53.5t-35 -38t-37 -5q-23 19 -14.5 67.5
t40 93t54.5 28.5z" />
    <glyph glyph-name="OE_U" unicode="&#x152;U" horiz-adv-x="3379" 
d="M84 121q19 -43 56 -69.5t70.5 -34.5t83.5 -17t73 -16q13 -4 64 -28.5t94 -32.5t98 1q33 5 66.5 30.5t61.5 57t56 62.5t60 53t63 23q32 0 54 -19.5t31.5 -44.5t24.5 -54t33 -42q35 -25 105 -34t82 -13t35 -18t51 -21.5t71 -5.5q83 3 178 58t162 150q62 88 62 168.5
t-47.5 115t-112.5 5.5q-33 -15 -54 -53t-32 -81t-24 -85t-40 -70.5t-69 -31.5q-29 -2 -54 12t-39 31.5t-31.5 42.5t-27.5 35q-22 22 -75.5 25.5t-79.5 12.5q-34 11 -53.5 59t-11 101.5t47.5 77.5q53 32 191 54.5t188 47.5q58 29 77 86.5t-2 101t-65 38.5q-43 -5 -94 -26.5
t-89.5 -43t-75.5 -38t-64.5 -11t-44.5 38.5q-19 36 -16.5 71.5t18 70t46 65t67 56t80.5 43t88 26.5t89 6t82 -19q31 -13 73 -42.5t75 -53t83 -40.5t103 -13q48 3 98.5 28.5t86 55t79.5 65.5t70 52q34 20 62 27.5t45 2t26 -18.5t7.5 -32.5t-13.5 -40.5q-15 -28 -58 -66
t-84.5 -69.5t-79 -78t-46.5 -91.5q-5 -26 -4 -86.5t-7 -114.5t-34 -96q-16 -25 -49.5 -63.5t-56 -65.5t-36.5 -66.5t-4 -78.5q11 -41 40 -61t66 -32t52 -26q12 -11 30 -41.5t39.5 -51t55.5 -24.5q36 -4 62.5 4.5t60 27.5t63.5 29q15 5 57.5 10t70 18.5t40.5 43.5q12 38 9 57
t-12 56.5t-9 64.5q0 54 28 90.5t56 28.5q20 -6 22.5 -31.5t-2.5 -50.5t4 -45q8 -16 29 -17.5t42.5 -3.5t31.5 -18q13 -13 0.5 -54t-4.5 -69q20 -62 76.5 -60.5t117.5 62.5q30 30 52.5 68.5t48.5 94.5t43 87q19 35 55 72t67.5 62.5t59 59t35.5 64.5q14 57 -10.5 86t-67 23
t-78.5 -41q-27 -26 -69 -89t-84.5 -116t-82.5 -74q-68 -35 -130 0t-56 103q3 39 39.5 88t86 108t71.5 105q32 68 49 154.5t39 132.5q13 27 42 63t47.5 72t20.5 84q2 50 -25.5 77t-66 26.5t-78.5 -22t-61 -59.5q-20 -36 -26.5 -120t-24.5 -117q-16 -29 -72 -94.5t-86 -118.5
q-35 -63 -58.5 -179t-45.5 -159q-14 -28 -45 -46t-66 -35t-53 -40q-17 -22 -22.5 -62.5t-16.5 -80t-43 -64.5q-27 -22 -56.5 -29t-54 0t-45 23.5t-31.5 38.5t-11 49.5t14 52.5q9 17 37 49t55.5 61t51.5 64t28 60q5 27 -7 73t-8 82q4 31 36.5 71.5t77 80.5t89 81.5t77 87.5
t36.5 87q3 36 -9.5 79t-13.5 58q-1 20 10.5 53t10.5 62q-2 40 -29.5 65.5t-67.5 24.5q-33 -1 -63.5 -23t-51 -49t-51 -59.5t-59.5 -48.5q-41 -23 -114.5 -43t-112.5 -37q-30 -13 -71 -44t-78.5 -46.5t-88.5 -10.5q-39 4 -77 30.5t-69 62t-62 70t-68 57.5t-74 22
q-44 -1 -79.5 -19t-53.5 -39t-39.5 -46t-36.5 -35q-30 -20 -88 -23t-82 -26q-16 -16 -24 -45.5t-10 -55t-17.5 -48t-46.5 -27.5q-23 -3 -43 9.5t-35 32t-31 39.5t-38.5 33t-49.5 10q-39 -4 -62.5 -22t-45.5 -52t-39 -50q-16 -15 -82 -45.5t-90 -65.5q-27 -40 -30.5 -83
t12 -73.5t49.5 -45t77 -3.5q47 12 74.5 44.5t35.5 66.5t21.5 76t34.5 65q40 45 96.5 17t75.5 -99q7 -34 1 -57t-21 -48.5t-31 -45.5t-29.5 -48t-15.5 -55q-2 -29 10 -71t23 -74t5 -73.5t-38 -76.5q-27 -29 -59.5 -45.5t-57 -20.5t-61.5 -8t-56 -8q-28 -6 -85 -31t-91 -22
q-25 3 -43 20t-38.5 48.5t-37.5 48.5q-6 6 -33 30t-38 37t-23.5 42t-13.5 63q-2 44 20.5 89.5t55 102t45.5 111.5q7 37 5.5 84t-6.5 88t10 90t54 90q34 35 71.5 50.5t69.5 14t70 -1.5t74 3q44 8 72 37.5t32.5 66t-5.5 71.5t-42.5 58t-77.5 21q-78 -3 -134.5 -32t-82.5 -63.5
t-61.5 -84t-63.5 -74.5q-21 -19 -74 -53.5t-88 -70.5t-55 -91q-18 -48 -18 -96t10.5 -83t18 -87.5t2.5 -102.5q-3 -36 -17 -103t-24 -117.5t-9 -112t21 -105.5z" />
    <glyph glyph-name="R_Y" unicode="RY" horiz-adv-x="2256" 
d="M1468 1047q-12 -36 -48 -86.5t-42 -77.5q-8 -22 -1 -84t3 -103q-3 -27 -16.5 -52t-27.5 -41.5t-23.5 -44t-5.5 -60.5q4 -37 22.5 -60t49 -43t40.5 -30t30 -46.5t45.5 -58.5t66.5 -22q33 0 60.5 15t51.5 30.5t45 17.5q36 3 57 -19t18.5 -56.5t-30.5 -63.5
q-24 -24 -88.5 -60.5t-89.5 -70.5q-20 -26 -39.5 -93t-56.5 -92q-16 -11 -35.5 -11.5t-40.5 7.5t-41 18.5t-45 21.5t-45 16q-18 4 -73 4.5t-88.5 11t-37.5 41.5q-3 32 26.5 55t68 35t76 34.5t46.5 51.5q17 55 -21 92.5t-99 22.5q-30 -8 -80.5 -51t-85.5 -48q-45 -7 -81 28.5
t-38 80.5q-1 19 10.5 91t1.5 120q-8 34 -36.5 65.5t-59 51t-60.5 48t-40 56.5q-13 39 6.5 60.5t54.5 13.5q19 -4 79 -41t95 -37q55 0 88 39t25 96q-6 41 -45.5 89.5t-44.5 78.5q-5 29 16 77.5t16 84.5q-9 56 -52 95.5t-99 39.5q-33 0 -105.5 -17.5t-105.5 -17.5
q-29 0 -72 19.5t-89.5 35t-90.5 7.5q-64 -12 -86 -61.5t-0.5 -94.5t64.5 -45q23 0 55 15t53 18q29 4 42.5 -20.5t2.5 -61.5q-5 -17 -28.5 -38.5t-50 -39t-53.5 -45t-38 -55.5q-15 -37 -11 -121.5t-7 -145.5q-13 -57 -59.5 -108.5t-57.5 -79.5q-9 -28 -8.5 -63t6 -65.5
t1.5 -63.5t-22 -56q-14 -17 -29 -24t-37.5 -12t-37.5 -11q-31 -13 -41.5 -45t-1 -63.5t40 -54.5t72.5 -19q38 3 68.5 19t55 32.5t46.5 20.5q34 6 92.5 -15t85.5 -16q53 9 75 46.5t12 77t-42 58.5q-20 11 -48 11t-54 -5.5t-48.5 0.5t-31.5 29q-8 21 1 40t25 32t32.5 32.5
t20.5 38.5q6 31 -1 97.5t6 97.5q23 68 74 102.5t83 -8.5q18 -26 18 -88t11 -94q14 -38 83.5 -135.5t92.5 -149.5q13 -28 23.5 -84t19 -104.5t31 -101.5t57.5 -83q40 -35 95.5 -49t105.5 -11t105 4.5t93 -1.5q30 -5 73.5 -18t72 -21.5t66.5 -6t73 22.5q36 20 61.5 58t37 74.5
t27.5 80.5t32 68q18 27 48.5 51t56 39t50.5 43.5t37 67.5q15 51 -3 137t-9 125q12 51 47 98t71.5 89t49.5 77q20 41 12.5 124t-0.5 118q8 36 26.5 62t38.5 40.5t44.5 38t40.5 51.5t19.5 56t-5 49t-25 37.5t-40.5 23t-50 5.5t-55.5 -15.5t-56.5 -40.5q-36 -34 -54.5 -85
t-21 -94.5t-6 -96t-12.5 -80.5q-15 -49 -56.5 -96.5t-54.5 -71.5q-17 -31 -25.5 -112t-40.5 -128q-32 -46 -84.5 -61.5t-100 -4t-82 44t-34.5 74.5q0 44 40.5 107t41.5 102q1 34 -15.5 96t-10.5 101q5 30 27.5 60.5t48.5 53t51.5 54t34.5 61.5q19 66 -13.5 110t-89.5 44
q-33 0 -64.5 -20.5t-64.5 -51.5t-55 -43q-33 -18 -108.5 -30t-108.5 -29q-53 -28 -68.5 -80t10.5 -91.5t78 -35.5q20 1 41.5 14.5t37 30t38.5 38t41 34.5q32 21 54 6t11 -51zM571 891q38 34 54 76q5 15 6 53t10 55q11 22 39.5 30.5t54.5 -1.5q22 -9 27 -44t8 -40
q8 -10 32 -16.5t32 -16.5q19 -23 13 -65.5t-32 -51.5q-24 -8 -70 5t-53 14q-24 1 -50 -12t-42 -29q-31 -28 -47 -13q-15 14 9 46z" />
    <glyph glyph-name="U_n" unicode="Un" horiz-adv-x="2455" 
d="M72 909q0 -137 118 -137q40 0 80.5 33.5t70.5 76.5t74 93t85 74q59 34 89.5 3.5t0.5 -85.5q-15 -28 -58 -66t-84.5 -69.5t-79 -78t-46.5 -91.5q-5 -26 -4.5 -86.5t-7.5 -114.5t-34 -96q-16 -25 -49 -63.5t-56 -66t-36.5 -67t-3.5 -78.5q11 -41 40 -61t66 -32t52 -26
q12 -11 30 -41t39.5 -50.5t55.5 -24.5q36 -4 62.5 4.5t60 27.5t63.5 29q15 5 57.5 10t70 18.5t40.5 43.5q12 38 9 57t-12 56.5t-9 64.5q0 54 28 90.5t56 28.5q20 -6 22.5 -31.5t-2.5 -50.5t4 -45q10 -20 51 -20t52 -19q13 -13 0.5 -54t-4.5 -69q12 -41 46.5 -57t76 0
t71.5 59q26 37 60 123.5t63 128.5q36 52 129.5 127.5t112.5 97.5q24 27 54.5 98t59.5 99q25 24 55.5 27t47.5 -19.5t4 -63.5q-11 -36 -51.5 -110t-46.5 -92q-12 -49 -11 -78t6.5 -68.5t4.5 -58.5q-5 -65 -95 -125q-35 -23 -54 -63t-6.5 -72.5t60.5 -32.5q29 0 56 15
t56.5 38.5t47.5 32.5q24 12 74 22.5t74 26.5q29 20 31.5 55t-23.5 64q-7 8 -30 26.5t-35 38t-15 50.5q-3 33 7.5 64t38.5 82t42 83q11 26 23.5 95.5t41.5 111.5q27 38 60 59.5t61 24t50.5 -12.5t29.5 -44q9 -35 -5 -75t-33 -82t-21 -71q-2 -31 14 -106.5t8 -120.5
q-6 -36 -23 -52.5t-52 -36.5t-64 -50q-30 -30 -37.5 -68t10 -64t52.5 -26q43 0 95 35t85 45q16 5 58.5 11.5t70.5 12.5t51 27.5t21 56.5q-2 37 -24.5 53.5t-49 24.5t-33.5 21q-7 21 -6 33t5 37.5t3 43.5q-1 21 -11.5 62.5t-10.5 70.5q0 23 21 59.5t47 70t48.5 74t25.5 71.5
t-22 63q-21 22 -68.5 27.5t-66.5 19.5q-15 11 -31 31t-26 34t-29 25t-43 11q-29 0 -58 -20t-50.5 -47t-41 -53t-37 -40t-30.5 -6t-13.5 21.5t7 27t14 35.5t4.5 41q-3 27 -25.5 42.5t-55 10.5t-60.5 -33q-23 -23 -57.5 -96.5t-57.5 -93.5q-25 -22 -120 -72.5t-142 -97.5
q-29 -29 -61.5 -83.5t-56.5 -101.5t-59.5 -92.5t-72.5 -62.5q-69 -32 -130.5 1.5t-55.5 100.5q3 31 27 69.5t54 71t64.5 78t51.5 82.5q32 68 49 154.5t39 132.5q13 27 42 63t47.5 72t20.5 84q3 66 -43 91t-103 4t-85 -72q-20 -36 -26.5 -120.5t-24.5 -117.5
q-16 -29 -72 -94.5t-86 -118.5q-35 -63 -58.5 -179t-45.5 -159q-14 -28 -45 -46t-66 -35t-53 -40q-17 -22 -22.5 -62t-16.5 -79.5t-43 -64.5q-32 -26 -68 -31t-62.5 9t-46.5 38t-21.5 56t13.5 63q11 19 53 64.5t78 91.5t41 77q5 27 -6.5 73.5t-7.5 82.5q4 31 36.5 71.5
t77 80t89 81t77 87.5t36.5 87q3 36 -9.5 80t-13.5 58q-1 20 10 52.5t10 61.5q-2 40 -29 65.5t-67 24.5q-33 -1 -65.5 -24t-54.5 -50.5t-48.5 -57.5t-44.5 -40q-32 -18 -135 -47t-154 -51q-72 -31 -116.5 -94.5t-44.5 -110.5z" />
    <glyph glyph-name="U_p" unicode="Up" horiz-adv-x="2396" 
d="M72 909q0 -137 118 -137q40 0 80.5 33.5t70.5 76.5t74 93t85 74q59 34 89.5 3.5t0.5 -85.5q-15 -28 -58 -66t-84.5 -69.5t-79 -78t-46.5 -91.5q-5 -26 -4.5 -86.5t-7.5 -114.5t-34 -96q-16 -25 -49 -63.5t-56 -66t-36.5 -67t-3.5 -78.5q11 -41 40 -61t66 -32t52 -26
q12 -11 30 -41t39.5 -50.5t55.5 -24.5q36 -4 62.5 4.5t60 27.5t63.5 29q17 6 47 10.5l50 7.5t40.5 16.5t30.5 37.5q12 38 9 57t-12 56.5t-9 64.5q0 54 28 90.5t56 28.5q20 -6 22.5 -31.5t-2.5 -50.5t4 -45q10 -20 51 -20t52 -19q14 -12 1.5 -53t-5.5 -70q8 -34 41 -48.5
t74.5 -4t70.5 44.5q33 38 66.5 143t58.5 137q21 26 79 68.5t81 79.5q22 34 38 90.5t31 73.5q23 26 63 33.5t54 19.5q18 16 38 44t39 46t48 22q34 5 53 -14.5t19 -71.5q0 -40 -16 -72t-39 -54.5l-46 -45t-39 -54.5t-16 -71t19 -107t16 -112q-4 -50 -14.5 -75.5t-27 -50
t-26.5 -58.5q-8 -27 -16 -90t-23 -90q-17 -30 -47 -51t-56 -30.5t-51 -28.5t-34 -48q-14 -47 15.5 -74t78.5 -22q36 4 72 20t60 30t69.5 23t99.5 -1q89 -14 145 26.5t56 85.5q0 41 -21 64.5t-57 25.5q-18 1 -52 -9.5t-57.5 -8t-40.5 30.5q-12 27 -8.5 42t20 35.5t34.5 37
t34.5 46t20.5 62.5q4 38 -11.5 102t-15.5 103q0 45 22.5 68.5t53.5 17.5q17 -3 35 -25t32 -45.5t39 -43t56 -19.5q26 0 45.5 12.5t33.5 34.5t23.5 44t20.5 50.5t20 44.5q13 22 35 46.5t32.5 47t10.5 62.5q0 52 -41.5 128.5t-46.5 114.5q-4 29 -1.5 73t-2.5 62
q-24 101 -99 101q-36 0 -59.5 -15.5t-43.5 -41.5t-30 -33q-18 -15 -37.5 -9t-25.5 35q-3 15 -3 68.5t-14 68.5q-19 35 -57 45t-74 -6.5t-49 -48.5q-13 -30 -24.5 -97.5t-30.5 -96.5q-21 -33 -82.5 -55.5t-79.5 -41.5q-21 -23 -41 -75.5t-37 -73.5q-14 -18 -72 -24t-81 -33
q-21 -25 -39 -89.5t-41.5 -120t-63.5 -75.5q-69 -35 -130.5 -0.5t-55.5 102.5q3 31 27 69.5t54 71t64.5 78t51.5 82.5q32 68 49 154.5t39 132.5q13 27 42 63t47.5 72t20.5 84q3 66 -43 91t-103 4t-85 -72q-20 -36 -26.5 -120.5t-24.5 -117.5q-16 -29 -72 -94.5t-86 -118.5
q-35 -63 -58.5 -179t-45.5 -159q-14 -28 -45 -46t-66 -35t-53 -40q-17 -22 -22.5 -62t-16.5 -79.5t-43 -64.5q-32 -26 -68 -31t-62.5 9t-46.5 38t-21.5 56t13.5 63q11 19 53 64.5t78 91.5t41 77q5 27 -6.5 73.5t-7.5 82.5q4 31 36.5 71.5t77 80t89 81t77 87.5t36.5 87
q3 36 -9.5 80t-13.5 58q-1 20 10 52.5t10 61.5q-2 40 -29 65.5t-67 24.5q-33 -1 -65.5 -24t-54.5 -50.5t-48.5 -57.5t-44.5 -40q-32 -18 -135 -47t-154 -51q-72 -31 -116.5 -94.5t-44.5 -110.5zM1911 748q-13 35 7 57.5t50 17.5q29 -5 48 -23.5t25.5 -38t15.5 -50.5t16 -47
q8 -18 28 -38.5t33.5 -44.5t15.5 -61q3 -51 -27.5 -86t-70.5 -35q-29 0 -56.5 38.5t-27.5 88.5q0 38 -10.5 83t-19 68.5t-27.5 70.5z" />
    <glyph glyph-name="W_h" unicode="Wh" horiz-adv-x="2506" 
d="M16 1141q21 -14 61 -15.5t70.5 -9t42.5 -37.5q10 -25 -4.5 -64.5t-36.5 -93.5t-24 -100q-3 -53 21.5 -119t21.5 -100q-2 -40 -37.5 -85.5t-44.5 -90.5q-6 -35 10.5 -64t35.5 -57.5t18 -58.5q-1 -32 -22 -78.5t-24 -89.5q-6 -92 53 -127.5t136 14.5q25 16 38.5 44.5
t18 55.5t17.5 59t36 52q23 21 53.5 31.5t60.5 26t58 49.5q36 41 59.5 105.5t41.5 138t31 104.5q16 36 45 47.5t53 -5.5t26 -55q2 -41 -14 -119.5t-25 -130t7 -114.5q11 -28 33 -43t43.5 -18t45.5 -12t37 -27t28.5 -77.5t45.5 -74.5q63 -31 117.5 11t67.5 114q5 28 5 126.5
t19 143.5q15 37 54.5 79t79 90.5t57.5 107.5q12 37 17.5 95.5t18 109.5t45.5 98q47 69 165 153q141 102 217 101q42 -2 49 -39q6 -36 -7.5 -61t-33.5 -37.5t-42 -32t-28 -41.5q-8 -26 -7.5 -103t-21.5 -108q-25 -48 -61 -85t-60 -81q-21 -39 -22.5 -80t7 -85.5t7.5 -63.5
q-3 -98 -30 -166.5t-60 -91.5q-24 -17 -84 -24.5t-94 -29.5q-38 -25 -52 -62.5t-4.5 -69.5t39 -54t70.5 -20q43 3 81.5 25t77 52.5t64.5 42.5q21 9 63 19t71 18t55 30.5t29 57.5q3 37 -13.5 56.5t-39.5 23t-45.5 12.5t-26.5 27q-7 28 27 69t40 56q8 24 5.5 52.5t-9.5 52.5
t0 47t33 36q26 14 70.5 -10.5t64.5 -23.5q24 1 50 26t45.5 44t35.5 9q15 -7 8 -31t-20.5 -47t-29 -51.5t-17.5 -44.5q-3 -20 7 -87t3 -97q-6 -28 -20 -43t-40 -29t-40 -26q-34 -29 -34 -63.5t24 -56.5t55 -19q23 2 62 21.5t58 21.5t64 -5.5t59 0.5q20 6 45 34.5t35 35.5
q6 4 40 18.5t50 36.5q17 29 19 63.5t-19 62t-55 24.5q-26 -2 -53.5 -23.5t-51 -39t-44.5 -13.5q-12 2 -15.5 14t-1 30t6.5 36.5t8.5 38.5t5.5 31q1 19 -8 50.5t-7 57.5q3 33 20.5 60.5t43 64t39.5 82.5q13 40 1.5 73t-37.5 48.5t-58.5 18.5t-63.5 -17q-19 -12 -45.5 -34
t-46 -38.5t-41 -29.5t-41.5 -12.5t-37 16.5q-16 15 -17 38t11 50t25.5 50t32 51t24.5 40q18 34 13.5 107.5t10.5 105.5q14 30 44.5 58t52.5 52t24 52q2 25 -6.5 42t-25.5 34t-23 26q-5 8 -15 27t-16.5 28.5t-22 18.5t-36.5 10q-34 1 -58 -22.5t-49.5 -60.5t-50.5 -54
q-29 -20 -65 -18t-61.5 10t-61.5 -6q-19 -9 -35.5 -29.5t-26 -40t-27.5 -36t-42 -19.5q-38 -4 -94 28.5t-85 32.5q-65 2 -103 -34t-21 -89q7 -19 31 -36t48 -27t43.5 -27.5t18.5 -38.5q-1 -24 -20.5 -46t-45 -38t-53 -44.5t-39.5 -63.5q-16 -40 -12 -121t-4 -109
q-8 -25 -30.5 -42.5t-49 -33.5t-37.5 -32q-13 -18 -17.5 -77.5t-19.5 -80.5q-24 -34 -54.5 -38t-52.5 18t-26 59q-6 47 13.5 101t37 104.5t6.5 95.5q-9 42 -27 68t-35.5 45.5t-23.5 44.5q-8 30 3 78.5t6 74.5q-8 40 -44 57.5t-76.5 6t-60.5 -46.5q-23 -43 -31 -113.5
t-26 -101.5q-14 -25 -71.5 -80.5t-75.5 -98.5q-15 -32 -22 -82t-21.5 -98t-49.5 -92q-28 -36 -72 -40t-75 26t-23 80q4 31 52.5 134.5t52.5 160.5q3 41 -14 96.5t-28 92.5t3 103q19 64 64 86.5t112 20.5q46 0 73 19t29 48q1 23 -10 36.5t-28 23.5t-23 20q-3 5 -12 36
t-25.5 45.5t-50.5 15.5q-24 1 -44.5 -11.5t-34 -28.5t-38 -31.5t-53.5 -19.5q-40 -7 -112 -0.5t-115 -3.5q-27 -6 -48 -26t-30 -43.5t-4 -48t26 -37.5z" />
    <glyph glyph-name="b_b" unicode="bb" horiz-adv-x="1638" 
d="M27 113q0 -55 37 -86t112 -31q34 0 65 18t53.5 43.5t42.5 50.5t40 41.5t39 14.5q30 -4 57 -22.5t46.5 -41.5l39 -46t44 -38.5t52.5 -15.5t52.5 25t50 61.5t43.5 50.5q19 15 58.5 24t60.5 27q29 25 49 69.5t32 88t26.5 84.5t40.5 66.5t65 25.5q25 0 46.5 -15.5t38.5 -37.5
t35.5 -44.5t47.5 -38t65 -15.5t61 28t47 73.5t37 62.5q10 11 35.5 26.5t47 28.5t38.5 37.5t17 54.5q0 33 -18.5 56t-49.5 48.5t-47 51.5q-10 15 -25 48.5t-30.5 49t-46.5 20.5q-28 5 -65 -19.5t-71.5 -51.5t-54.5 -27q-28 0 -45 22t-8 58q11 44 72 122.5t71 108.5
q13 39 11 112.5t1 100.5q4 24 32.5 62.5t23.5 66.5q-6 31 -51 43.5t-105.5 5t-120 -26t-100.5 -51t-41 -67.5t20.5 -57.5t51.5 -20.5q19 1 44.5 13.5t42.5 24t37 16.5t29 -9q16 -17 10.5 -43.5t-21 -51t-40.5 -57.5t-49 -63t-45.5 -68.5t-30.5 -72.5q-9 -56 -7.5 -77.5
t6.5 -74.5t3 -104q-3 -102 -66 -171.5t-120 -37.5q-18 11 -32 38.5t-22 53t-27 46t-48 20.5q-24 0 -51.5 -20t-48 -44.5t-46 -44.5t-45.5 -20q-35 0 -57.5 29t-9.5 73q15 54 91.5 153t88.5 138q34 107 14 215q-6 32 11.5 67.5t38 70t20.5 61.5q2 34 -16.5 53t-61.5 18
q-34 -2 -65.5 -20.5t-52 -39t-48 -36.5t-55.5 -14q-140 8 -145 -90q-3 -44 23 -72.5t65 -26.5q21 1 43 14.5t37 30t31 32t25 21t19 -2.5q15 -18 -7.5 -68t-61 -105.5t-78.5 -127.5t-51 -121q-12 -50 -13.5 -101t2 -127t2.5 -135q-3 -115 -56.5 -189.5t-115.5 -88.5
q-8 -2 -25.5 -5.5t-23.5 -5t-19 -5.5t-17.5 -7t-12.5 -9.5t-10.5 -14t-5 -18t-2.5 -23.5zM1249 664q1 46 38.5 75t76.5 29q38 0 60 -19.5t22 -58.5q0 -44 -35.5 -86t-77.5 -41q-36 1 -61 34.5t-23 66.5zM504 356q-3 62 50 119t112 57q18 0 30.5 -8.5t12.5 -23.5
q0 -7 -2.5 -25.5t-3 -30.5t3.5 -34q4 -15 20.5 -23.5t33.5 -13t30.5 -19t13.5 -39.5q0 -40 -49.5 -70t-100.5 -30q-56 0 -102 40.5t-49 100.5z" />
    <glyph glyph-name="c_h" unicode="ch" horiz-adv-x="1923" 
d="M397 811q-35 -17 -60 -51.5t-45.5 -77.5t-33.5 -59q-16 -21 -54.5 -45t-70.5 -50.5t-43 -62.5q-11 -25 -3 -86.5t5 -91.5q-3 -21 -14.5 -49.5t-21 -49t-15 -49.5t5.5 -51q11 -28 43.5 -43t75 -24.5t59.5 -18.5q5 -2 59.5 -41.5t98.5 -46.5q29 -5 58.5 8t51 31.5t54 32
t65.5 10.5q31 -3 51 -20t30.5 -39t20 -43.5t27 -37.5t43.5 -18q41 -3 90 17t66 22q23 3 76 -7.5t84 -8.5q40 3 68 23.5t37 48.5t5.5 56t-27 48.5t-59.5 23.5q-18 1 -45 -6t-50 -14.5t-45 -10.5t-35 7t-15 37q-3 36 28 65t71.5 46t86 44.5t64.5 57.5q14 22 18.5 65.5t5.5 83
t20 85.5t60 77q54 40 119 55.5t111 3.5q40 -11 50.5 -50.5t-9.5 -69.5q-10 -19 -44 -61t-42 -68q-7 -25 -1.5 -90t-9.5 -80q-11 -17 -28 -21.5t-42.5 -5t-43.5 -6.5q-35 -12 -55 -37t-20.5 -52.5t10.5 -53t37 -41t60 -13.5q49 3 128 44t98 46q30 8 85.5 8.5t90.5 8.5
q32 8 52.5 29t24.5 45.5t-1 48.5t-24.5 39.5t-47.5 15.5q-23 0 -57.5 -20.5t-60 -33.5t-36.5 -1q-13 15 0 42.5t35.5 63.5t26.5 59q4 26 4 80t4 78q3 18 29.5 68t29.5 92q5 52 -23.5 86.5t-80.5 34.5q-29 0 -63.5 -21.5t-49.5 -23.5q-20 -2 -52.5 10.5t-61.5 9.5
q-18 -2 -37 -14.5t-29 -23t-24.5 -14.5t-24.5 11q-18 20 8.5 71.5t65.5 117t41 104.5q1 24 -9 97.5t2 105.5q8 36 61 104t58 111q3 29 -14 73t-19 66q-4 32 -1 62t-7.5 56t-40.5 34q-28 8 -58.5 -14.5t-53 -55t-54 -64t-59.5 -36.5q-34 -6 -101 1.5t-87 -7.5
q-73 -32 -101 -97q-24 -57 7 -90q15 -16 42 -18q39 -3 115.5 34t99.5 35q43 -3 66 -46.5t10 -108.5q-9 -43 -48.5 -111.5t-45.5 -105.5q-2 -14 9 -65.5t-1 -86.5q-9 -33 -67 -91.5t-72 -96.5q-15 -41 0.5 -110.5t9.5 -96.5q-14 -65 -42.5 -101.5t-69.5 -64.5t-58 -49
q-26 -30 -46.5 -82t-40.5 -88.5t-52 -46.5q-28 -8 -54 2t-43.5 27.5t-47 32t-62.5 13.5q-28 -1 -58 -18.5t-50 -33t-53.5 -23t-69.5 11.5q-54 24 -72.5 86.5t-6 126t43.5 100.5q23 28 52.5 41.5t60 22.5t47.5 20q16 11 27.5 30t21 43.5t16.5 35.5q19 31 56.5 29.5
t43.5 -39.5q3 -18 5 -51t4 -52.5t11.5 -42t27.5 -35.5q41 -32 101.5 -15.5t67.5 67.5q5 30 -9 70.5t-15 47.5q-3 22 0 42.5t-1 44.5t-20 40q-18 18 -42.5 23.5t-63 7t-66.5 8.5q-20 5 -49.5 18.5t-50 22.5t-52.5 8.5t-65 -16.5z" />
    <glyph glyph-name="c_t" unicode="ct" horiz-adv-x="1646" 
d="M61 356q0 34 7 69.5t13.5 58t27 59t27.5 48t35 51.5t30 44q14 21 37 59t38.5 61t36.5 49t44 40t49 16q36 3 68 -14t61.5 -36t56.5 -19q33 0 87.5 34t86.5 39q37 5 88 -12.5t84 -11.5q35 6 67.5 40.5t57.5 43.5q27 9 45.5 5.5t38.5 -2t35 16.5q21 21 24 54.5t-4 82.5
t-6 72q2 67 57.5 102t106.5 5.5t43 -119.5q-3 -27 -15.5 -59.5t-23 -52t-16 -42.5t5.5 -32q14 -20 41.5 -17t51 15t55 23.5t52.5 8.5q55 -8 52 -65q-4 -57 -57 -110q-42 -42 -93 -50q-14 -2 -38 -3.5t-41 -2.5t-37.5 -6.5t-33.5 -15t-23.5 -29.5t-12.5 -49q-3 -39 17 -111
t18 -115q-2 -36 -36 -92.5t-55.5 -97t0.5 -53.5q27 -12 52 -1t58 39t61.5 56.5t62.5 52t61 25.5q47 4 66.5 -31.5t5 -87t-56.5 -92.5t-93.5 -54.5t-70.5 -25.5q-14 -9 -40.5 -38.5t-50 -55.5t-63.5 -44t-82 -12q-52 7 -79.5 42.5t-24.5 84.5q3 42 30 105.5t29 91.5
q2 23 -10.5 81.5t-9.5 94.5q4 41 44.5 125.5t45.5 122.5q5 34 -25 56.5t-82 16.5q-29 -4 -62.5 -23t-58.5 -39t-62 -36t-75 -16q-43 0 -100.5 23.5t-83.5 21.5q-29 -2 -60 -34.5t-53 -37.5q-20 -5 -61 6t-61 -4q-59 -30 -97.5 -127.5t-11.5 -187.5q22 -73 87.5 -132.5
t133.5 -49.5q45 7 86.5 40t66.5 69t55.5 66t57.5 31q49 3 74 -38t21.5 -93t-29.5 -84q-17 -22 -39 -32.5t-55.5 -19.5t-55.5 -19q-24 -11 -50.5 -33.5t-46 -41.5t-52.5 -34t-72 -16q-52 -1 -86 25t-63.5 72.5t-46.5 61.5q-14 13 -42 33t-49 37.5t-43 42t-34 59.5t-13 78z
" />
    <glyph glyph-name="d_e" unicode="de" horiz-adv-x="2064" 
d="M1153 1116q32 -7 62.5 5.5t47.5 36.5t24.5 52t-4.5 55t-42 42q-23 11 -51.5 13.5t-49 9t-36.5 28.5q-10 13 -22.5 49t-23.5 64.5t-35.5 48.5t-59.5 14q-43 -8 -65.5 -31.5t-27.5 -57t-3.5 -67.5t1 -74.5t-9.5 -66.5q-12 -37 -37 -65.5t-49 -62t-37 -87.5q-11 -58 -9 -113
t9.5 -98t-3 -74.5t-48.5 -42.5q-23 -6 -43 4.5t-36 30t-33 39.5t-40.5 32.5t-50.5 8.5q-50 -8 -83.5 -28t-49.5 -49.5t-24.5 -58t-18.5 -64t-22 -56.5q-13 -22 -36.5 -47t-46 -45.5t-43.5 -45t-33 -56t-11 -68.5q1 -34 23.5 -61t51 -47.5t35.5 -32.5q12 -19 16.5 -61.5
t20.5 -68.5q24 -38 64.5 -64t85.5 -19q28 5 64 36.5t63.5 64.5t58.5 54.5t53 11.5q16 -8 18 -42.5t-3 -72t7.5 -73.5t47.5 -47q36 -12 65.5 1t46 34.5t39.5 56t37 49.5q34 35 69.5 45t67 12.5t52.5 20.5q24 21 40 68t34 93t49 68q47 33 80 15t30 -70q-2 -23 -19 -53.5
t-33.5 -67.5t-16.5 -78q0 -73 42 -120t142 -47q45 0 81 21t59.5 50.5t45 60t49.5 52t62 22.5q28 1 61 -26t64 -27q43 0 75.5 32t32.5 95q0 65 -46.5 105.5t-106.5 40.5q-36 0 -76.5 -19t-73 -46t-67.5 -54t-62.5 -45.5t-54.5 -18t-47 26.5q-20 30 -12 57.5t37.5 65t69 72.5
t82.5 80.5t79 88.5t57.5 97t18.5 106q-5 78 -46.5 129t-111.5 51q-73 0 -119 -28t-66.5 -74t-31.5 -93t-25.5 -96.5t-36.5 -74.5q-42 -47 -132.5 -90t-117.5 -66q-39 -33 -71 -84t-63 -93.5t-74 -66.5q-59 -34 -104.5 -8t-35.5 94q8 53 61 130.5t66 132.5q15 64 13.5 155.5
t3.5 130.5q8 44 47 100t43 105q2 20 -7.5 55t-17.5 63.5t0 60.5t39 53q19 10 31 6t28 -20t29 -33.5t35 -34t45 -21.5zM1597 743q19 -10 23.5 -35.5t-5 -54t-24.5 -54t-35.5 -39t-37.5 -5.5q-16 7 -19 32t5.5 54t22.5 56t33.5 41t36.5 5zM541 612q39 0 72 -33t41 -78t-13 -93
q-16 -30 -67 -60.5t-70 -50.5q-16 -17 -20 -45.5t-1 -52.5t-3 -47t-27 -33q-42 -20 -88.5 8t-55.5 74q-5 25 4 48t23.5 46t17.5 41q3 19 0 58t8 55q9 20 38.5 34.5t41.5 30.5q9 12 24.5 41t31.5 43t43 14z" />
    <glyph glyph-name="d_e_s" unicode="des" horiz-adv-x="2732" 
d="M113 291q1 -34 23.5 -61t51 -47.5t35.5 -32.5q12 -19 16.5 -61.5t20.5 -68.5q24 -38 64.5 -64t85.5 -19q28 5 64 36.5t63.5 64.5t58.5 54.5t53 11.5q16 -8 18 -42.5t-3 -72t7.5 -73.5t47.5 -47q36 -12 65.5 1t46 34.5t39.5 56t37 49.5q34 35 69.5 45t67 12.5t52.5 20.5
q24 21 40 68t34 93t49 68q47 33 80 15t30 -70q-2 -23 -19 -53.5t-33.5 -67.5t-16.5 -78q0 -73 42 -120t142 -47q45 0 84 21t66.5 50.5t52.5 60t54.5 52t61.5 22.5q30 1 68.5 -29t52.5 -36q20 -8 83 -6.5t89 -14.5q20 -10 34.5 -37.5t24 -52t38.5 -44t77 -19.5q43 0 77.5 20
t51 43t34.5 52.5t26 37.5q20 21 60.5 23.5t53.5 7.5q76 30 76 166q0 100 -69 185t-191 124q-101 32 -147 117q-36 66 -15 112q16 36 62 31q25 -3 35 -22.5t9 -43t2 -48.5t15 -35q25 -15 46 -10.5t52 14t46 6.5q14 -3 39 -21t49 -18q54 0 82 43t14 96.5t-70 79.5
q-34 16 -95 2.5t-97 5.5q-23 12 -41 39t-29.5 51t-39.5 43t-71 19q-32 0 -54 -12t-33 -32.5t-17.5 -40.5t-12 -44.5t-10.5 -36.5q-8 -17 -23.5 -31.5t-30.5 -25.5t-29 -25.5t-21.5 -37.5t-5.5 -54q3 -42 24.5 -75t52 -53t72.5 -37t78.5 -25.5t79 -19.5t64.5 -19
q39 -14 62.5 -46.5t28 -69t-0.5 -71.5t-21 -59.5t-37 -28.5q-41 -9 -78.5 17t-64.5 26t-68.5 -27t-81.5 -18q-21 4 -38 25t-30.5 47t-30.5 52t-47.5 43.5t-72.5 17.5q-36 0 -78.5 -19t-78.5 -46t-74.5 -54t-69 -45.5t-59.5 -18t-49 26.5q-20 30 -12 57.5t37.5 65t69 72.5
t82.5 80.5t79 88.5t57.5 97t18.5 106q-5 78 -46.5 129t-111.5 51q-73 0 -119 -28t-66.5 -74t-31.5 -93t-25.5 -96.5t-36.5 -74.5q-42 -47 -132.5 -90t-117.5 -66q-39 -33 -71 -84t-63 -93.5t-74 -66.5q-59 -34 -104.5 -8t-35.5 94q8 53 61 130.5t66 132.5q15 64 13.5 155.5
t3.5 130.5q8 44 47 100t43 105q2 20 -7.5 55t-17.5 63.5t0 60.5t39 53q19 10 31 6t28 -20t29 -33.5t35 -34t45 -21.5q32 -7 62.5 5.5t47.5 36.5t24.5 52t-4.5 55t-42 42q-23 11 -51.5 13.5t-49 9t-36.5 28.5q-10 13 -22.5 49t-23.5 64.5t-35.5 48.5t-59.5 14
q-43 -8 -65.5 -31.5t-27.5 -57t-3.5 -67.5t1 -74.5t-9.5 -66.5q-12 -37 -37 -65.5t-49 -62t-37 -87.5q-11 -58 -9 -113t9.5 -98t-3 -74.5t-48.5 -42.5q-23 -6 -43 4.5t-36 30t-33 39.5t-40.5 32.5t-50.5 8.5q-50 -8 -83.5 -28t-49.5 -49.5t-24.5 -58t-18.5 -64t-22 -56.5
q-13 -22 -36.5 -47t-46 -45.5t-43.5 -45t-33 -56t-11 -68.5zM1518 555q-16 7 -19 32t5.5 54t22.5 56t33.5 41t36.5 5q19 -10 23.5 -35.5t-5 -54t-24.5 -54t-35.5 -39t-37.5 -5.5zM309 201q-5 25 4 48t23.5 46t17.5 41q3 19 0 58t8 55q9 20 38.5 34.5t41.5 30.5q9 12 24.5 41
t31.5 43t43 14q39 0 72 -33t41 -78t-13 -93q-16 -30 -67 -60.5t-70 -50.5q-16 -17 -20 -45.5t-1 -52.5t-3 -47t-27 -33q-42 -20 -88.5 8t-55.5 74z" />
    <glyph glyph-name="e_a_u" unicode="eau" horiz-adv-x="2635" 
d="M139 754q1 -40 22 -84t19 -84q-2 -27 -24.5 -82.5t-20.5 -110.5q4 -98 65 -150.5t148 -49.5q44 2 160 40t172 31q33 -4 54.5 -32t34.5 -65.5t28.5 -73.5t48.5 -60.5t84 -22.5q55 3 97.5 24t74.5 41t61 21q32 1 55 -15.5t46.5 -33t56.5 -14.5q36 1 58.5 25.5t31.5 56
t28.5 74.5t45.5 71q74 77 126 78q41 -2 42 -55q0 -23 -20.5 -56t-20.5 -59q0 -25 26.5 -59t26.5 -62q0 -178 55 -223q27 -23 62 -38.5t75.5 -20t73.5 13.5q21 11 35.5 31t20.5 39t15 52t17 54q16 43 57 86.5t54 67.5q12 23 19.5 86.5t21.5 87.5q27 47 57 23q29 -23 29 -76
v-5q-1 -43 -44.5 -138t-51.5 -130q-12 -58 20 -89.5t84 -8.5q30 13 48 50t37 89.5t44 85.5q16 21 48 46t55 42.5t40.5 49t16.5 69.5q-2 47 -25 62.5t-52.5 3.5t-57.5 -42q-37 -38 -66 -16.5t-18 63.5q34 116 24 183q-5 36 -18 58.5t-33.5 44.5t-30.5 38q-10 15 -22.5 54
t-29 60.5t-46.5 20.5q-51 -1 -85 -46.5t-34 -92.5q0 -33 22.5 -94t22.5 -99q0 -29 -44.5 -105t-47.5 -126q-2 -31 -11.5 -78t-27 -101.5t-48.5 -87.5t-68 -24t-47.5 39.5t-2.5 63t16.5 72.5t4.5 59q-6 34 -38 71.5t-34 65.5q-3 54 26 138t32 116q7 62 -15.5 97.5t-81.5 27.5
q-29 -4 -66.5 -46t-75 -97t-76 -107.5t-81 -82t-78.5 -15.5q-24 9 -28 39t4 63t19 76t12 65q1 29 -21.5 59.5t-23.5 57.5q-1 28 15.5 81.5t18.5 86.5q1 28 -3 51.5t-15 46t-34.5 34.5t-57.5 11t-58.5 -24.5t-37.5 -52.5t-35.5 -56t-51.5 -33q-81 -16 -120.5 -41t-38.5 -81
q1 -46 39.5 -73.5t97.5 -25.5q34 1 68 25.5t57 40.5t39 2q13 -10 6 -30.5t-20.5 -38t-26.5 -42.5t-12 -45q1 -17 12 -43t24 -48t24 -46.5t12 -39t-13 -23.5q-15 -8 -35.5 14.5t-44.5 61t-51.5 77.5t-65 67t-75.5 27t-78.5 -20t-73 -46.5t-72.5 -59t-77.5 -57t-87.5 -40.5
t-103 -10q-58 5 -89 50t-28.5 99t33.5 88q20 23 50.5 19.5t56 -18.5t57.5 -26t53 -3q29 11 40.5 30.5t18 48t19.5 46.5q11 15 27.5 31.5l26.5 26.5t17.5 27.5t6.5 39.5q-1 27 -17 41.5t-36.5 18.5t-48.5 15t-46 31q-11 12 -16 44t-8 60.5t-25 50.5t-65 21t-69.5 -22.5
t-36 -48t-23 -63t-29.5 -56.5q-17 -22 -47.5 -41.5t-53.5 -32t-40.5 -38.5t-16.5 -64zM401 903q43 7 91.5 -34t56.5 -85q13 -68 -35 -71q-14 -2 -26 9t-28.5 29.5t-31.5 28.5q-15 9 -37 11.5t-35.5 9t-17.5 26.5q-6 26 13.5 48t49.5 28zM950 465q21 -8 22.5 -31.5t1.5 -51
t17 -40.5q15 -11 38 -13t41 -0.5t33 -8t19 -33.5q10 -48 -29 -75t-106 -30q-56 -1 -86.5 26t-34.5 62q-7 38 1.5 88.5t31 84.5t51.5 22z" />
    <glyph glyph-name="e_d" unicode="ed" horiz-adv-x="2099" 
d="M74 580q-9 -44 15.5 -74.5t68.5 -38.5q30 -5 55 -0.5t42 -1.5t17 -31q0 -23 -17 -52.5t-34.5 -67t-17.5 -78.5q0 -73 42 -120.5t142 -47.5q45 0 88 23t78.5 56t71 67t81 60.5t93.5 30.5q46 4 80.5 -21.5t58.5 -65.5t49 -80.5t65 -69.5t93 -29q31 0 61.5 20t51.5 46
t46.5 50t46.5 33.5t52 -4.5q29 -16 33.5 -49t-4 -64.5t-5 -63.5t30.5 -46q23 -12 52 4t54 43.5t63 65t69 57.5q25 16 86 37t78 41q23 32 23 64.5t-28.5 52t-72.5 8.5q-18 -4 -42.5 -16t-44 -22.5t-39.5 -18.5t-37.5 -6t-29.5 16t-12.5 32.5t7.5 36.5t21.5 40t27.5 40
t27 38.5t19 35.5q14 39 9 136t4 128q12 35 50 80.5t40 87.5q1 25 -7.5 64t-16.5 67.5t-5 53.5t23 32q16 5 27.5 -13.5t18.5 -46t20.5 -58.5t31.5 -44q22 -16 49.5 -16t50 13t36 38.5t9.5 57.5q-6 40 -62.5 100.5t-66.5 81.5q-15 31 -17 92.5t-13 85.5q-20 46 -74.5 46.5
t-85.5 -46.5q-24 -39 -40.5 -147.5t-31.5 -143.5q-9 -21 -62 -107.5t-61 -144.5q-4 -26 0.5 -79t9.5 -104t6.5 -100t-10 -79.5t-38.5 -30.5q-31 0 -42.5 25.5t-10.5 65.5t1.5 82.5t-15 82.5t-52.5 59q-24 13 -47 14.5t-41.5 -5.5t-38.5 -20t-35 -26t-33.5 -27.5t-32.5 -21.5
q-24 -12 -71 -20.5t-78 -28.5q-29 -18 -47 -65t-33.5 -91.5t-38.5 -58.5q-20 -11 -69 -3t-95 -3q-23 -7 -52.5 -27t-56 -42.5t-56.5 -44.5t-55 -35.5t-49 -11t-42 25.5q-20 30 -12 57.5t37.5 65t69 72.5t82.5 80.5t79 88.5t57.5 97t18.5 106q-5 78 -46.5 129t-111.5 51
q-69 0 -119.5 -31.5t-76 -83t-37 -96.5t-15.5 -94q-4 -48 -27 -74t-54.5 -33.5t-63 -13t-57.5 -24t-33 -55.5zM461 727q-23 19 -14.5 67t40 92.5t54.5 28.5q18 -12 21.5 -38t-5.5 -54t-24 -53t-35 -38t-37 -5zM1028 483q-6 48 30 95.5t89 48.5q30 1 45.5 -11t30 -37.5
t26.5 -37.5q10 -10 35 -30t42 -38.5t28 -44.5q13 -30 -4.5 -73t-54.5 -76.5t-84.5 -51t-94.5 3.5q-26 11 -33.5 32t-7 53.5t-2.5 45.5q-3 16 -22.5 55t-22.5 66z" />
    <glyph glyph-name="e_n_t" unicode="ent" horiz-adv-x="2736" 
d="M2396 1485q-46 1 -66.5 -30t-20.5 -72t-4 -97t-19 -88q-5 -11 -14 -18.5t-24.5 -11t-24.5 -5t-31.5 -3t-28.5 -1.5q-66 -6 -85 -63q-16 -46 8 -80q16 -20 38 -21q54 0 86.5 -17.5t32.5 -41.5q0 -43 -15 -74t-34 -44.5t-40.5 -32t-29.5 -35.5q-9 -21 -13 -81.5t-18 -99.5
q-8 -21 -32.5 -43t-47 -38.5t-37 -47t-6.5 -69.5q7 -35 31.5 -55t52.5 -25t69 -15t68 -24q21 -11 40 -33.5t31 -41.5t37.5 -33.5t61.5 -14.5q39 0 66.5 23t38 50.5t21.5 63t18 47.5q9 16 36 33.5t46.5 38t19.5 51.5q0 40 -41.5 55t-81.5 -12q-30 -21 -74 -37.5t-86 -24
t-72 5.5t-30 48q0 46 21 90.5t54 95.5t48 86q16 38 39 134.5t49 128.5q21 25 43.5 30.5t56.5 6t64 10.5q46 16 74 66q28 54 1 83q-14 15 -44 17q-21 1 -46.5 -4.5t-43 -11t-36.5 -4.5t-32 13q-14 12 -14.5 45t4 70t5.5 73t-15.5 60t-53.5 25zM63 518q-9 -44 15 -73.5
t69 -38.5q30 -5 55.5 -0.5t42.5 -1.5t17 -31q0 -23 -17 -53t-34.5 -67.5t-17.5 -78.5q0 -73 42 -120.5t142 -47.5q45 0 81 21t59.5 51t45 60t49.5 52t62 23q28 1 61 -26t64 -27q43 0 75.5 32t32.5 95q0 65 -46.5 105t-106.5 40q-36 0 -76.5 -19t-73 -46t-67.5 -54
t-62.5 -45.5t-54.5 -18t-47 26.5q-18 21 -13 50t26 56t53.5 61.5t69.5 67.5t73 73.5t65 79.5t45 86.5t13 93.5q-5 78 -46.5 129t-111.5 51q-56 0 -100 -22t-69.5 -54t-43.5 -76.5t-24.5 -79.5t-10.5 -73q-4 -48 -27.5 -74t-55 -34t-63.5 -13.5t-57.5 -24t-32.5 -55.5z
M1155 780q-18 -15 -44.5 -28t-46.5 -21t-38.5 -20t-27 -31.5t-5.5 -48.5q4 -40 48 -55t79 8q37 23 69.5 31.5t43.5 -3.5q15 -22 -4.5 -72.5t-53.5 -111t-40 -78.5q-10 -29 -12.5 -60.5t-0.5 -51.5t7 -51.5t6 -41.5q3 -27 -26.5 -63t-68.5 -62q-35 -23 -54 -62.5t-6.5 -72
t60.5 -32.5q29 0 56 13t57 35t47 31q21 10 51 16.5t48.5 10.5t37 23.5t27.5 56.5q8 38 3 58.5t-19.5 36.5t-29.5 25.5t-27.5 25.5t-14.5 36q-3 33 7.5 64t38.5 83t42 83q11 26 24 95t42 111q27 38 59.5 59.5t61 24t50.5 -12.5t29 -44q11 -44 -24 -120t-35 -107
q0 -19 11.5 -86.5t2.5 -120.5q-6 -37 -21 -58t-53 -51t-63 -55q-54 -56 -43 -105t74 -49q43 0 95 35t85 45q16 5 58.5 11.5t70.5 13t51 28t21 56.5q-2 33 -21 53.5t-39.5 27.5t-35.5 23t-11 43q7 46 -6.5 102.5t-13.5 86.5q0 12 8.5 30t18 32t29.5 42t30 43q15 22 27 48
t20.5 55t6 55.5t-19.5 42.5q-29 28 -71 28t-64 19q-15 13 -36 42t-41.5 43.5t-51.5 14.5q-36 0 -73 -27t-62 -58.5t-50 -55t-40 -18.5q-13 5 -2.5 35.5t19 61.5t-24.5 56q-29 19 -68.5 -2.5t-66.5 -64.5q-4 -6 -18.5 -32t-25 -41.5t-22.5 -25.5zM530 854q18 -12 21.5 -38
t-5.5 -54t-23.5 -53t-34.5 -38t-37 -5q-23 19 -15.5 67t39 92t55.5 29z" />
    <glyph glyph-name="e_s" unicode="es" horiz-adv-x="1837" 
d="M84 518q-9 -44 15 -73.5t69 -38.5q30 -5 55.5 -0.5t42.5 -1.5t17 -31q0 -23 -17.5 -53t-35 -67.5t-17.5 -78.5q0 -73 42 -120.5t142 -47.5q45 0 83 26t65 62.5l54 73t63 62.5t79 26q37 0 68.5 -13t49.5 -29t42.5 -34.5t46.5 -25.5q36 -12 114.5 -9t100.5 -12
q20 -10 34.5 -43t24 -64t38.5 -56t77 -25q43 0 77.5 20t51 43t34.5 52.5t26 37.5q20 21 60.5 23.5t53.5 7.5q76 30 76 166q0 100 -69 185t-191 124q-101 32 -147 117q-36 66 -15 112q16 36 62 31q25 -3 35 -22.5t9 -43t2 -48.5t15 -35q13 -11 34 -12t39 4.5t39.5 11.5
t31.5 6q14 0 23.5 -9.5t21.5 -19.5t34 -10q40 0 68 25t35.5 59t-9.5 72.5t-59 62.5q-29 17 -63.5 11t-57.5 -15.5t-55 4.5q-23 12 -38 33.5t-23.5 42.5t-21 40.5t-40.5 31.5t-73 12q-39 0 -64 -12t-34.5 -32.5t-13.5 -40.5t-7 -44.5t-8 -36.5q-9 -20 -30.5 -38.5t-39.5 -31
t-31 -39.5t-10 -65q3 -42 24.5 -75t52 -53t72.5 -37t78.5 -25.5t79 -19.5t64.5 -19q39 -14 62.5 -46.5t28 -69t-0.5 -71.5t-21 -59.5t-37 -28.5q-41 -9 -78.5 17t-64.5 26q-25 0 -50.5 -13.5t-38 -21t-42.5 1.5q-22 10 -34.5 31t-16.5 42t-19 43t-41 32q-34 14 -90 -1
t-82 -11q-33 6 -73 41.5t-78 35.5q-36 0 -75.5 -20t-70.5 -48t-64.5 -57t-58.5 -48t-52.5 -20.5t-45.5 25.5q-18 21 -13 50t26 56t53.5 61.5t69.5 67.5t73 73.5t65 79.5t45 86.5t13 93.5q-5 78 -46.5 129t-111.5 51q-56 0 -100 -22t-69.5 -54t-43.5 -76.5t-24.5 -79.5
t-10.5 -73q-4 -48 -27 -74t-54.5 -34t-63.5 -13.5t-57.5 -24t-32.5 -55.5zM551 854q18 -12 21.5 -38t-5.5 -54t-24 -53t-35 -38t-37 -5q-23 19 -15 67t39.5 92t55.5 29z" />
    <glyph glyph-name="e_s_t" unicode="est" horiz-adv-x="2549" 
d="M74 436q7 37 33 55.5t57.5 24t63 13.5t54.5 34t27 74q4 49 15.5 94t37 96.5t76 83t119.5 31.5q70 0 111.5 -51t46.5 -129q3 -52 -18.5 -106t-57.5 -97t-79 -88.5t-82.5 -80.5t-69 -72.5t-37.5 -65t12 -57.5q23 -30 50 -31t53 19t58 49.5t61.5 58.5t67 49.5t72.5 19.5
q36 -1 62.5 -14.5t40 -31t31.5 -37.5t36 -29q29 -15 99.5 -10.5t99.5 -16.5q13 -8 33.5 -30t35 -37.5t37.5 -27t40 0.5q48 23 57 77t-17 95q-12 24 -52 51.5t-48 55.5q-5 18 -3 38t7 36t1.5 35t-19.5 36q-12 13 -34.5 20.5t-42 10.5t-38.5 16t-27 37q-6 28 -5 46t13.5 40
t24.5 36t28 34.5t25 35.5q14 25 20.5 77t20.5 87t52 43q37 8 75 -14t74 -50t60 -30q27 -2 74 18t67 23q27 3 83 -4t73 -6q23 1 39 21.5t32.5 47.5t36.5 37q17 9 69.5 12t78.5 27q22 20 40 76.5t29.5 112t36.5 105t61 60.5q55 16 90 -16t35 -82q0 -32 -37.5 -99t-37.5 -91
q0 -26 13 -43t38 -17q15 0 65 27t84 27q107 0 107 -103q0 -47 -36 -90.5t-91 -52.5q-39 -6 -82 -2.5t-93 -7t-77 -39.5q-17 -18 -20 -48t3 -60.5t9.5 -66.5t-0.5 -67q-4 -23 -19.5 -58t-34 -68t-37 -70.5t-30.5 -68.5t-11 -58t19 -42q11 -9 23.5 -10t24.5 5.5t23 14.5
t23.5 18.5t20.5 14.5q13 7 38.5 11.5t39.5 15.5q18 14 32 51t23.5 70t35 57t64.5 19q58 -7 77.5 -71.5t-0.5 -135.5t-62 -98t-107 -43.5t-94 -30.5q-24 -12 -44 -42t-32.5 -57.5t-37 -49.5t-58.5 -23q-73 -1 -127.5 72.5t-54.5 162.5q0 33 39.5 99t46.5 110q5 31 -8 85.5
t-13 88.5q0 32 14.5 69t32.5 65t33.5 60t18 53t-14.5 44q-17 22 -56.5 12t-82.5 -51q-93 -89 -203 -94q-38 -1 -78.5 12.5t-55 22t-54.5 33.5q-31 18 -67 11t-60.5 -32.5t-37.5 -61.5t1 -75q8 -22 37 -52t34 -38q7 -14 15 -51.5t22 -53.5t59.5 -24t67.5 -33q14 -16 15 -38
t-6.5 -40t-15 -40t-7.5 -34q0 -15 16 -56t7 -71q-10 -30 -38.5 -48t-64 -32.5t-51.5 -29.5q-12 -11 -29 -48t-41.5 -62t-66.5 -25q-39 0 -70 24t-47.5 53.5t-41 59.5t-50.5 39q-32 10 -81 -10t-83 -13q-24 5 -72.5 37t-87.5 29q-20 -2 -44 -22.5t-49 -49t-54.5 -56.5
t-70.5 -47.5t-87 -19.5q-100 0 -142 47.5t-42 120.5q0 41 17 78.5t34.5 67.5t17.5 53q0 25 -17 31t-42 1.5t-55 0.5q-45 8 -69 38t-15 74zM516 729q-18 11 -41 -27t-27 -77.5t15 -53.5q14 -5 28 7t23.5 34t14.5 46t2 44t-15 27z" />
    <glyph glyph-name="f_f" unicode="ff" horiz-adv-x="1802" 
d="M842 1366q-23 -4 -71 17.5t-81 21.5q-50 0 -85.5 -30t-35.5 -70q0 -24 9 -71t6 -77q-4 -37 -42.5 -80.5t-49.5 -77.5q-11 -30 7 -95t-3 -93q-16 -27 -43.5 -27.5t-68.5 12.5t-62 13q-44 0 -70.5 -38t-18 -84.5t53.5 -65.5q22 -8 45 -6.5t41.5 8t36 2t28.5 -24.5
q14 -29 -2 -66t-41.5 -80t-27.5 -75q-2 -25 4.5 -62t14 -67t7 -67.5t-13.5 -67.5q-15 -33 -46.5 -42t-69 -4t-85.5 -6q-45 -10 -69 -38.5t-23.5 -58.5t19.5 -56t51 -33q29 -6 54.5 1.5t48 19t38.5 12.5q26 1 71 -18t74 -15q26 3 45.5 22.5t34 39.5t29.5 24q20 5 63 -5t66 3
q30 14 44 43t11 58.5t-21.5 53.5t-47.5 29q-18 3 -39.5 -2t-36 -11.5t-30 -5.5t-25.5 15q-17 18 -7 53.5t27.5 65.5t36.5 70.5t22 68.5q3 26 -7.5 62t-22 61.5t-14.5 54.5t14 41q21 19 73.5 -1.5t77.5 -14.5q21 5 43 36.5t41 37.5q21 6 49 -8t43 -11t41 23.5t45 24.5
q41 10 69.5 -16.5t18.5 -76.5q-8 -38 -52.5 -115t-51.5 -112t10 -121.5t2 -122.5q-13 -29 -36 -46t-45 -23t-49.5 -19t-45.5 -33q-24 -27 -26.5 -60.5t12.5 -58.5t45.5 -39.5t66.5 -8.5q25 5 51.5 25t47 42.5t49 42.5t55.5 25q26 5 104.5 -6t118.5 6q44 15 57 59t-7 84
t-60 45q-22 3 -51.5 -2.5t-51 -11.5t-43 -3.5t-32.5 19.5q-19 23 -12 57.5t21.5 59.5t33.5 60.5t23 60.5q4 36 3.5 85t-3 93.5t11.5 80t47 44.5q30 7 81.5 -20t90.5 -27q38 0 61.5 29.5t26.5 67t-17.5 74.5t-60.5 50q-20 5 -50.5 0.5t-58.5 -12.5t-54 -6.5t-37 18.5
q-18 23 -8 54.5t28 55t38 52t23 45.5q4 20 -6 66.5t-4 76.5q8 37 41.5 53.5t71.5 7.5t57 -38q20 -31 21 -99.5t12 -99.5q21 -61 74.5 -71t97 25t39.5 89q-3 37 -22.5 67t-43 56t-30.5 47q-8 28 -2.5 56t5 61.5t-17.5 50.5q-13 13 -34 15t-39 -3.5t-40 -11.5t-34 -6
q-19 0 -55.5 21.5t-71.5 15.5q-22 -3 -45 -21t-39.5 -37.5t-41 -36.5t-50.5 -18q-43 -2 -107.5 34.5t-97.5 35.5q-36 -1 -75 -33.5t-62 -36.5zM803 1227q22 -6 53.5 -33t56.5 -27q33 0 81 36.5t61 41.5q41 15 75.5 -9t36.5 -67q1 -40 -29 -90.5t-34 -72.5q-3 -16 2.5 -51.5
t4 -63t-18.5 -39.5q-18 -15 -44.5 -12t-46 13.5t-47 20.5t-49.5 9q-32 -2 -81 -38t-74 -44q-43 -13 -75 7.5t-28 65.5q2 26 38 71t42 71q5 23 -4 73t-10 56q-3 41 22 68t68 14z" />
    <glyph glyph-name="f_i" unicode="fi" horiz-adv-x="1548" 
d="M145 -174q-39 1 -53.5 45.5t6.5 96.5t72 71q16 7 49.5 14.5t58.5 13.5t51 24.5t40 47.5q16 34 17.5 69.5t-4.5 81.5t-5 77q1 27 13 61.5t24 59.5t18 58.5t-6 59.5q-10 25 -33.5 29t-62 -2.5t-56.5 -5.5q-57 4 -67.5 45t20.5 84.5t76 54.5q37 8 67.5 2.5t61.5 -4.5t47 18
q16 16 17 41.5t-6 51.5t-10.5 57t3.5 59q8 29 43.5 60.5t44.5 58.5q7 21 7.5 61t0.5 72t15 66t49 53q37 16 57.5 11t53.5 -15.5t57 -7.5q39 5 87.5 33.5t64.5 33.5q44 14 78.5 -4t43.5 -61q5 -26 3.5 -45t-1 -37.5t8.5 -30.5q10 -15 39.5 -26t44.5 -27q9 -9 22 -45t39 -47
q21 -10 49.5 6.5t58.5 36.5t50 18q16 -2 28 -9.5t19.5 -18.5t12.5 -21t10 -24t8 -19q3 -7 22.5 -34t26.5 -50q9 -37 -11 -68.5t-57 -35.5q-23 -2 -53 12t-45 16q-15 1 -44 -2.5t-53.5 -3.5t-39.5 10q-22 14 -32.5 57t-31.5 60q-20 17 -77.5 24t-84.5 33q-22 21 -38 59.5
t-27 55.5q-22 34 -62 41t-71 -18q-30 -24 -38.5 -55.5t-10 -73t-11.5 -68.5q-7 -17 -20.5 -37t-24.5 -33t-21 -30.5t-9.5 -30t10.5 -31.5q14 -20 36 -21.5t43 8t50.5 17.5t52.5 4q58 -11 72 -56.5t-12.5 -92.5t-73.5 -62q-35 -11 -80 -10.5t-77.5 0.5t-47.5 -12
q-16 -13 -19.5 -31t0.5 -35.5t0 -40.5q-3 -20 -31 -73.5t-32 -89.5q-3 -24 7 -53t7 -58q-2 -17 -10 -38.5t-14 -35t-5.5 -30.5t11.5 -33q7 -16 31.5 -11.5t47.5 17t56 22.5t57 5q47 -11 73 -35t27 -50t-16 -50.5t-47 -36.5q-20 -7 -82 -15.5t-92 -23.5q-24 -12 -64.5 -46.5
t-82.5 -52.5q-41 -14 -58.5 -11t-50 8.5t-63.5 0.5q-22 -3 -66.5 -30.5t-75.5 -26.5zM1047 725q-33 -23 -34 -56t24.5 -57.5t64.5 -27.5q83 -6 145 63q22 24 43 3q22 -24 11 -63q-3 -11 -9 -20t-37 -54t-48.5 -80.5t-22.5 -72.5q-5 -38 0 -70t2 -75t-21 -76
q-13 -24 -37.5 -37t-48.5 -17.5t-56.5 -22.5t-57.5 -50q-35 -43 -14 -85t79 -36q41 4 79.5 36t66.5 38q30 7 91 -8.5t95 -17.5q67 -3 107.5 20t41.5 68q1 35 -17 53t-48 18q-87 0 -109 39q-17 29 1.5 65t47.5 78t31 74q2 21 -7.5 83t-4.5 91q6 30 38.5 81t35.5 83
q5 47 -19.5 83t-64.5 36t-95 -24.5t-71 -28.5q-18 -4 -84 -6.5t-98 -26.5z" />
    <glyph glyph-name="f_l" unicode="fl" horiz-adv-x="1695" 
d="M145 -174q-39 1 -53.5 45.5t6.5 96.5t72 71q20 8 68.5 11t86 16.5t54.5 50.5q13 26 14.5 59t-3 61t-9.5 65t-4 65q1 33 24 78t38.5 85.5t2.5 75.5q-10 24 -36 26.5t-67 -3.5t-65 -2q-50 9 -63.5 49t9 80t65.5 51q46 12 80.5 7t66 -4.5t47.5 17.5q16 16 17 41.5t-6 51.5
t-10.5 57t3.5 59q8 29 43.5 60.5t44.5 58.5q7 22 8.5 60t2 68.5t15.5 65.5t46 58q27 20 61 24.5t58.5 0t52.5 0.5q14 2 38.5 10.5t41 14t43 7.5t45.5 -10q27 -12 39.5 -44t15 -69.5t6.5 -74t22.5 -64.5t55.5 -35q39 -8 81 18t78.5 69.5t71.5 88t71.5 77.5t66.5 34
q21 1 37.5 -8t26 -25.5t15.5 -31t11 -33.5t8 -25q5 -11 20 -33t23 -43.5t6 -46.5q-2 -36 -43 -100t-53 -100q-8 -25 -10 -73t-10 -81q-8 -31 -44 -80.5t-71.5 -105.5t-44.5 -105q-3 -38 -0.5 -57t10.5 -53t10 -50q3 -24 -7 -67.5t-14.5 -68.5t11.5 -56q8 -14 28.5 -13t38 8
t45 13t50.5 2q37 -6 57.5 -32.5t21 -57t-19.5 -58.5t-57 -38q-32 -8 -85.5 -2.5t-82.5 -1.5t-70 -27t-65 -24q-23 -4 -61 -0.5t-58 0.5q-11 -1 -64 -28t-94 -20q-43 8 -55 48.5t6.5 84.5t55.5 62q24 12 70.5 16t84.5 12.5t56 32.5q16 31 10 57.5t-16.5 67.5t-6.5 62
q5 28 35 60t37 57q13 50 8 121.5t2 121.5q7 41 47.5 108.5t89.5 138.5t62 95q26 49 18.5 89t-41.5 40q-18 0 -36.5 -25.5t-32.5 -57t-37.5 -61t-50.5 -36.5q-24 -6 -64.5 3.5t-64.5 6.5q-13 -2 -38.5 -10.5t-45.5 -14t-45.5 -2.5t-45.5 21t-29 56.5t-11.5 78t-8 77.5
t-24.5 60.5t-54 20.5q-31 -2 -49.5 -19t-24 -44t-6.5 -54t-1.5 -60t-4.5 -52q-7 -28 -26.5 -53.5t-33.5 -39.5t-23.5 -40t2.5 -56q7 -30 29 -35t46.5 5.5t58 21t54.5 8.5q36 -5 57.5 -29.5t22.5 -56t-10 -62.5t-41.5 -52t-71.5 -21q-26 0 -61 7t-59.5 13t-49.5 4t-39 -16
q-13 -13 -13.5 -32.5t6.5 -37t13.5 -40.5t3.5 -39q-4 -27 -29.5 -61t-25.5 -64q0 -29 7.5 -62.5t6.5 -56.5q-1 -18 -8 -39t-13 -34t-7.5 -31.5t10.5 -32.5q8 -13 23.5 -14.5t35.5 5t40.5 15.5t46.5 17t46 10q47 4 73 -18t27 -52t-16 -60t-47 -42q-20 -7 -82 -15.5t-92 -23.5
q-24 -12 -64.5 -46.5t-82.5 -52.5q-41 -14 -58.5 -11t-50 8.5t-63.5 0.5q-22 -3 -66.5 -30.5t-75.5 -26.5z" />
    <glyph glyph-name="g_g" unicode="gg" horiz-adv-x="2232" 
d="M1645 1368q-29 2 -50 -5t-31.5 -16.5t-33 -34t-39.5 -40.5q-20 -19 -45 -25t-44 -5.5t-45 -13.5t-50 -48q-26 -33 -23.5 -70.5t17 -64t27.5 -59.5t9 -56q-5 -25 -30.5 -44.5t-54 -31.5t-54.5 -36t-31 -58q-7 -45 27.5 -107t28.5 -100q-4 -27 -28 -59t-52.5 -62t-56 -62.5
t-42 -72.5t-6.5 -80q7 -37 22 -64t40 -45t43.5 -27.5t54.5 -23t51 -20.5q17 -7 61 -28.5t68 -32t59.5 -21.5t63.5 -12q45 -3 78 12t70 43.5t61 40.5q26 13 64.5 27t63 24t51 26.5t43 43t24.5 65.5q9 30 4.5 57.5t-10.5 44.5t-21 35t-27.5 29t-29.5 26t-27 27
q-19 23 -36.5 58t-35 56.5t-49.5 31.5q-31 10 -64 6t-58 -15.5t-61 -17t-75 1.5q-60 12 -98 57t-31 97q7 47 51 69t95 19q31 -2 108.5 -33t114.5 -24q31 5 53.5 24t43 43.5t38.5 34.5q14 7 39.5 7t48.5 6.5t39 29.5q16 24 18 60.5t-2 66t5 65.5q7 25 27 42.5t42.5 29
t45 27.5t38.5 47t19 78q3 61 -23 115t-80 57q-29 1 -47.5 -10t-28.5 -36.5t-13.5 -49t-6.5 -62.5q-4 -48 -32 -72t-63.5 -22.5t-68.5 20.5q-19 11 -38.5 32t-33 38t-35 31t-46.5 16zM621 1034q-29 0 -50 -9t-31.5 -20t-31 -36t-35.5 -41q-20 -20 -44.5 -27.5t-43 -8
t-43.5 -16.5t-47 -51q-24 -35 -19.5 -72t20.5 -62.5t31.5 -57.5t12.5 -55q-3 -25 -27.5 -46t-52.5 -34.5t-52.5 -40t-27.5 -60.5q-3 -30 8 -58.5t25.5 -47t25.5 -44.5t9 -52q-2 -28 -23.5 -61.5t-49 -65t-53 -66t-37.5 -75.5t-1 -81q8 -30 22.5 -53t30 -36.5t38.5 -25
t42 -17.5t46 -15t44 -16q9 -4 49 -21t57 -23.5t48.5 -17.5t56 -15t47.5 -3q45 1 76.5 17t67 46.5t59.5 44.5q25 14 62.5 30.5t61.5 28t49.5 29.5t40 46t19.5 67q6 46 -6.5 81.5t-28.5 52t-46.5 40.5t-42.5 37q-21 21 -41 55.5t-39 55t-52 28.5q-39 10 -78.5 -3t-83.5 -29
t-91 -9q-61 9 -102.5 51.5t-37.5 94.5q6 48 48.5 73.5t91.5 22.5q27 -2 108.5 -27t118.5 -16q31 7 52.5 27.5t40.5 46t36 36.5q14 9 39 11t47 10t37 31q15 24 14 60.5t-7.5 66t1.5 65.5q7 26 26 44.5t41 31.5t43.5 30.5t35.5 50t14 79.5q0 61 -29.5 112.5t-83.5 51.5
q-29 0 -47.5 -12.5t-27 -37.5t-11 -50.5t-2.5 -63.5q0 -36 -16 -60.5t-39.5 -33t-51 -6t-51.5 15.5q-19 10 -40 30.5t-35.5 36.5t-36.5 28.5t-47 12.5zM1628 913q-20 4 -34 39.5t-31 42.5q-13 5 -51.5 5t-55.5 18q-19 20 -2.5 57.5t49.5 46.5q26 7 56.5 -2.5t54.5 -5.5
q16 3 64 22.5t79 16.5q50 -6 71 -47.5t-7 -79.5q-16 -22 -34.5 -34t-41.5 -20t-33 -14q-11 -6 -27.5 -20.5t-29 -21t-27.5 -3.5zM639 846q21 -1 39.5 -33t34.5 -37q15 -4 39 0.5t37 6t32 -12.5q24 -19 13.5 -58.5t-43.5 -54.5q-24 -11 -54 -6.5t-55 -1.5q-16 -5 -61 -31.5
t-76 -27.5q-50 -2 -77 36t-5 81q12 24 28 38.5t39 27t31 18.5q9 7 23.5 23.5t26.5 24.5t28 7zM1624 451q46 -12 75.5 -55.5t35 -92t-9 -92.5t-46.5 -57q-25 -12 -53.5 -11t-46.5 7.5t-45 14.5t-49 9q-28 1 -76.5 -9t-83.5 -3q-32 6 -56.5 27t-35 46.5t-6 52.5t25.5 44
q22 17 72 18.5t78 14.5q12 5 30 19.5t34 28t41.5 27t51.5 16t64 -4.5zM389 94q37 11 62.5 11t52 -10.5t44 -21.5t37 -23.5t31.5 -16.5q33 -9 58 -5.5t51.5 1t44.5 -18.5q27 -24 29.5 -61.5t-21 -70.5t-65.5 -44q-29 -9 -78.5 -1.5t-81.5 1.5q-22 -4 -48 -15t-43 -19
t-44.5 -12t-52.5 5q-46 12 -64.5 76t4.5 133t84 92z" />
    <glyph glyph-name="i_c_e" unicode="&#xb7;ice" horiz-adv-x="2324" 
d="M539 1243q24 56 74 83.5t108 10.5q56 -17 73.5 -82t-12.5 -118q-26 -49 -78.5 -70t-115.5 0q-48 18 -60.5 72.5t11.5 103.5zM96 -41q27 0 54 14t47 30.5t52.5 31.5t69.5 16q52 2 122.5 -26t111.5 -25q25 2 50 21t42.5 40t41 38.5t46.5 17.5q22 0 40.5 -30.5t37 -75
t44 -90t74 -81t115.5 -41.5q69 -6 138.5 24.5t123.5 77t102 92t88.5 71.5t68.5 14q26 -11 30.5 -40t-4.5 -60.5t-20.5 -78t-11.5 -79.5q0 -73 42 -120.5t142 -47.5q45 0 81 21t59.5 51t45 60t49.5 52t62 23q28 1 61 -26.5t64 -27.5q43 0 75.5 32t32.5 95q0 65 -46.5 105.5
t-106.5 40.5q-36 0 -76.5 -19t-73 -46t-67.5 -54t-62.5 -45.5t-54.5 -18t-47 26.5q-20 30 -12 57.5t37.5 65t69 72.5t82.5 80.5t79 88.5t57.5 97t18.5 106q-5 78 -47 129.5t-111 51.5q-72 0 -119.5 -30.5t-69.5 -79.5t-33.5 -98t-22 -100t-23.5 -73q-25 -40 -63.5 -51
t-90.5 -14.5t-88 -22.5q-33 -17 -67 -55.5t-57.5 -73t-59.5 -64.5t-76 -35q-50 -6 -94 20.5t-72.5 73t-43 104.5t-12.5 113t25.5 100.5t65.5 64.5q21 12 54.5 4.5t47.5 -4.5q17 3 43 25.5t51 21.5q20 -1 45 -20t54.5 -37t62.5 -17q29 1 55 21t38.5 50.5t13.5 63.5
t-20.5 62.5t-63.5 44.5q-37 13 -92 -7.5t-76 -19.5q-19 1 -42.5 15.5t-43.5 31t-54 26.5t-73 3q-49 -8 -90 -55.5t-69.5 -112t-55 -129.5t-59 -117t-68.5 -66q-62 -24 -101.5 -0.5t-42.5 80.5q-3 63 15.5 119.5t43.5 91t54 75.5t39 69q15 35 12.5 79.5t-14.5 83.5t-41 65.5
t-66 25.5q-32 -1 -56 -22.5t-36 -48t-29.5 -54t-37.5 -37.5q-26 -13 -63 -15.5t-71 -9.5t-61 -33q-39 -36 -50 -81t8.5 -76t59.5 -31q23 0 52.5 14.5t52.5 32.5t48.5 34t40.5 19t28 -12q13 -17 0.5 -42t-32.5 -44.5t-39.5 -49.5t-21.5 -58q-2 -29 7 -76t6 -76.5t-31 -46.5
q-38 -24 -73.5 -29t-61 0t-64.5 0q-76 -10 -109 -78q-29 -57 -6 -104q19 -39 66 -39zM1817 311q-23 19 -15 67.5t39.5 93t54.5 28.5q18 -12 21.5 -38t-5.5 -54.5t-23.5 -53.5t-34.5 -38t-37 -5z" />
    <glyph glyph-name="i_c_e_s" unicode="&#xb7;ices" horiz-adv-x="2959" 
d="M539 1243q24 56 74 83.5t108 10.5q56 -17 73.5 -82t-12.5 -118q-26 -49 -78.5 -70t-115.5 0q-48 18 -60.5 72.5t11.5 103.5zM96 -41q27 0 54 14t47 30.5t52.5 31.5t69.5 16q52 2 122.5 -26t111.5 -25q25 2 50 21t42.5 40t41 38.5t46.5 17.5q22 0 40.5 -30.5t37 -75
t44 -90t74 -81t115.5 -41.5q69 -6 138.5 24.5t123.5 77t102 92t88.5 71.5t68.5 14q26 -11 30.5 -40t-4.5 -60.5t-20.5 -78t-11.5 -79.5q0 -73 42 -120.5t142 -47.5q45 0 81 22.5t59.5 55t45 64.5t49.5 54t62 21q23 -1 42 -12t30.5 -25t27 -29.5t29.5 -21.5q21 -9 75 -5
t78 -9q20 -10 34.5 -37.5t24.5 -52t39 -44.5t77 -20q43 0 77.5 20t51 43t34 53t25.5 38q20 21 60.5 23t54.5 7q75 29 75 166q0 100 -69 185t-191 124q-101 32 -147 117q-36 66 -15 112q16 36 62 31q25 -3 35 -22.5t9 -43t2 -48.5t15 -35q25 -15 46 -10.5t52 14t46 6.5
q14 -3 39 -21t49 -18q54 0 82 43t14 96.5t-70 79.5q-34 16 -95 3t-97 6q-23 12 -41 39t-29 50.5t-39 42.5t-71 19q-32 0 -54 -12t-33 -32.5t-17.5 -40.5t-12 -44.5t-10.5 -36.5q-9 -20 -30.5 -38.5t-39.5 -31t-31 -39.5t-10 -65q3 -42 24.5 -75t52 -53t72.5 -37t78.5 -25.5
t79 -19.5t64.5 -19q39 -14 62.5 -46.5t28.5 -69t0 -71.5t-21 -59.5t-37 -28.5q-41 -9 -79 17t-65 26q-21 0 -40 -10.5t-30 -21.5t-28 -17.5t-33 0.5q-30 12 -50 40t-29 55.5t-32 54t-59 35.5q-45 11 -83.5 1.5t-76.5 -30t-70 -47t-63 -49.5t-56.5 -38t-50 -11.5t-44.5 28.5
q-20 30 -12 57.5t37.5 65t69 72.5t82.5 80.5t79 88.5t57.5 97t18.5 106q-5 78 -47 129.5t-111 51.5q-72 0 -119.5 -30.5t-69.5 -79.5t-33.5 -98t-22 -100t-23.5 -73q-25 -40 -63.5 -51t-90.5 -14.5t-88 -22.5q-33 -17 -67 -55.5t-57.5 -73t-59.5 -64.5t-76 -35
q-50 -6 -94 20.5t-72.5 73t-43 104.5t-12.5 113t25.5 100.5t65.5 64.5q21 12 54.5 4.5t47.5 -4.5q17 3 43 25.5t51 21.5q20 -1 45 -20t54.5 -37t62.5 -17q29 1 55 21t38.5 50.5t13.5 63.5t-20.5 62.5t-63.5 44.5q-37 13 -92 -7.5t-76 -19.5q-19 1 -42.5 15.5t-43.5 31
t-54 26.5t-73 3q-49 -8 -90 -55.5t-69.5 -112t-55 -129.5t-59 -117t-68.5 -66q-62 -24 -101.5 -0.5t-42.5 80.5q-3 63 15.5 119.5t43.5 91t54 75.5t39 69q15 35 12.5 79.5t-14.5 83.5t-41 65.5t-66 25.5q-32 -1 -56 -22.5t-36 -48t-29.5 -54t-37.5 -37.5q-26 -13 -63 -15.5
t-71 -9.5t-61 -33q-39 -36 -50 -81t8.5 -76t59.5 -31q23 0 52.5 14.5t52.5 32.5t48.5 34t40.5 19t28 -12q13 -17 0.5 -42t-32.5 -44.5t-39.5 -49.5t-21.5 -58q-2 -29 7 -76t6 -76.5t-31 -46.5q-38 -24 -73.5 -29t-61 0t-64.5 0q-76 -10 -109 -78q-29 -57 -6 -104
q19 -39 66 -39zM1817 311q-23 19 -15 67.5t39.5 93t54.5 28.5q18 -12 21.5 -38t-5.5 -54.5t-23.5 -53.5t-34.5 -38t-37 -5z" />
    <glyph glyph-name="m_m" unicode="mm" horiz-adv-x="3315" 
d="M268 932q15 17 32.5 43.5t31.5 49.5t31 49.5t31 44.5t32 33t34 16t36 -7q35 -19 41.5 -55.5t-4.5 -73t-13.5 -75.5t12.5 -62q22 -23 42 -21.5t47.5 20t50.5 40t51 39.5t49 18q26 0 45.5 -14t30.5 -31.5t32 -33t50 -17.5q27 -2 55.5 19t50 48t54 49.5t65.5 22.5
q36 0 58 -17t29.5 -38t19.5 -48t26 -40q15 -14 51.5 -28.5t60 -38t30.5 -72.5q9 -61 -13 -137t-18 -97q5 -27 29 -32t66.5 -5.5t74.5 -15.5q54 -25 55.5 -82t-65.5 -82q-25 -11 -56 -5.5t-50 16t-54 24.5t-70 20q-26 4 -74 -9t-67 -13q-56 0 -79 39.5t11 79.5q12 14 35.5 31
t41 29.5t31 40.5t13.5 67q0 76 -42.5 131t-104.5 61q-53 5 -94.5 -36.5t-41.5 -108.5q0 -40 24 -79t24 -71q0 -26 -9.5 -60.5t-18.5 -57.5t-11.5 -50t12.5 -39q17 -20 45.5 -25.5t52.5 -2t49 -2.5q35 -8 45.5 -40t-7.5 -63t-54 -35q-29 -3 -79.5 13.5t-76.5 15.5
q-30 -2 -74 -27.5t-69 -29.5q-50 -7 -69.5 31t8.5 71q13 16 44.5 29t36.5 33q7 26 -3.5 50t-27.5 40.5t-31.5 41t-14.5 48.5q0 31 25 90t18 102q-6 47 -44 80t-87 23q-45 -8 -75.5 -54.5t-41 -98.5t-6.5 -95q4 -41 28 -90t27 -84q2 -27 3 -91.5t6.5 -98.5t23.5 -52
q26 -26 84 -27.5t78 -13.5q34 -20 42 -60t-18.5 -73t-81.5 -33q-35 0 -113 23.5t-110 23.5q-34 0 -114 -29.5t-111 -23.5q-40 9 -56 42.5t-2.5 69t50.5 48.5q15 5 82 8t81 23q18 18 8.5 69t-27.5 98t-37 103t-21 84q-3 35 16 88.5t37.5 94.5t17.5 80t-37 54q-55 23 -192 -71
q-51 -35 -95 -5q-39 27 -35 78q4 48 48 88q16 15 68 46t75 57zM1780 899q-23 -3 -57.5 -4.5t-67.5 -1t-62.5 -15t-40.5 -47.5q-23 -62 28 -105t130 -32q40 5 80 28.5t72.5 44.5t56.5 21q88 0 82 -94q-2 -32 -24 -82t-21 -84q1 -32 15.5 -68t30.5 -63t26 -68t4 -83
q-5 -33 -26 -53.5t-43 -27t-59 -15t-55 -15.5q-42 -16 -54.5 -56t10.5 -76t71 -42q29 -3 90.5 17t83.5 18q21 -2 100.5 -25.5t118.5 -23.5q51 0 79 28.5t20.5 63t-44.5 49.5q-16 6 -54 7t-60.5 10t-22.5 36q0 22 18.5 49t14.5 52q-4 24 -29.5 54t-25.5 58q0 32 21.5 84
t21.5 74q0 23 -20.5 62.5t-22.5 64.5q-3 47 30.5 81.5t77.5 22.5q53 -14 95.5 -74.5t54.5 -131t-6 -134.5q-11 -28 -29 -43t-41.5 -25t-34.5 -20q-38 -35 -20 -75.5t63 -40.5q18 0 74 11t84 5q20 -3 60 -25.5t69 -23.5q38 -2 62.5 23t22.5 59.5t-32 58.5q-16 13 -40.5 20
t-41.5 9.5t-30 11t-13 25.5q0 28 11.5 64t11.5 57q0 28 -27.5 65t-25.5 70q2 42 37.5 71.5t79 36t84 -15t50.5 -70.5q8 -37 -1.5 -72t-20.5 -64t-6 -50q6 -28 24 -55.5t36 -48t32.5 -56t15.5 -78.5q1 -42 -18.5 -70t-43.5 -38.5t-59 -23.5t-51 -23q-28 -18 -30.5 -53
t23.5 -61.5t71 -20.5q22 3 78.5 20.5t83.5 17.5q22 0 83.5 -20.5t100.5 -22.5q65 -4 101.5 27.5t30.5 75.5t-52 74q-18 12 -58.5 18.5t-68.5 22t-37 55.5q-8 40 5 104t9 103q-2 21 -11.5 36.5t-21.5 24.5t-23.5 19t-19.5 25t-8 36q0 22 10 73.5t15.5 96t1.5 92t-35 79
t-90 38.5q-45 5 -88.5 -8t-71.5 -32t-64.5 -33t-70.5 -9q-19 3 -34 14.5t-24.5 25t-27.5 26.5t-41 18q-36 8 -81 -20.5t-66 -26.5q-24 2 -60 36.5t-67 34.5q-24 0 -43.5 -18t-35.5 -36.5t-32 -18.5q-17 0 -30 21t-21 46.5t-26.5 46.5t-45.5 21q-28 0 -47.5 -16.5t-29 -37
t-28 -41t-42.5 -26.5z" />
    <glyph glyph-name="n_n_e" unicode="n&#xb7;ne" horiz-adv-x="2676" 
d="M262 838q34 21 56 4t8 -66q-11 -36 -52 -110.5t-47 -92.5q-12 -49 -11 -77.5t6.5 -68t4.5 -58.5q-5 -66 -94 -125q-35 -23 -54 -63t-6.5 -72.5t60.5 -32.5q29 0 56 15t56.5 38.5t47.5 32.5q24 12 73.5 22.5t73.5 26.5q29 20 32 55t-23 64q-7 8 -30 26t-35 37.5t-15 50.5
q-3 33 7.5 64t38.5 83t42 83q11 26 23.5 95.5t41.5 111.5q27 38 60 59.5t61 23.5t50.5 -13t29.5 -44q9 -35 -5 -75t-33 -81.5t-21 -70.5q-2 -31 14 -106.5t8 -120.5q-6 -36 -22 -52.5t-52 -37.5t-65 -50q-30 -30 -37.5 -67.5t9.5 -63.5t52 -26q43 0 95.5 35t85.5 45
q16 5 58 11.5t69.5 12.5t50.5 27.5t22 56.5q-1 29 -15.5 46t-32 21.5t-35 12t-23.5 18.5q-7 21 -6 33t5 38t3 44q-1 21 -12 62.5t-11 70.5q0 23 21 59.5t47.5 70t49 74t25.5 71.5t-22 63q-21 22 -68.5 27.5t-66.5 19.5q-15 11 -31 31t-26 34t-29 25t-43 11q-29 0 -58 -20
t-50.5 -47t-41 -53t-37 -40t-30.5 -6t-13.5 21.5t7 27t14 35.5t4.5 41q-3 27 -25.5 42.5t-55 10.5t-60.5 -33q-23 -23 -42 -77t-42 -74q-24 -21 -73 -42t-64 -34q-26 -23 -27 -55.5t22 -57t60 -24.5q17 0 32.5 7.5t32.5 21t27 18.5zM1071 768q-26 -23 -27 -55.5t22 -57
t60 -24.5q17 0 32.5 7.5t33 21t27.5 18.5q34 21 55.5 4t7.5 -66q-11 -36 -51.5 -110t-46.5 -92q-12 -49 -11 -78t6.5 -68.5t4.5 -58.5q-5 -66 -94 -125q-35 -23 -54 -63t-6.5 -72.5t60.5 -32.5q29 0 56 15t56 38.5t47 32.5q24 12 74 22.5t74 26.5q29 20 31.5 55t-23.5 64
q-7 8 -30 26.5t-35 38t-15 50.5q-3 33 7.5 64t38.5 82t42 83q11 26 24 95.5t42 111.5q27 38 59.5 59.5t61 24t50.5 -12.5t29 -44q9 -35 -5 -75t-33 -82t-21 -71q-2 -31 14 -106.5t8 -120.5q-6 -36 -22 -52.5t-51.5 -36.5t-65.5 -50q-47 -47 -38 -101t63 -57q53 -3 128 18.5
t131 45t119.5 36t94.5 -9.5q37 -21 41.5 -56.5t-10 -96.5t-15.5 -89q-3 -64 48.5 -105t136.5 -34q39 3 71 23.5t52.5 47t39.5 52t44 43.5t55 18q27 0 57 -26.5t55 -26.5q38 0 69.5 31.5t31.5 87.5q0 65 -42 99.5t-102 29.5q-31 -2 -66 -20t-63.5 -41.5t-59 -46.5t-55 -38.5
t-49 -14.5t-42.5 24q-18 26 -13.5 51t26 58.5t51 64.5t62.5 70.5t61 76t45 81t15 85.5q-2 60 -35.5 100.5t-89.5 40.5q-52 0 -86 -20.5t-50.5 -54t-27 -69.5t-25.5 -75.5t-36 -62.5q-33 -37 -98 -50.5t-122 -1.5t-73 42q-7 21 -6 33t5 37.5t3 43.5q-1 21 -11.5 62.5
t-10.5 70.5q0 23 21 59.5t47.5 70t49 74t25.5 71.5t-22 63q-21 22 -69 27.5t-67 19.5q-15 11 -31 31t-26 34t-29 25t-43 11q-29 0 -58 -20t-50.5 -47t-41 -53t-37 -40t-30.5 -6t-13 21.5t7 27t14 35.5t5 41q-3 27 -25.5 42.5t-55.5 10.5t-61 -33q-23 -23 -42 -77t-42 -74
q-24 -21 -73 -42t-64 -34z" />
    <glyph glyph-name="o_n" unicode="on" horiz-adv-x="2078" 
d="M145 604q-2 -10 -34.5 -97t-28.5 -138q1 -17 6.5 -31.5t19 -30t20 -22.5t29.5 -26t27 -23l26.5 -26.5t28 -26.5t26.5 -19.5t34.5 -14.5t40.5 -2q41 3 82.5 41t77.5 50q32 10 93.5 13.5t117.5 27.5q43 19 60 58.5t14.5 85t-7 91t5 87t41.5 63.5q43 28 83 39.5t80.5 14.5
t55.5 7q28 8 72 43t62 37q37 2 53 -23.5t4 -70.5q-4 -14 -43.5 -83.5t-42.5 -111.5q-2 -19 2 -92t-4 -136t-39 -104q-17 -23 -52 -39t-71 -26t-70 -23t-55.5 -37t-21.5 -59q0 -47 32.5 -75.5t77.5 -28.5q37 0 102 43t93 47q35 6 102 -6.5t92 -12.5q43 0 66 36t8 79
q-8 22 -28.5 34t-40.5 15.5t-38.5 14t-23.5 30.5q-5 18 14.5 43.5t47 60t34.5 66.5q9 37 -4.5 110.5t-13.5 106.5q0 119 55 185q27 32 77.5 53t100 16.5t66.5 -41.5q16 -45 9 -67.5t-22 -57.5t-14 -59q1 -19 7 -56.5t6.5 -58t-7.5 -67.5q-10 -37 -32.5 -52.5t-54.5 -25
t-50 -25.5q-26 -28 -24.5 -62.5t28.5 -64t64 -30.5q42 -1 120 49.5t99 52.5q26 3 71.5 -17.5t75.5 -17.5q49 5 71 44t11 83t-45 62q-17 9 -55.5 19.5t-67.5 26.5t-45 48q-15 24 -6.5 53t24 50t31 50t15.5 54q0 36 -28 80t-28 63q0 20 14.5 53t14.5 64q0 43 -42 64t-83 -1
q-23 -12 -86.5 -53t-107 -59.5t-70.5 -6.5q-22 9 -29.5 38t-6.5 57t-13.5 50.5t-50.5 22.5q-27 0 -51 -14t-39 -31.5t-35.5 -37.5t-38.5 -29q-30 -15 -79.5 -8.5t-76.5 -2.5q-15 -6 -45 -29.5t-56.5 -45t-64.5 -34t-73 -1.5q-24 7 -41 35.5t-28.5 63.5t-25.5 69.5t-38.5 58
t-59.5 23.5q-32 0 -54.5 -13.5t-34 -31t-31 -41t-42.5 -37.5q-29 -17 -85 -29t-103 -28t-72 -48q-21 -28 -28 -64t-3.5 -67.5t4.5 -67.5t-4 -65zM516 350q-23 -17 -48 -16.5t-41.5 10t-38 24.5t-30.5 19q-10 5 -32.5 12t-35.5 13t-25.5 22.5t-14.5 42.5q-4 45 13 80.5
t49 70.5t40 48q8 14 23.5 48.5t27 56.5t34.5 43.5t52 25.5q56 8 108.5 -32.5t49.5 -102.5q-2 -34 -11.5 -56t-27 -45.5t-26.5 -44.5q-17 -32 -18 -77.5t-8 -81.5t-40 -60z" />
    <glyph glyph-name="o_u" unicode="ou" horiz-adv-x="1685" 
d="M72 514q0 -38 18.5 -75.5t41.5 -64t45.5 -63.5t29.5 -73q2 -13 4 -43.5t6 -49.5t14.5 -41.5t36.5 -34.5t66 -14q68 -3 119 46.5t77.5 129t30.5 177.5q1 24 -0.5 78t-1 86t12.5 68t36 52q32 22 87 38t111 14.5t79 -27.5q16 -14 12.5 -44.5t-16.5 -62.5t-33.5 -75t-40 -82
t-35 -83t-18.5 -79q-10 -100 45 -168t131 -74q33 -3 72.5 21.5t69 53.5t63.5 49.5t59 12.5q26 -9 34 -38t4.5 -59t7.5 -58.5t44 -36.5q29 -7 55 6.5t46 42t36 58.5t33.5 64.5t30.5 51.5q18 24 65.5 60.5t81.5 74t41 82.5q9 58 -16.5 93t-83.5 28q-35 -4 -62.5 -37.5
t-46.5 -77.5q-18 -41 -53.5 -59.5t-69.5 0.5q-12 7 -14 20t3.5 33.5t13 43.5t14 57.5t6.5 68.5q0 41 38.5 126t41.5 124q5 71 -17.5 106t-76.5 35q-39 0 -64 -33t-36 -88t-16.5 -109.5t-10 -114t-11.5 -85.5q-9 -37 -27 -60t-45 -45.5t-42 -43.5q-13 -17 -32.5 -71.5
t-44.5 -76.5t-73 -4q-27 10 -32 45.5t9 86.5t37 106t54 114q5 10 21.5 39.5t23 40.5t20.5 37.5t20.5 39.5t18 35t17 35.5t13 30t11.5 30t6 24.5q14 74 -26 117t-123 24q-33 -8 -56.5 -29t-34.5 -43.5t-31 -47.5t-46 -38q-37 -18 -87.5 -19.5t-76.5 -8.5q-25 -7 -69.5 -33.5
t-79.5 -24.5q-31 2 -57 18.5t-52 29t-61 6.5q-50 -9 -82 -44.5t-57.5 -87t-43.5 -71.5q-16 -18 -49.5 -39t-48 -45.5t-14.5 -77.5zM326 623q34 7 57.5 -25t33 -77.5t9.5 -94.5q0 -59 -13.5 -89t-47.5 -30q-35 0 -71.5 57t-47.5 123q-9 49 13 89t67 47z" />
    <glyph glyph-name="o_u_p" unicode="oup" horiz-adv-x="2562" 
d="M72 514q0 -48 18.5 -87.5t41.5 -62.5t45.5 -57t29.5 -69q2 -13 4 -43.5t6 -49.5t14.5 -41.5t36.5 -34.5t66 -14q68 -3 119 46.5t77.5 129t30.5 177.5q1 24 -0.5 78t-1 86t12.5 68t36 52q32 22 87 38t111 14.5t79 -27.5q16 -14 12.5 -44.5t-16.5 -62.5t-33.5 -75t-40 -82
t-35 -83t-18.5 -79q-10 -100 45 -168t131 -74q33 -3 72.5 21.5t69 53.5t63.5 49.5t59 12.5q26 -9 34 -38t4.5 -59t7.5 -58.5t44 -36.5q29 -7 55 6.5t46 42t36 58.5t33.5 64.5t30.5 51.5q24 31 93 90.5t97 100.5q23 33 51 101t48.5 124t56.5 102.5t78 50.5q34 3 52.5 -20
t18.5 -66q0 -40 -16 -72t-39 -54.5t-45.5 -45t-38.5 -54.5t-16 -71t19 -107t16 -112q-5 -66 -40 -135.5t-42 -93.5q-8 -27 -16 -90t-23 -90q-17 -30 -47 -51t-56.5 -30.5t-51.5 -28.5t-34 -48q-14 -47 16 -74t79 -22q36 4 72 20t60 29.5t69.5 22.5t99.5 -1q89 -14 144.5 27
t55.5 86q0 41 -21 64.5t-57 25.5q-18 1 -52 -10t-57 -8.5t-40 30.5q-12 27 -7 47t23.5 47t38.5 50t38 57.5t22 67.5q4 38 -11.5 102t-15.5 103q0 45 22.5 68.5t53.5 17.5q17 -3 35 -25t32 -46t39 -43.5t56 -19.5t55 21t36 46.5t27 64t25 55.5q13 23 35 46.5t32.5 46
t10.5 62.5q0 52 -41.5 129t-46.5 115q-4 29 -1.5 73t-2.5 62q-24 101 -99 101q-36 0 -59.5 -15.5t-43.5 -41.5t-30 -33q-16 -10 -32 -12.5t-26.5 20.5t-6.5 71q5 58 -17 94.5t-71 37.5q-111 3 -138 -172q-7 -45 -34 -88.5t-57 -73t-71 -70t-63 -67.5q-36 -46 -72 -143
t-65 -130q-37 -42 -77 -58.5t-71 7.5q-14 15 -15.5 37t5.5 41t16.5 46.5t12.5 45.5q3 19 4 45t4 43q6 32 39.5 105t36.5 110q5 71 -17.5 106t-76.5 35q-39 0 -64 -33t-36 -88t-16.5 -109.5t-10 -114t-11.5 -85.5q-9 -37 -27 -60t-45 -45.5t-42 -43.5q-13 -17 -32.5 -71.5
t-44.5 -76.5t-73 -4q-27 10 -32 45.5t9 86.5t37 106t54 114q5 10 21.5 39.5t23 40.5t20.5 37.5t20.5 39.5t18 35t17 35.5t13 30t11.5 30t6 24.5q14 74 -26 117t-123 24q-33 -8 -56.5 -29t-34.5 -43.5t-31 -47.5t-46 -38q-37 -18 -87.5 -19.5t-76.5 -8.5q-25 -7 -69.5 -33.5
t-79.5 -24.5q-31 2 -57 18.5t-52 29t-61 6.5q-50 -9 -82 -44.5t-57.5 -87t-43.5 -71.5q-16 -18 -49.5 -39t-48 -45.5t-14.5 -77.5zM2075 788q-13 35 7 58t50 18q29 -5 48 -23.5t25.5 -38t15 -50.5t15.5 -47q8 -18 28 -38.5t34 -44.5t16 -61q3 -51 -27.5 -86t-70.5 -35
q-29 0 -56.5 38.5t-27.5 88.5q0 38 -10.5 83.5t-19 67t-27.5 70.5zM240 489q-9 52 14.5 93.5t71.5 50.5q36 7 61 -27.5t35 -82t10 -99.5q0 -127 -65 -127q-37 0 -76 60.5t-51 131.5z" />
    <glyph glyph-name="o_u_s" unicode="ous" horiz-adv-x="2469" 
d="M72 514q0 -48 18.5 -87.5t41.5 -62.5t45.5 -57t29.5 -69q2 -13 4 -43.5t6 -49.5t14.5 -41.5t36.5 -34.5t66 -14q68 -3 119 46.5t77.5 129t30.5 177.5q1 24 -0.5 78t-1 86t12.5 68t36 52q32 22 87 38t111 14.5t79 -27.5q16 -14 12.5 -44.5t-16.5 -62.5t-33.5 -75t-40 -82
t-35 -83t-18.5 -79q-10 -100 45 -168t131 -74q33 -3 72.5 21.5t69 53.5t63.5 49.5t59 12.5q26 -9 34 -38t4.5 -59t7.5 -58.5t44 -36.5q37 -9 72.5 21t65 78.5t58 97.5t62 81.5t66.5 28.5q27 -3 39.5 -20.5t13.5 -37.5t7.5 -45.5t21.5 -39.5q30 -29 68 -45t50 -23
q22 -13 39 -40t27.5 -49t39.5 -39t77 -17q43 0 77.5 20t51 43t34 52.5t25.5 37.5q20 21 61 23.5t54 7.5q76 30 76 166q0 100 -69 185t-192 124q-101 32 -147 117q-36 66 -15 112q16 36 62 31q25 -3 35 -22.5t9 -43t2.5 -48.5t15.5 -35q13 -11 34 -12t39 4.5t39 11.5t31 6
q16 0 34 -19.5t46 -19.5q40 0 68 25t35.5 59t-9.5 72.5t-59 62.5q-29 17 -64 11t-58 -15.5t-55 4.5q-23 12 -38 33.5t-23.5 42.5t-21 40.5t-40.5 31.5t-73 12q-39 0 -64 -12t-34.5 -32.5t-13.5 -40.5t-7 -44.5t-8 -36.5q-9 -20 -30.5 -38.5t-39.5 -31t-31 -39.5t-10 -65
q3 -42 24.5 -75t52 -53t72.5 -37t78.5 -25.5t79 -19.5t64.5 -19q39 -14 62.5 -46.5t28.5 -69t0 -71.5t-21 -59.5t-37 -28.5q-33 -7 -57.5 2t-49.5 23.5t-49 17.5t-55.5 -3t-47.5 -7t-48 14q-18 11 -32 39t-25 58.5t-25 60.5t-39.5 50.5t-61.5 23.5q-39 3 -75.5 -16
t-62 -47.5t-48.5 -55.5t-44.5 -40t-41.5 -1q-16 10 -18 33.5t5 47.5t15.5 55t9.5 48q1 21 -5 55.5t-3 59.5q3 26 40 98t40 117q5 71 -17.5 106t-76.5 35q-39 0 -64 -33t-36 -88t-16.5 -109.5t-10 -114t-11.5 -85.5q-9 -37 -27 -60t-45 -45.5t-42 -43.5q-13 -17 -32.5 -71.5
t-44.5 -76.5t-73 -4q-27 10 -32 45.5t9 86.5t37 106t54 114q5 10 21.5 39.5t23 40.5t20.5 37.5t20.5 39.5t18 35t17 35.5t13 30t11.5 30t6 24.5q14 74 -26 117t-123 24q-33 -8 -56.5 -29t-34.5 -43.5t-31 -47.5t-46 -38q-37 -18 -87.5 -19.5t-76.5 -8.5q-25 -7 -69.5 -33.5
t-79.5 -24.5q-31 2 -57 18.5t-52 29t-61 6.5q-50 -9 -82 -44.5t-57.5 -87t-43.5 -71.5q-16 -18 -49.5 -39t-48 -45.5t-14.5 -77.5zM326 633q36 7 61 -27.5t35 -82t10 -99.5q0 -127 -65 -127q-37 0 -76 60.5t-51 131.5q-9 52 14.5 93.5t71.5 50.5z" />
    <glyph glyph-name="o_ucircumflex" unicode="o&#xfb;" horiz-adv-x="1746" 
d="M1448 1065q-11 31 -8.5 56t7.5 61.5t3 54.5q-4 34 -23 67t-22 50q-2 11 2.5 30t10.5 37.5t10 35.5t-1 27.5t-20 10.5q-33 0 -59 -40t-40 -91.5t-38 -112t-51 -90.5q-22 -25 -52.5 -33.5t-56.5 -0.5t-47 25t-24.5 44t10.5 57q15 26 52.5 43.5t51.5 34.5q15 18 27 70t30 78
t60 41t59 34q6 8 23 33t29 39.5t34.5 25.5t46.5 5q22 -5 36.5 -19.5t19.5 -29t11.5 -39t10.5 -35.5q7 -18 28 -42t25 -46q4 -21 -9.5 -56.5t-10.5 -60.5q3 -22 25 -69.5t28 -88.5q9 -64 -28 -109.5t-80.5 -42t-69.5 45.5zM72 514q0 -48 18.5 -87.5t41.5 -62.5t45.5 -57
t29.5 -69q2 -13 4 -43.5t6 -49.5t14.5 -41.5t36.5 -34.5t66 -14q68 -3 119 46.5t77.5 129t30.5 177.5q1 24 -0.5 78t-1 86t12.5 68t36 52q32 22 87 38t111 14.5t79 -27.5q16 -14 12.5 -44.5t-16.5 -62.5t-33.5 -75t-40 -82t-35 -83t-18.5 -79q-10 -100 45 -168t131 -74
q33 -3 72.5 21.5t69 53.5t63.5 49.5t59 12.5q26 -9 34 -38t4.5 -59t7.5 -58.5t44 -36.5q29 -7 55 6.5t46 42t36 58.5t33.5 64.5t30.5 51.5q18 24 65.5 60.5t81.5 74t41 82.5q9 58 -16.5 93t-83.5 28q-35 -4 -62.5 -37.5t-46.5 -77.5q-18 -41 -53.5 -59.5t-69.5 0.5
q-12 7 -14 20t3.5 33.5t13 43.5t14 57.5t6.5 68.5q0 41 38.5 126t41.5 124q5 71 -17.5 106t-76.5 35q-39 0 -64 -33t-36 -88t-16.5 -109.5t-10 -114t-11.5 -85.5q-9 -37 -27 -60t-45 -45.5t-42 -43.5q-13 -17 -32.5 -71.5t-44.5 -76.5t-73 -4q-27 10 -32 45.5t9 86.5t37 106
t54 114q5 10 21.5 39.5t23 40.5t20.5 37.5t20.5 39.5t18 35t17 35.5t13 30t11.5 30t6 24.5q14 74 -26 117t-123 24q-33 -8 -56.5 -29t-34.5 -43.5t-31 -47.5t-46 -38q-37 -18 -87.5 -19.5t-76.5 -8.5q-25 -7 -69.5 -33.5t-79.5 -24.5q-31 2 -57 18.5t-52 29t-61 6.5
q-50 -9 -82 -44.5t-57.5 -87t-43.5 -71.5q-16 -18 -49.5 -39t-48 -45.5t-14.5 -77.5zM326 633q36 7 61 -27.5t35 -82t10 -99.5q0 -127 -65 -127q-37 0 -76 60.5t-51 131.5q-9 52 14.5 93.5t71.5 50.5z" />
    <glyph glyph-name="o_udieresis" unicode="o&#xfc;" horiz-adv-x="1746" 
d="M883 1188q-33 32 -28.5 76t36.5 82q34 39 81.5 47t92.5 -19q42 -32 39 -87.5t-41 -94.5q-36 -35 -85.5 -38t-94.5 34zM1169 1196q-2 50 26 89.5t77 45.5q48 4 81 -26t38 -78q2 -48 -22 -87.5t-66 -43.5q-46 -6 -88.5 24t-45.5 76zM72 514q0 -48 18.5 -87.5t41.5 -62.5
t45.5 -57t29.5 -69q2 -13 4 -43.5t6 -49.5t14.5 -41.5t36.5 -34.5t66 -14q68 -3 119 46.5t77.5 129t30.5 177.5q1 24 -0.5 78t-1 86t12.5 68t36 52q32 22 87 38t111 14.5t79 -27.5q16 -14 12.5 -44.5t-16.5 -62.5t-33.5 -75t-40 -82t-35 -83t-18.5 -79q-10 -100 45 -168
t131 -74q33 -3 72.5 21.5t69 53.5t63.5 49.5t59 12.5q26 -9 34 -38t4.5 -59t7.5 -58.5t44 -36.5q29 -7 55 6.5t46 42t36 58.5t33.5 64.5t30.5 51.5q18 24 65.5 60.5t81.5 74t41 82.5q9 58 -16.5 93t-83.5 28q-35 -4 -62.5 -37.5t-46.5 -77.5q-18 -41 -53.5 -59.5t-69.5 0.5
q-12 7 -14 20t3.5 33.5t13 43.5t14 57.5t6.5 68.5q0 41 38.5 126t41.5 124q5 71 -17.5 106t-76.5 35q-39 0 -64 -33t-36 -88t-16.5 -109.5t-10 -114t-11.5 -85.5q-9 -37 -27 -60t-45 -45.5t-42 -43.5q-13 -17 -32.5 -71.5t-44.5 -76.5t-73 -4q-27 10 -32 45.5t9 86.5t37 106
t54 114q5 10 21.5 39.5t23 40.5t20.5 37.5t20.5 39.5t18 35t17 35.5t13 30t11.5 30t6 24.5q14 74 -26 117t-123 24q-33 -8 -56.5 -29t-34.5 -43.5t-31 -47.5t-46 -38q-37 -18 -87.5 -19.5t-76.5 -8.5q-25 -7 -69.5 -33.5t-79.5 -24.5q-31 2 -57 18.5t-52 29t-61 6.5
q-50 -9 -82 -44.5t-57.5 -87t-43.5 -71.5q-16 -18 -49.5 -39t-48 -45.5t-14.5 -77.5zM326 633q36 7 61 -27.5t35 -82t10 -99.5q0 -127 -65 -127q-37 0 -76 60.5t-51 131.5q-9 52 14.5 93.5t71.5 50.5z" />
    <glyph glyph-name="p_h" unicode="ph" horiz-adv-x="2091" 
d="M1432 1434q-26 -18 -97.5 -30t-99.5 -32q-41 -28 -55 -67t-4 -71t36.5 -54.5t59.5 -22.5q31 0 60 18t47 40.5t39.5 50.5t35.5 39q25 20 51 23.5t38.5 -15t-1.5 -66.5q-18 -54 -64 -104t-55 -82q-8 -26 -7 -103t-21 -108q-25 -48 -61 -85t-60 -81q-21 -39 -22.5 -80
t7 -85.5t7.5 -63.5q-3 -98 -30 -166.5t-60 -91.5q-24 -17 -84.5 -24.5t-94.5 -29.5q-51 -33 -58.5 -84.5t25 -88t87.5 -33.5q43 3 81.5 25t77 52.5t64.5 42.5q21 9 63 19t71 18t54.5 30.5t28.5 57.5q3 37 -13.5 56.5t-39.5 23t-45.5 12.5t-26.5 27q-5 21 7.5 41.5t33 43
t27.5 40.5q8 24 5 52.5t-9.5 52.5t0 47t32.5 36q26 14 70.5 -10.5t64.5 -23.5t40.5 16.5t34 32.5t29.5 27.5t28 2.5q15 -7 8 -31t-21 -47t-29.5 -51.5t-17.5 -44.5q-3 -20 7 -87t3 -97q-6 -28 -20 -43t-38.5 -27.5t-35.5 -21.5q-35 -28 -35.5 -62.5t22.5 -55t52 -15.5
q21 4 61 26.5t60 24.5q23 3 68.5 -2t58.5 2q15 5 34.5 28.5t32.5 30.5q9 5 31.5 14t39 19t26.5 27q27 43 4 89t-70 40q-23 -3 -67 -41t-70 -33q-12 2 -15.5 14t-1 30t6.5 36.5t8.5 38.5t5.5 31q1 19 -7.5 50.5t-6.5 57.5q3 33 20.5 60.5t42.5 64t39 82.5q13 40 1.5 73
t-37.5 48.5t-58.5 18.5t-63.5 -17q-19 -12 -45.5 -34t-46 -38.5t-41 -29.5t-41.5 -12.5t-37 16.5q-16 15 -17 38t11 50t25.5 50t32 51t24.5 40q18 34 14 107.5t11 105.5q14 30 44.5 58t52.5 52t24 52q2 25 -7 42t-26 34t-23 26q-5 8 -15 27t-16.5 28.5t-22 18.5t-36.5 10
q-34 1 -65 -22.5t-68.5 -64t-66.5 -60.5zM125 709q-19 -52 12.5 -86.5t89.5 -22.5q28 6 62.5 35t62 60.5t61 59t60.5 31.5q34 5 53 -14.5t19 -71.5q0 -40 -16 -72t-39 -54.5l-46 -45t-39 -54.5t-16 -71t19 -107t16 -112q-5 -64 -39.5 -131.5t-42.5 -97.5q-8 -26 -15.5 -89
t-23.5 -91q-17 -31 -46.5 -51.5t-55.5 -30t-51 -28.5t-35 -48q-14 -47 16 -74.5t78 -21.5q36 4 72 20t60 30t69.5 23t99.5 -2q46 -7 86 2t63.5 28.5t37 41.5t14.5 41q0 41 -21.5 65.5t-56.5 24.5q-18 1 -51.5 -9.5t-57.5 -8t-41 29.5q-12 27 -7 47t23.5 47t38.5 50t38 57.5
t22 67.5q4 38 -11.5 102t-15.5 103q0 45 22.5 68.5t53.5 17.5q17 -3 35 -25t32 -46t39 -43.5t56 -19.5t55 21t36 46.5t27 64t25 55.5q13 23 35 46.5t32.5 46t10.5 62.5q0 52 -41.5 129t-46.5 115q-4 29 -1.5 73t-2.5 62q-24 101 -98 101q-36 0 -59.5 -15.5t-43.5 -41.5
t-30 -33t-19.5 -10.5t-19 -1t-16.5 11.5t-10 29.5t-1 49.5q4 63 -21 97.5t-75 34.5q-52 0 -84.5 -42t-46.5 -145q-7 -48 -35 -83.5t-65.5 -56t-75 -39t-69.5 -43.5t-44 -58zM696 864q29 -5 48 -23.5t25.5 -38t15.5 -50.5t16 -47q8 -18 28 -38.5t34 -44.5t16 -61
q3 -51 -28 -86t-71 -35q-29 0 -56.5 38.5t-27.5 88.5q0 38 -10.5 83.5t-19 67t-27.5 70.5q-13 35 7 58t50 18z" />
    <glyph glyph-name="q_u" unicode="qu" horiz-adv-x="1914" 
d="M369 1047q-37 -16 -55.5 -44.5t-34.5 -74t-31 -70.5q-16 -27 -64.5 -84t-64.5 -96q-18 -41 -6 -91.5t47 -74.5q20 -14 57 -23t53 -20q13 -8 33.5 -40t42.5 -46q25 -14 52 -8.5t51 24.5q25 21 43 0.5t18 -57.5q0 -33 -19 -64t-44.5 -67.5t-34.5 -73.5q-10 -40 -11 -104
t-7 -119.5t-29 -95.5q-21 -36 -46 -48.5t-61.5 -13t-50.5 -4.5q-57 -15 -80 -72t2 -104t86 -39q24 3 50.5 24.5t41.5 24.5q17 4 61 -10t74 -8q29 6 54 36.5t45 35.5q22 6 65.5 -3.5t63.5 -9.5q35 0 60.5 18.5t32.5 45.5t3 54t-28.5 46.5t-61.5 20.5q-12 0 -30 -2t-31.5 -3
t-28.5 1t-27.5 12.5t-23.5 29.5q-13 18 -5.5 42.5t20.5 41t30 42t22 47.5q6 27 0.5 88.5t5.5 99.5q8 30 52 104.5t55 133.5q9 41 4.5 91t-6 106.5t1.5 104t26.5 83.5t69.5 45q35 7 93.5 -12t99.5 -11q30 6 74.5 39t78.5 41q39 9 53 -23.5t-8 -78.5q-17 -39 -81 -112.5
t-81 -133.5q-15 -35 -3 -115.5t10 -99.5q-3 -29 -29.5 -73t-28.5 -79q-3 -54 44 -86.5t104 -17.5q31 8 56.5 37t39 58t34 50t44.5 17q23 -4 34 -25t13 -44t15 -45t40 -28q26 -6 49.5 3.5t38 25t34 32.5t36.5 23q23 8 74.5 6t93.5 6q87 20 133 104q40 73 22 134
q-16 50 -67 55q-27 3 -48.5 -8t-36.5 -31t-29 -41t-34 -42t-43 -31q-49 -22 -101.5 -13.5t-64.5 43.5q-6 19 5.5 40t30 38t42 44t35.5 53q18 39 26.5 127t22.5 116q11 22 32 44t39 45.5t26 52.5q16 59 -5.5 97t-59.5 45.5t-80 -12.5t-62 -65q-23 -49 -27 -142t-20 -134
q-17 -42 -59.5 -89t-55.5 -75q-12 -25 -20 -76t-27 -80q-23 -36 -55.5 -40t-54.5 19.5t-19 59.5q3 44 49.5 120t54.5 99q8 25 14.5 84.5t20.5 95.5q7 17 44.5 78t43.5 103q8 56 -21 88t-83 22q-28 -5 -51.5 -23.5t-36.5 -38t-32 -36.5t-40 -19q-31 -3 -75 14t-75 15
q-26 -2 -67 -31.5t-76 -27.5q-30 2 -61.5 27.5t-57.5 25.5q-34 0 -74.5 -29.5t-80.5 -29.5q-28 0 -58 11t-48.5 21.5t-47.5 15t-57 -8.5zM393 872q39 20 94 1.5t78 -64.5q21 -41 15 -103.5t-35 -80.5q-20 -12 -53 -7.5t-52 -1.5q-17 -7 -38 -31t-35 -24q-29 0 -53 30.5
t-21 59.5q2 18 25 45t30 43q6 14 7.5 45.5t8.5 54.5t29 33z" />
    <glyph glyph-name="q_u_e" unicode="que" horiz-adv-x="2748" 
d="M96 -418q5 -15 30 -32.5t62 -12.5q24 3 51 24.5t42 24.5q17 4 61 -10t74 -8q29 6 53.5 36.5t44.5 35.5q22 6 65.5 -3.5t63.5 -9.5q39 0 67 25t31 63q3 40 -22.5 68t-69.5 29q-12 0 -30 -2t-31.5 -3t-28.5 1t-27.5 12.5t-23.5 29.5q-13 18 -5.5 42.5t20.5 41t30 42
t22 47.5q6 27 1 88.5t6 99.5q8 30 57 134.5t63 164.5q9 42 13 133t19.5 147t60.5 76q26 11 98 23t94 18q30 9 69 48.5t74 52.5q50 18 54 -37q3 -46 -25 -107q-17 -38 -76.5 -111t-68.5 -104q-12 -20 -4.5 -113t6.5 -110q-1 -20 -14 -63t-7 -72q8 -39 55.5 -65.5t100.5 -10.5
q33 10 59 28t40.5 36t28.5 34.5t32 24t41 2.5t35 -27.5t15 -47.5t17.5 -50.5t42.5 -34.5q22 -7 44.5 4t39 29t38 37.5t38.5 25.5q19 6 73.5 1.5t92.5 11.5q28 11 60.5 54.5t49.5 55.5q23 17 49.5 24.5t46 0t19.5 -30.5t-17.5 -52.5t-34.5 -67t-17 -78.5q0 -73 42 -120.5
t142 -47.5q46 0 87 19t70.5 47t54.5 56t49 49t44 23q24 3 55 -19t62 -22q43 0 75.5 34.5t32.5 98.5q0 75 -48 111.5t-122 36.5q-32 0 -69.5 -21t-68.5 -51t-65.5 -62t-61 -53t-55.5 -25t-48 21q-19 21 -14.5 50.5t25.5 58t54 65.5t70 72.5t74 78.5t66.5 84.5t46.5 90
t14 94.5q-5 78 -46.5 129t-111.5 51q-62 0 -105 -24t-63 -60t-33 -82t-17.5 -88t-13.5 -80t-24 -55q-17 -20 -63.5 -32.5t-67.5 -30.5q-13 -10 -33 -48t-47 -67t-66 -33q-29 -3 -72 7t-63 10q-11 0 -32 -8.5t-38 -15.5t-33.5 -4t-23.5 22q-9 22 4.5 47t36 45t47 46t33.5 46
q12 28 13.5 67t-3 91t-4.5 73q0 24 15.5 45.5t35 35.5t38.5 37t24 50q11 53 -17 95.5t-77 42.5q-45 0 -80.5 -36t-57.5 -87q-13 -30 -12 -134t-8 -126q-9 -21 -25 -46.5t-39.5 -58.5t-33.5 -49q-14 -22 -28 -70t-42 -90q-33 -49 -77 -56.5t-73.5 22.5t-27.5 79q1 35 51 120
t59 108q14 36 20 87.5t13 69.5q11 28 53.5 93t42.5 110q0 49 -20 80.5t-57 32.5q-26 1 -65.5 -30t-77 -62t-56.5 -31q-16 0 -55 16.5t-74 16.5q-19 0 -36.5 -20t-30.5 -44t-35.5 -44t-49.5 -19q-30 1 -61 37t-57 36q-23 0 -41 -11.5t-27.5 -25t-30 -25t-47.5 -11.5
q-32 0 -61.5 12t-46 23.5t-43.5 17t-54 -7.5q-44 -18 -66.5 -48t-42.5 -82t-38 -81q-10 -17 -28.5 -38.5t-34.5 -38.5t-31.5 -40t-23.5 -45t-7 -52t14 -63q16 -38 39 -54t55.5 -23.5t49.5 -18.5q13 -8 33 -40t42 -46q25 -14 52 -8.5t51 24.5q25 21 43 0.5t18 -57.5
q0 -33 -19 -64t-44.5 -67.5t-34.5 -73.5q-10 -40 -11 -104t-7 -119.5t-29 -95.5q-21 -36 -46 -48.5t-61.5 -13t-50.5 -4.5q-41 -11 -70 -68.5t-14 -101.5zM2220 686q-23 16 -18 62t31.5 90.5t47.5 31.5q13 -8 17 -31.5t-2 -51t-16.5 -53t-27 -40t-32.5 -8.5zM365 868
q23 8 40.5 0.5t35 -24t28.5 -21.5q16 -7 60.5 -6t52.5 -14q14 -22 10 -66.5t-27.5 -89.5t-50.5 -47q-11 -1 -50 6.5t-50 -2.5q-19 -7 -41 -31t-35 -26q-29 -4 -52.5 33t-17.5 67q3 14 22 37.5t25 38.5q11 27 6 53.5t3.5 53t40.5 38.5z" />
    <glyph glyph-name="q_u_e_s" unicode="ques" horiz-adv-x="3397" 
d="M96 -418q5 -15 30 -32.5t62 -12.5q24 3 51 24.5t42 24.5q17 4 61 -10t74 -8q29 6 53.5 36.5t44.5 35.5q22 6 65.5 -3.5t63.5 -9.5q39 0 67 25t31 63q3 40 -22.5 68t-69.5 29q-12 0 -30 -2t-31.5 -3t-28.5 1t-27.5 12.5t-23.5 29.5q-13 18 -5.5 42.5t20.5 41t30 42
t22 47.5q6 27 1 88.5t6 99.5q8 30 57 134.5t63 164.5q9 42 13 133t19.5 147t60.5 76q26 11 98 23t94 18q30 9 69 48.5t74 52.5q50 18 54 -37q3 -46 -25 -107q-17 -38 -76.5 -111t-68.5 -104q-12 -20 -4.5 -113t6.5 -110q-1 -20 -14 -63t-7 -72q8 -39 55.5 -65.5t100.5 -10.5
q33 10 59 28t40.5 36t28.5 34.5t32 24t41 2.5t35 -27.5t15 -47.5t17.5 -50.5t42.5 -34.5q22 -7 44.5 4t39 29t38 37.5t38.5 25.5q19 6 73.5 1.5t92.5 11.5q28 11 60.5 54.5t49.5 55.5q23 17 49.5 24.5t46 0t19.5 -30.5t-17.5 -52.5t-34.5 -67t-17 -78.5q0 -73 42 -120.5
t142 -47.5q45 0 85.5 22t68.5 53.5t53 63.5t50 54t48 22q31 0 50 -20.5t35 -49t32 -39.5q27 -18 86.5 -19.5t85.5 -15.5q20 -10 36.5 -36.5t28 -50.5t39.5 -44t70 -22q51 -3 87.5 25t66.5 76t34 52q20 21 61 23.5t54 7.5q76 30 76 166q0 100 -69 185t-191 124
q-101 32 -147 117q-37 66 -16 112q16 36 62 31q25 -3 35 -22.5t9 -43t2.5 -48.5t15.5 -35q25 -15 45 -10.5t51 14t47 6.5q14 -2 42.5 -20.5t55.5 -18.5q36 0 60.5 26.5t30 62t-13 73t-60.5 57.5q-34 16 -95.5 2.5t-97.5 5.5q-23 12 -42 40t-31 53t-39.5 43.5t-67.5 15.5
q-36 -3 -59.5 -23t-32 -43t-18 -54.5t-17.5 -45.5q-11 -19 -32 -37.5t-37 -31t-29 -40t-13 -65.5q0 -42 20.5 -75t50.5 -53t73.5 -37t80.5 -25.5t80.5 -19.5t65.5 -19q39 -14 62.5 -46.5t28.5 -69t0 -71.5t-21 -59.5t-37 -28.5q-41 -9 -78.5 17t-64.5 26q-24 0 -54 -14.5
t-50.5 -21.5t-69.5 5q-29 10 -53 47.5t-38.5 75.5t-45 70t-72.5 35q-35 2 -75 -18.5t-72 -50.5t-67.5 -62t-62.5 -54t-56 -26.5t-48 20.5q-19 21 -14.5 50.5t25.5 58t54 65.5t70 72.5t74 78.5t66.5 84.5t46.5 90t14 94.5q-5 78 -46.5 129t-111.5 51q-62 0 -105 -24t-63 -60
t-33 -82t-17.5 -88t-13.5 -80t-24 -55q-17 -20 -63.5 -32.5t-67.5 -30.5q-13 -10 -33 -48t-47 -67t-66 -33q-29 -3 -72 7t-63 10q-11 0 -32 -8.5t-38 -15.5t-33.5 -4t-23.5 22q-9 22 4.5 47t36 45t47 46t33.5 46q12 28 13.5 67t-3 91t-4.5 73q0 24 15.5 45.5t35 35.5
t38.5 37t24 50q11 53 -17 95.5t-77 42.5q-45 0 -80.5 -36t-57.5 -87q-13 -30 -12 -134t-8 -126q-9 -21 -25 -46.5t-39.5 -58.5t-33.5 -49q-14 -22 -28 -70t-42 -90q-33 -49 -77 -56.5t-73.5 22.5t-27.5 79q1 35 51 120t59 108q14 36 20 87.5t13 69.5q11 28 53.5 93t42.5 110
q0 49 -20 80.5t-57 32.5q-26 1 -65.5 -30t-77 -62t-56.5 -31q-16 0 -55 16.5t-74 16.5q-19 0 -36.5 -20t-30.5 -44t-35.5 -44t-49.5 -19q-30 1 -61 37t-57 36q-23 0 -41 -11.5t-27.5 -25t-30 -25t-47.5 -11.5q-32 0 -61.5 12t-46 23.5t-43.5 17t-54 -7.5q-44 -18 -66.5 -48
t-42.5 -82t-38 -81q-10 -17 -28.5 -38.5t-34.5 -38.5t-31.5 -40t-23.5 -45t-7 -52t14 -63q16 -38 39 -54t55.5 -23.5t49.5 -18.5q13 -8 33 -40t42 -46q25 -14 52 -8.5t51 24.5q25 21 43 0.5t18 -57.5q0 -33 -19 -64t-44.5 -67.5t-34.5 -73.5q-10 -40 -11 -104t-7 -119.5
t-29 -95.5q-21 -36 -46 -48.5t-61.5 -13t-50.5 -4.5q-41 -11 -70 -68.5t-14 -101.5zM2220 686q-23 16 -18 62t31.5 90.5t47.5 31.5q13 -8 17 -31.5t-2 -51t-16.5 -53t-27 -40t-32.5 -8.5zM268 647q3 14 22 37.5t25 38.5q11 27 6 53.5t3.5 53t40.5 38.5q23 8 40.5 0.5t35 -24
t28.5 -21.5q16 -7 60.5 -6t52.5 -14q14 -22 10 -66.5t-27.5 -89.5t-50.5 -47q-11 -1 -50 6.5t-50 -2.5q-19 -7 -41 -31t-35 -26q-29 -4 -52.5 33t-17.5 67z" />
    <glyph glyph-name="r_r" unicode="rr" horiz-adv-x="1835" 
d="M1073 1130q0 -50 30.5 -76t74.5 -26q38 0 63 14t59 48q22 22 46.5 24t35.5 -19t-2 -69q-13 -41 -24 -144t-29 -165q-26 -86 -55 -133t-74 -82q-20 -16 -47.5 -23t-49 -9t-47 -15.5t-44.5 -42.5q-32 -47 -6 -93t81 -43q38 2 67.5 15t68.5 36t77 38q46 18 140.5 22
t138.5 14q145 32 168 131q8 39 -8.5 71.5t-55.5 29.5q-29 -2 -109 -30.5t-106 -14.5q-13 7 -15 24.5t5 42t16 49t18 52t11 45.5q3 26 -2 80t-2 92q5 58 42 99t91 24q28 -9 40.5 -25t10 -37t-8.5 -38t-17.5 -40.5t-14.5 -31.5q-22 -57 -4.5 -99t70.5 -39q40 2 64.5 36
t31 74.5t15 91.5t18.5 73q13 28 34.5 52t34 44t13.5 51q1 59 -33 87.5t-88 25.5q-27 -1 -62.5 -22t-64 -44t-64 -37.5t-65.5 -5.5q-18 5 -23.5 29.5t-4 54.5t0 59.5t-17.5 49.5t-51 20t-64 -19.5t-45 -43.5t-36.5 -53.5t-36.5 -42.5q-18 -15 -69.5 -32.5t-85.5 -41
t-34 -62.5zM131 791q0 -50 30.5 -76.5t74.5 -26.5q38 0 63 14t59 48q22 22 46.5 24t35.5 -19t-2 -69q-13 -41 -24 -144t-29 -165q-26 -86 -55 -133t-74 -82q-20 -16 -47.5 -23t-49 -9t-47 -15.5t-44.5 -42.5q-32 -47 -6 -92.5t81 -42.5q38 2 67.5 14.5t68.5 35.5t77 38
q46 18 140.5 22t138.5 14q145 32 168 132q8 39 -8.5 71t-55.5 29q-29 -2 -109 -30.5t-106 -14.5q-13 7 -15 24.5t5 42t16 49t18 52t11 45.5q3 25 -2.5 79t-1.5 93q5 58 42 99t91 24q28 -9 40.5 -25t10 -37t-8.5 -38t-17.5 -40.5t-14.5 -31.5q-22 -57 -4.5 -99t70.5 -39
q40 2 64.5 36t31 74.5t15 91.5t18.5 73q13 28 34.5 52t34 44t13.5 51q1 59 -33 87.5t-88 25.5q-27 -1 -62.5 -22t-64 -44t-64 -37.5t-65.5 -5.5q-18 5 -23.5 29.5t-4 54.5t0 59.5t-17.5 49.5t-51 20t-64 -19.5t-45.5 -43.5t-37 -53.5t-36.5 -42.5q-18 -15 -69 -32.5
t-85 -40.5t-34 -62z" />
    <glyph glyph-name="s_s" unicode="ss" horiz-adv-x="1792" 
d="M1229 1241q-15 -29 -11 -77t-1 -74q-7 -23 -36.5 -67t-41.5 -69q-21 -37 -10 -87.5t53 -75.5q29 -17 63 -27.5t54 -14.5t68 -9.5t65 -8.5q72 -11 110.5 -52t18.5 -99q-10 -29 -30 -41.5t-41 -20t-30 -20.5q-11 -16 -19.5 -59.5t-23.5 -63.5q-24 -33 -67.5 -33t-71.5 39
q-13 18 -21 53t-12.5 65.5t-22 64t-48.5 52.5q-33 21 -73 19.5t-68 -21.5t-42 -53.5t4 -77.5q12 -31 42.5 -51t64.5 -39t51 -45q14 -21 27.5 -80t37 -101t70.5 -50q36 -6 70 6t54.5 30.5t46.5 43.5t40 34q19 13 62.5 21t79.5 23t51 47q13 41 9 66.5t-15 67t-9 66.5
q1 21 18 48.5t34 49.5t27.5 57t-1.5 71q-12 44 -49 62.5t-86 20t-100 2.5t-102 19.5t-81 60.5q-20 29 -20.5 64.5t14 64t41 46.5t55.5 14q26 -3 47.5 -21t34.5 -38t32 -41t40 -29q34 -11 65 -5t53 29.5t33.5 51.5t6.5 61t-29 59q-21 23 -55 28t-75.5 4.5t-66.5 8.5
q-26 9 -60.5 48.5t-57.5 46.5q-47 14 -96 -3.5t-70 -60.5zM459 1065q-36 -3 -59.5 -23t-32 -43t-18 -54.5t-17.5 -45.5q-11 -19 -32 -37.5t-37 -31t-29 -40t-13 -65.5q0 -50 26.5 -87t73.5 -59t91 -35.5t100.5 -26.5t79.5 -21q39 -14 62.5 -46.5t28.5 -69t0 -71.5t-21 -59.5
t-37 -28.5q-41 -9 -79 17t-65 26q-26 0 -48.5 -17.5t-41.5 -29.5t-41 -2t-33.5 34t-14.5 48t-17 49t-39 37q-38 14 -72 5.5t-57.5 -39t-35 -65.5t-2.5 -74t38 -65q30 -26 68.5 -31t75.5 -4.5t58 -11.5q20 -10 37 -36.5t28 -50.5t39.5 -44t70.5 -22q39 -2 72 17.5t51 43.5
t37 54t28 38q20 21 59.5 23t55.5 8q75 29 75 166q0 100 -69 186t-191 123q-101 32 -147 116q-36 66 -15 112q16 37 62 32q25 -3 35 -22.5t9 -43t2 -48.5t15 -35q25 -15 45.5 -11t52 13.5t46.5 7.5q14 -2 42.5 -20.5t55.5 -18.5q36 0 60.5 27t29.5 62.5t-13.5 73t-60.5 56.5
q-34 16 -95.5 2t-96.5 6q-23 12 -42 40t-31 53t-39.5 43.5t-67.5 15.5z" />
    <glyph glyph-name="t_i" unicode="ti" horiz-adv-x="1523" 
d="M94 350q9 -45 42.5 -61.5t91 -22t87.5 -18.5q28 -12 57.5 -35.5t55.5 -38t61 -14.5q25 0 47 19t37 44t38.5 53.5t47.5 42.5q38 22 112.5 28.5t111.5 21.5q21 9 48.5 28t48.5 35.5t43 29.5t41.5 11t33.5 -22q16 -26 14.5 -44t-15.5 -40.5t-30 -40t-31 -42t-18 -46.5
q-3 -29 3.5 -76.5t1 -76.5t-35.5 -46q-38 -22 -70 -25t-68 2t-61 2q-77 -9 -113 -73q-30 -54 -8 -97q19 -35 64 -36q43 0 103.5 38.5t101.5 45.5q37 7 81 -8.5t95 -33.5t98 -16q72 3 131.5 44.5t59.5 92.5q0 37 -24.5 53.5t-59.5 19.5t-70.5 7.5t-60 27t-25.5 67.5
q-1 53 17.5 107t41 90t51 81t40.5 72q25 57 26.5 112.5t-24.5 93t-76 37.5q-42 0 -74 -17.5t-49 -40t-46.5 -52.5t-61.5 -47q-55 -29 -138.5 -30t-111.5 -9q-42 -12 -89 -46t-88.5 -69t-64.5 -45q-51 -24 -109.5 -5t-58.5 69q0 46 21 90.5t54 95.5t48 86q16 38 39 134
t49 128q21 25 43.5 30.5t56.5 6t64 10.5q46 16 74 66q28 54 1 83q-14 15 -44 17q-21 1 -46.5 -4t-43 -10.5t-36.5 -4.5t-32 13q-14 12 -14.5 45t4 69.5t5.5 72.5t-15.5 60t-53.5 25q-38 1 -57.5 -17.5t-24.5 -52t-6 -69t-5 -78t-17 -69.5q-5 -11 -14 -18.5t-24.5 -11
t-24.5 -5t-31.5 -3t-28.5 -1.5q-66 -6 -85 -63q-16 -46 8 -80q16 -20 38 -21q53 0 86 -18t33 -42q0 -43 -15 -74t-34 -44.5t-40.5 -32t-29.5 -35.5q-9 -21 -13 -81t-18 -99q-8 -21 -32.5 -43t-47 -39t-37 -47.5t-6.5 -69.5zM1325 1147q-88 -19 -136 -93q-43 -65 -21 -118
q21 -51 94 -55q97 -6 147 72q39 62 24 127q-14 60 -67 69q-19 3 -41 -2z" />
    <glyph glyph-name="t_t" unicode="tt" horiz-adv-x="1587" 
d="M76 752q36 -4 64.5 8.5t53 29.5t44.5 19q24 2 47 -24.5t20 -57.5q-4 -42 -35 -102.5t-39 -96.5q-9 -42 -3.5 -116t-0.5 -107q-5 -24 -32 -89t-31 -110q-5 -47 22 -82t80 -44q43 -7 80.5 4t82 39.5t50.5 31.5q20 10 89 27.5t110 48.5q45 35 55.5 80t-14 77t-72.5 34
q-31 1 -75.5 -18.5t-77.5 -39.5t-72 -29t-60 13q-14 18 -11 37t20 51.5t35.5 62t34.5 69t18 71.5q2 29 -8.5 69.5t-20.5 70t-4.5 61t33.5 51.5q21 18 51.5 16.5t53.5 -11t58.5 -18t67.5 -4.5q46 5 87.5 27.5t67.5 45.5t63 42t77 20q48 0 75.5 -24.5t22.5 -57.5
q-4 -39 -35 -101.5t-42 -109.5q-10 -35 -3 -113t3 -116q-3 -25 -16.5 -66t-24.5 -75.5t-16 -70.5t9 -64.5t50 -44.5q37 -12 63 -8.5t56.5 24t51.5 41.5t47.5 45.5t45.5 34.5q22 12 60 18.5t70.5 21t59.5 52.5q42 58 21 116.5t-80 55.5q-27 -1 -55.5 -20t-49.5 -42.5
t-46.5 -46t-45 -30.5t-45.5 4q-19 12 -19.5 37.5t12.5 58.5t29 65.5t30.5 67.5t17.5 55q6 50 -13 104.5t-14 90.5q6 43 26 63.5t46 21t57.5 -0.5t59.5 0q70 9 120 75q45 59 32 106q-10 32 -48 40q-20 4 -51 -6.5t-55 -22.5t-50.5 -15.5t-37.5 13.5q-9 12 7 68t28 113
t-13 114q-19 36 -61 43t-78 -22.5t-39 -87.5q-1 -29 4 -85.5t1 -89.5t-26 -51q-17 -14 -43 -15.5t-47.5 3t-46.5 -1.5q-23 -7 -60.5 -41.5t-68.5 -42.5q-19 -9 -73 -1t-89 5q-23 -2 -64 -14.5t-64.5 -10t-43.5 28.5q-16 15 -13 42.5t12.5 47.5t22.5 54t17 61q14 92 -44 121
q-47 23 -101 -7q-58 -32 -62 -96v-6q-1 -22 3.5 -72.5t2 -83t-19.5 -50.5q-37 -41 -72.5 -54.5t-83 -15t-73.5 -8.5q-60 -15 -82 -58t-6.5 -80t49.5 -40z" />
    <glyph glyph-name="u_n" unicode="un" horiz-adv-x="2011" 
d="M332 1128q-16 -9 -52.5 -18.5t-69.5 -19t-65.5 -26t-52.5 -49t-20 -79.5q0 -31 21.5 -46.5t56.5 -8.5q16 3 40 14.5t43 18t31 1.5q17 -8 -2 -36t-48.5 -71t-29.5 -75q0 -29 14.5 -57.5t6.5 -89.5q-4 -29 -18 -58.5t-28 -50.5t-24.5 -44t-7.5 -48t23 -53
q43 -56 116.5 -53.5t139.5 57.5q16 13 38.5 32.5t36 31t29.5 23t28.5 15t22.5 0.5q21 -8 21.5 -31.5t-15.5 -56t-35 -64t-39.5 -65.5t-27.5 -51q-10 -26 -10.5 -56t9.5 -56.5t35.5 -44t61.5 -17.5q40 0 77 17.5t55.5 34t56.5 54.5q28 28 72.5 44t72.5 51q17 21 25 64.5
t-2 80.5t-41 37q-22 0 -45 -13t-36.5 -25t-45.5 -44q-51 -50 -80.5 -32t-10.5 79q6 19 44.5 75.5t46.5 92.5q5 26 -3 111t3 122q9 33 49 108t61 161q16 64 -1.5 98.5t-49 36t-66 -18.5t-49.5 -53q-18 -39 -25 -110t-22 -99q-22 -40 -67 -72t-54 -42q-26 -29 -54 -103
t-58 -110q-51 -59 -83 -48t-26 78q3 38 58 108t71 101q14 27 22 113.5t29 114.5q41 56 61.5 106.5t16.5 87.5t-37 49q-35 9 -55 6.5t-39 -20.5t-31 -36t-31 -40t-38 -33zM1190 793q-21 -18 -55 -34t-56 -25.5t-38 -32t-13 -58.5q3 -38 47.5 -53.5t79.5 6.5q39 24 70 33
t45 -4q15 -20 -6.5 -70.5t-56 -111t-40.5 -81.5q-7 -23 -10.5 -45t-2.5 -47.5t2 -35.5t6 -40.5t5 -31.5q4 -28 -24 -65t-68 -64q-34 -23 -53 -62.5t-7 -71.5t60 -32q30 0 56.5 12.5t57 35.5t46.5 32q21 11 61.5 17.5t63.5 24t35 66.5q10 41 -0.5 68t-28.5 38.5t-36 30
t-21 41.5q-3 27 4 55.5t17.5 49t31 59.5t33.5 66q14 30 26 99t41 110q27 38 60.5 59.5t61.5 23.5t50 -13t29 -44q11 -45 -24 -121t-35 -108q0 -18 10 -85t2 -122q-4 -28 -16.5 -49.5t-26 -33t-41.5 -35t-49 -44.5q-35 -35 -43 -71t11 -59t58 -23q44 0 96.5 36t86.5 46
q15 4 58.5 9.5t71 11.5t50.5 27.5t20 57.5q-3 33 -21.5 53t-39 27.5t-35 23.5t-10.5 42q7 45 -7 101.5t-14 86.5q0 14 13.5 36t37.5 54.5t37 56.5q82 145 31 201q-22 23 -45 26t-46 3.5t-42 17.5q-16 14 -36.5 43t-40.5 44.5t-50 15.5q-36 0 -73.5 -27.5t-63 -60
t-51.5 -56.5t-41 -18q-12 5 0 35t20 61t-24 57q-31 21 -72.5 -0.5t-65.5 -64.5q-4 -7 -13.5 -25.5t-15 -29t-15.5 -24t-19 -21.5z" />
    <glyph glyph-name="v_u" unicode="vu" horiz-adv-x="2117" 
d="M90 776q9 -38 35.5 -58t64.5 -16q24 3 65.5 26.5t61.5 23.5q23 0 36.5 -21t15.5 -51q2 -43 -42.5 -110.5t-41.5 -108.5q2 -29 27 -78t26 -90q1 -27 -23 -92t-22 -109q3 -53 37 -86t88 -29q32 3 53.5 20t41.5 45.5t32 39.5q14 13 58.5 33t60.5 45q14 20 15 65t19 82
q11 22 42.5 48t71.5 61t67 76q30 46 43.5 90t25 76.5t39.5 62.5q29 31 108.5 45.5t112.5 38.5q21 15 47 48.5t43 47.5q21 18 49.5 18.5t36.5 -20.5q6 -16 -13.5 -45t-42.5 -66t-23 -67t12.5 -59t5.5 -87q-3 -28 -16.5 -56.5t-27 -49.5t-24 -43.5t-7 -48t23.5 -53.5
q40 -53 110.5 -49.5t139.5 57.5q16 12 37.5 30.5t35.5 30.5t29 23.5t27.5 15t21.5 0.5q20 -8 21 -31t-14 -55.5t-33 -64t-37.5 -65.5t-26.5 -50q-10 -25 -10.5 -54.5t8.5 -55.5t33 -43t59 -17q31 0 56 7t51 27t36.5 29.5t41.5 40.5q27 27 73 43t74 52q16 20 23.5 62t-4 78
t-42.5 36q-32 0 -59.5 -18.5t-64.5 -59.5q-47 -50 -76 -32.5t-10 77.5q6 18 41.5 73t44.5 93q6 26 -3.5 109.5t3.5 119.5q10 32 32 68.5t44 83t36 112.5q14 62 -3.5 96t-48.5 36t-64.5 -17.5t-49.5 -54.5q-17 -38 -24.5 -107t-20.5 -96q-14 -30 -35.5 -49.5t-46.5 -35
t-37 -28.5q-26 -30 -53 -102.5t-57 -108.5q-51 -58 -84 -45.5t-25 78.5q4 29 24.5 61t53 72.5t49.5 69.5t25.5 113t28.5 110q63 81 74.5 149.5t-36.5 88.5q-24 12 -46.5 8.5t-36.5 -11.5t-32.5 -26.5t-32.5 -36t-36.5 -40t-46.5 -38.5q-40 -26 -71 -35.5t-63.5 -12
t-51.5 -7.5q-30 -8 -93.5 -35t-87.5 -30q-26 -4 -49.5 -1.5t-52.5 -2.5t-51 -21q-26 -19 -32.5 -49.5t-8.5 -65.5t-17 -55q-13 -18 -65 -60t-80 -90q-18 -30 -35.5 -123.5t-46.5 -148.5q-17 -32 -37.5 -48t-37.5 -14.5t-31.5 12t-19 32.5t0.5 47q6 26 40 109.5t32 127.5
q-2 33 -28 66.5t-27 64.5q-1 32 46 100t58 97q15 37 8.5 69t-27.5 48t-48.5 20.5t-55.5 -12.5q-17 -10 -38.5 -43t-43.5 -47q-40 -26 -186 -68q-66 -20 -97.5 -55t-21.5 -76z" />
    <glyph glyph-name="d_e.001" unicode="d&#xb7;e" horiz-adv-x="1861" 
d="M686 184q29 -16 33.5 -49t-4 -64.5t-5 -63.5t30.5 -46q16 -8 34 -8t34.5 6.5t38 19.5t39.5 26.5t44.5 32.5t47.5 32q38 24 84.5 34.5t85.5 7.5t65.5 -20t26.5 -45q0 -20 -29.5 -74t-29.5 -102q0 -64 37.5 -105.5t126.5 -41.5q40 0 71.5 18.5t52 44.5t39.5 53t44 46t55 20
q24 1 52.5 -23t55.5 -24q39 0 67.5 28t28.5 84q0 62 -37 96.5t-98 30.5q-31 -2 -67 -20t-65 -41t-59.5 -46t-55 -38t-48 -14t-41.5 24q-16 26 -11.5 49.5t27 56.5t53 64t66 71.5t66 78t54 85t28.5 91.5q9 67 -32.5 115.5t-102.5 39.5q-63 -9 -104 -48t-57 -82t-36 -97.5
t-41 -81.5q-34 -44 -114 -62t-157 -5t-108 49q-12 14 -12.5 32.5t7.5 36.5t22 39.5t28 40t27 39t19 35.5q14 39 8.5 136t3.5 128q12 35 50 80.5t40 87.5q1 25 -7.5 64t-16.5 67.5t-5 53.5t23 32q16 5 27.5 -13.5t18.5 -46t20.5 -58.5t31.5 -44q22 -16 49.5 -16t50.5 13
t36.5 38.5t9.5 57.5q-6 40 -62.5 100.5t-66.5 81.5q-15 31 -17.5 92.5t-13.5 85.5q-20 46 -74.5 46.5t-85.5 -46.5q-24 -39 -40.5 -147.5t-31.5 -143.5q-9 -21 -62 -107.5t-61 -144.5q-4 -26 0.5 -79t9.5 -104t6.5 -100t-10 -79.5t-38.5 -30.5q-31 0 -42.5 25.5t-10.5 65.5
t1.5 82.5t-15 82.5t-52.5 59q-24 13 -47 14.5t-41.5 -5.5t-38 -20t-34.5 -26t-33.5 -27.5t-32.5 -21.5q-27 -13 -72 -22.5t-74 -24.5q-74 -37 -116.5 -103t-49 -132t9.5 -124.5t50 -86.5q26 -22 70.5 -42t66.5 -42q9 -9 41.5 -49.5t59.5 -59t61 -18.5q31 0 58.5 20t44 46
t37.5 50t39.5 33.5t49.5 -4.5zM524 541q11 -11 37 -30t45.5 -38.5t30.5 -44.5q13 -30 -4.5 -73t-54.5 -76.5t-84.5 -51t-94.5 3.5q-20 9 -31.5 27t-14 35t-5.5 41.5t-6 36.5q-3 11 -12.5 29.5t-15 38.5t-5.5 46q0 31 10 65t35.5 63t59.5 30q29 1 47.5 -15t34.5 -45.5
t28 -41.5z" />
    <glyph glyph-name=".notdef" horiz-adv-x="2007" 
d="M102 1434v-205h-20v205h20zM184 1229h-20v205h143v-21h-123v-72h82v-20h-82v-92zM461 1229h-21v92h-71v113h20v-93h123v93h20v-113h-71v-92zM748 1434v-205h-154v205h154zM829 1434v-185h123v185h21v-205h-164v205h20zM1946 1434v-205h-912v205h912zM614 1249h113v164
h-113v-164zM102 1126v-184h62v113h20v-113h62v184h20v-204h-184v204h20zM481 1065v-61h31v-82h-20v61h-154v-61h-21v82h31v61h31v61h72v-61h30zM584 1106v-184h-21v204h62v-61h30v-61h31v-62h21v184h20v-204h-61v61h-31v61h-31v62h-20zM860 922h-20v184h-72v20h164v-20h-72
v-184zM1034 1106v-184h-20v204h61v-61h31v-61h41v61h31v61h61v-204h-20v184h-21v-62h-31v-61h-30v-61h-21v61h-31v61h-30v62h-21zM1454 1126v-204h-154v204h154zM1618 1024h61v-102h-20v82h-133v-82h-21v204h113v-102zM1864 1126v-20h-123v-72h82v-20h-82v-72h123v-20h-144
v204h144zM369 1044v-40h92v40h-31v62h-31v-62h-30zM1321 1106v-164h113v164h-113zM1597 1106h-71v-82h71v82zM1915 922h-10v30h30v-61h-20v31zM102 614h-20v205h143v-20h-123v-72h82v-20h-82v-93zM420 819v-205h-154v205h154zM594 717h61v-103h-20v82h-133v-82h-21v205h113
v-102zM727 707v-93h-20v205h20v-92h31v31h51v61h51v-20h-31v-62h-51v-41h51v-61h31v-21h-51v62h-51v31h-31zM1014 799v-185h-21v205h62v-61h30v-62h41v62h31v61h62v-205h-21v185h-20v-62h-31v-61h-31v-62h-20v62h-31v61h-31v62h-20zM1434 819v-20h-123v-72h82v-20h-82v-72
h123v-21h-144v205h144zM1710 819v-205h-154v205h154zM1884 717h62v-103h-21v82h-133v-82h-20v205h112v-102zM287 799v-164h112v164h-112zM573 799h-71v-82h71v82zM1577 799v-164h113v164h-113zM1864 799h-72v-82h72v82zM215 512v-20h-113v-164h113v-21h-133v205h133z
M420 512v-205h-154v205h154zM502 492v-185h-21v205h62v-61h30v-62h31v-61h21v184h20v-205h-61v62h-31v61h-31v62h-20zM768 307h-20v185h-72v20h164v-20h-72v-185zM1004 451v-62h30v-82h-20v62h-154v-62h-20v82h30v62h31v61h72v-61h31zM1208 512v-20h-112v-164h112v-21h-133
v205h133zM1341 307h-20v185h-72v20h164v-20h-72v-185zM1946 512v-205h-492v205h492zM287 492v-164h112v164h-112zM891 430v-41h92v41h-31v62h-30v-62h-31zM184 0h-20v61h-31v62h-31v61h-30v21h51v-62h31v-61h41v61h30v62h51v-21h-30v-61h-31v-62h-31v-61zM461 205v-21h-123
v-71h82v-21h-82v-72h123v-20h-144v205h144zM543 205v-185h123v-20h-144v205h21zM748 0h-21v61h-31v62h-30v61h-31v21h51v-62h31v-61h41v61h30v62h52v-21h-31v-61h-31v-62h-30v-61zM1024 205v-21h-123v-71h82v-21h-82v-72h123v-20h-143v205h143zM1157 0h-20v184h-72v21h164
v-21h-72v-184zM1362 0h-21v92h-71v113h20v-92h123v92h21v-113h-72v-92zM1495 184v-184h-20v205h61v-62h31v-61h30v-62h21v185h20v-205h-61v61h-31v62h-30v61h-21zM1833 205v-21h-123v-71h82v-21h-82v-72h123v-20h-143v205h143zM164 -307h-21v205h144v-21h-123v-72h82v-20
h-82v-92zM451 -205h61v-102h-20v82h-134v-82h-20v205h113v-103zM1946 -102v-205h-1362v205h1362zM430 -123h-72v-82h72v82zM92 -276v-31h-31v31h31z" />
    <glyph glyph-name=".null" horiz-adv-x="0" 
 />
    <glyph glyph-name="nonmarkingreturn" horiz-adv-x="682" 
 />
    <glyph glyph-name="space" unicode=" " horiz-adv-x="389" 
 />
    <glyph glyph-name="exclam" unicode="!" horiz-adv-x="671" 
d="M272 389q-37 18 -47.5 53.5t-2.5 67.5t22.5 79t17.5 68q7 45 -7 101t-5 90q9 32 26.5 54.5t41 46t36.5 44.5q15 25 18 57.5t-1 84.5t-4 71q0 55 17.5 115t43.5 92q28 36 64 39.5t64 -22.5t38 -70q21 -96 -33 -236q-8 -20 -35.5 -75t-47.5 -106.5t-23 -92.5q-2 -40 6 -93
t12 -86.5t-8 -97.5q-11 -44 -28 -81.5t-42 -69t-55.5 -40t-67.5 6.5zM227 225q-69 0 -111 -39t-44 -94t37.5 -99t107.5 -54q79 -13 138 27t59 104q0 48 -32.5 85t-74 53.5t-80.5 16.5z" />
    <glyph glyph-name="quotedbl" unicode="&#x22;" horiz-adv-x="679" 
d="M279 1462q-20 27 -55 29.5t-68 -15t-57.5 -53t-24.5 -77.5q0 -29 12 -71.5t12 -82.5q0 -25 -13 -54t-28.5 -52t-27 -58t-9.5 -72q3 -58 47 -87t94 -20t70 48q14 35 13 52.5t-7 44.5t-4 44q2 19 22 37.5t38.5 40.5t19.5 51t-12.5 52.5t-27.5 41.5t-15 33q-1 16 7.5 40.5
t16.5 43t10 43t-13 41.5zM436 1366q-7 -28 -14.5 -93t-15.5 -97q-4 -13 -21.5 -62.5t-25 -89.5t-1.5 -78q7 -40 33.5 -63t59.5 -24.5t65.5 10t55.5 42t26 70.5q3 41 -18 86.5t-19 73.5q2 29 24 57.5t45 61.5t27 73q6 60 -22 97t-67 41.5t-78.5 -23t-53.5 -82.5z" />
    <glyph glyph-name="numbersign" unicode="#" horiz-adv-x="1490" 
d="M602 928q3 -40 -23.5 -64.5t-54.5 -17.5q-27 6 -74.5 45.5t-84.5 40.5q-66 2 -108 -41t-38.5 -96.5t53.5 -79.5q37 -17 79 -11.5t85.5 3.5t55.5 -25q12 -20 4 -40.5t-22 -34.5t-29 -34.5t-17 -40.5q-2 -17 3.5 -42t11.5 -43t4.5 -36.5t-15.5 -29.5q-22 -20 -55.5 -17.5
t-58.5 13t-57.5 23t-51.5 12.5q-37 0 -67 -20.5t-44 -51.5t-16 -64t18 -61t58 -39q28 -8 66 0.5t64 21t53.5 15t35.5 -17.5q10 -25 3.5 -45.5t-27 -49t-41.5 -53t-41 -56t-25 -57.5q-9 -41 6 -76.5t43 -54t65.5 -16.5t69.5 29q43 37 65 106.5t35 145.5t29 106q22 42 82 61.5
t115 6t63 -53.5q5 -25 -19 -63.5t-50 -82.5t-23 -79q4 -50 44.5 -78t90.5 -23t80 40q25 29 30 91.5t8.5 115.5t27.5 67q17 12 39 9t37.5 -11.5t45.5 -17.5t62 -9q42 0 74.5 22t45 54.5t11.5 66.5t-26 61t-68 34q-24 4 -58 -3.5t-59.5 -15.5t-52 -3t-41.5 30q-12 15 -3.5 37
t23.5 38.5t32 43.5t22 51q7 38 1 68.5t-4.5 61t21.5 46.5q14 14 41 11.5t50.5 -11.5t57 -15.5t60.5 -0.5q49 11 73.5 51t14.5 83t-51 63q-23 9 -55.5 4.5t-62 -15t-55.5 -9.5t-36 22t4 46.5t38 49t45 63t21 82.5q0 58 -44.5 79.5t-97 4t-75.5 -58.5q-16 -29 -16 -96.5
t-16 -106.5q-20 -44 -80.5 -69.5t-116 -20t-64.5 40.5q-8 30 17 66.5t60 84t44 93.5q7 36 -8.5 66t-42.5 44.5t-60.5 13t-58.5 -23.5q-21 -19 -27 -65.5t-12 -57.5q-8 -15 -47.5 -31.5t-46.5 -38.5q-9 -25 14 -79t25 -80zM911 725q0 -20 -19.5 -57.5t-19.5 -55.5
q0 -10 11 -25.5t21 -28.5t14 -33.5t-11 -41.5q-17 -27 -41.5 -35.5t-44.5 -5t-43 -4.5q-18 -7 -49 -38t-57 -33q-35 -3 -61 24.5t-23 73.5q1 27 24.5 47.5t54.5 40t42 35.5q10 16 18.5 72.5t34.5 80.5q25 21 60 29t62 -3t27 -42z" />
    <glyph glyph-name="dollar" unicode="$" horiz-adv-x="1017" 
d="M526 1276q-30 -21 -68.5 -26t-68 -1.5t-63.5 -3.5t-58 -31q-32 -32 -39.5 -68t-7 -81.5t-10.5 -77.5q-7 -22 -22.5 -50.5t-27 -49t-22.5 -49.5t-10 -51t12 -54q20 -43 86 -62.5t137.5 -20.5t149.5 -15.5t115 -48.5q40 -36 57.5 -79t12.5 -82t-23.5 -76t-51 -63t-69.5 -41
t-79.5 -11.5t-80.5 26.5q-31 18 -55 49t-37 58t-35 54.5t-49 41.5q-36 18 -72 8.5t-56.5 -37t-27.5 -65t15 -76.5q15 -29 50 -51.5t67.5 -34.5t61.5 -35t36 -55q6 -28 -10.5 -50.5t-40.5 -35.5t-45.5 -32.5t-22.5 -41.5q-3 -58 42.5 -91t107 -29t102.5 40q30 25 41.5 79
t21 101t37.5 62q21 9 63 4t83.5 -16.5t88.5 -7.5t77 32q29 28 35.5 64.5t-1.5 65t-20 65.5t-14 55q-3 32 17.5 76.5t33 77.5t-3.5 98q-17 51 -67 77t-110.5 32.5t-121.5 11.5t-111.5 26.5t-68.5 65.5q-24 66 -12.5 122t52.5 93t89 54t98.5 5.5t79.5 -51.5q12 -16 12.5 -47
t-3.5 -58.5t4 -53.5t34 -36q47 -17 92.5 3t70.5 60.5t34.5 89t-15.5 89.5q-19 32 -64 55.5t-85.5 40.5t-49.5 35q-9 19 2.5 40.5t31 39t37 44t17.5 50.5q0 56 -59.5 75t-112.5 -17q-30 -20 -49.5 -50.5t-26.5 -56.5t-21 -53.5t-36 -42.5z" />
    <glyph glyph-name="percent" unicode="%" horiz-adv-x="1413" 
d="M489 1253q-29 -2 -71.5 14.5t-67.5 14.5q-46 -3 -88 -39.5t-53 -79.5q-8 -26 -5.5 -62.5t-2.5 -60.5q-5 -15 -21 -39.5t-28 -44t-19.5 -53.5t4.5 -69q7 -24 35.5 -39t70 -26t56.5 -19q16 -9 23.5 -17t10 -14t14 -21.5t32.5 -35.5q47 -48 130.5 -36.5t121.5 74.5
q17 28 22 82t13.5 101.5t35.5 70.5q17 15 57.5 17t55.5 8q18 9 44 41.5t42 40.5q38 17 54 -2t-3 -53q-8 -17 -33.5 -33t-57.5 -37t-52 -47q-29 -39 -55 -128t-47 -120q-18 -27 -55.5 -45.5t-80.5 -38t-69 -45.5q-26 -27 -46 -98.5t-38 -98.5q-17 -26 -44.5 -52t-53 -46.5
t-49.5 -42.5t-39 -49.5t-17 -58.5q-4 -61 30 -94t77 -19q27 9 57.5 45t40.5 43q8 6 40.5 14t69 28.5t66.5 59.5q23 30 27.5 75t0.5 77t9 65q14 30 81.5 80.5t78.5 67.5q12 21 20 66.5t21 64.5q14 22 60 54.5t97.5 70t77.5 72.5q28 37 37.5 84t15.5 89.5t25 67.5q16 23 60 57
t63 58q28 34 32 70.5t-25.5 63.5t-90.5 28q-39 1 -80.5 -18.5t-77 -47t-69.5 -55.5t-70.5 -48.5t-67.5 -21.5q-32 -1 -63 20t-51 46.5t-46 49t-47 26.5q-29 4 -66 -23t-59 -29zM356 1075q23 18 54.5 26.5t66 0t53.5 -40.5q16 -25 17 -81.5t-8 -90.5q-9 -39 -43.5 -55.5
t-55.5 0.5q-14 9 -21 33.5t-20 37.5q-5 5 -43.5 21.5t-46.5 44.5q-7 25 6 54.5t41 49.5zM1063 541q-16 -2 -53.5 0.5t-67.5 -2.5t-55 -25q-28 -23 -39.5 -51.5t-15 -62t-9.5 -48.5t-26.5 -44.5t-34 -60t-10.5 -65.5q4 -36 22 -59t53 -44.5t43 -27.5q11 -10 24.5 -34.5
t25 -44t36 -35.5t56.5 -17q45 -2 74 20.5t51 60.5t28 44q11 11 44 26.5t62 37.5t40 55q7 39 2 55.5t-19.5 43t-17.5 42.5q-4 30 9 70t15 59q3 48 -28.5 92t-77.5 47q-26 1 -69 -14.5t-62 -17.5zM1073 393q20 -4 27 -20.5t7.5 -40.5t2.5 -31q3 -7 14.5 -25.5t14.5 -27.5
t0 -31q-5 -15 -15 -21.5t-28.5 -10.5t-26.5 -7q-7 -2 -21 -11.5t-29 -14.5t-34 -2q-32 4 -50.5 41.5t-12.5 70.5q5 17 16 31.5t32.5 33t24.5 21.5q4 4 11 12t11 12t11.5 10.5t12.5 7.5t14.5 4t17.5 -1z" />
    <glyph glyph-name="ampersand" unicode="&#x26;" horiz-adv-x="1386" 
d="M614 1354q-41 0 -70 -24.5t-41.5 -55t-31.5 -71.5t-37 -62q-12 -14 -43 -36.5t-54.5 -41.5t-43 -56.5t-19.5 -84.5q0 -29 12 -58t26.5 -50t25.5 -55t10 -71q-1 -27 -30 -53t-70 -50.5t-83 -52t-74 -67t-38 -84.5q-6 -47 7.5 -84.5t40.5 -62t55.5 -43.5t60 -40.5
t47.5 -41.5q11 -13 38 -52t45.5 -59.5t56.5 -41.5t85 -22q46 -1 96.5 24t87 55.5t80.5 56.5t78 26q32 0 62 -14.5t51.5 -32t57.5 -34.5t77 -21q39 -4 75 7t59.5 33t37 48t10 54.5t-23.5 51.5q-13 15 -42 17t-56 -2t-53 5t-35 36q-9 26 3.5 52t37 50t50.5 48t47.5 55t24.5 63
q3 31 -6 66.5t-14.5 54t6.5 55.5q12 27 42 46t61 28.5t64.5 30.5t49.5 51q20 35 20 74t-18 66.5t-52 40.5t-83 -3q-21 -7 -39 -26.5t-29.5 -41t-31 -45t-41.5 -35.5q-33 -18 -122 -32.5t-134 -40.5q-37 -21 -60.5 -55.5t-27.5 -66.5t11 -57.5t48 -31.5q20 -4 47 6.5t47 21.5
t41.5 9t34.5 -27q15 -27 5.5 -67t-35 -76t-60.5 -66t-72 -36t-69 14q-25 18 -59.5 83.5t-51.5 84.5q-15 17 -81.5 58.5t-80.5 72.5t4 89t17 77q-1 27 -25 71t-24 72q0 58 47 92t101.5 31.5t76.5 -37.5q13 -14 10 -33.5t-9 -31t-17 -29.5t-15 -29q-27 -72 13.5 -106.5
t113.5 2.5q66 35 103.5 103t9.5 130q-13 30 -33.5 46t-45 29t-40.5 32q-13 16 -30 51.5t-30.5 60.5t-48.5 45.5t-88 20.5zM416 510q29 -10 60.5 -75t60.5 -87q17 -13 40 -20.5t39 -10t31 -12t21 -26.5q23 -64 -38 -109.5t-126 -32.5q-71 14 -139 85t-68 132q0 69 37.5 121
t81.5 35z" />
    <glyph glyph-name="quotesingle" unicode="'" horiz-adv-x="299" 
d="M170 1360q-52 0 -81.5 30t-27.5 69t33 65q27 23 96 25.5t97 21.5q49 33 101 16.5t73 -76.5q12 -34 13.5 -73.5t-14.5 -91t-50 -101.5q-32 -46 -66.5 -84.5t-76.5 -63t-66 -3.5q-16 14 -16.5 37t6.5 42.5t21 51.5t19 47q11 36 -6.5 62t-54.5 26z" />
    <glyph glyph-name="parenleft" unicode="(" horiz-adv-x="671" 
d="M809 1438q-37 -1 -68 -31.5t-61 -73t-53 -57.5q-22 -15 -69 -30.5t-90.5 -37t-72.5 -57.5q-35 -45 -54.5 -141t-35.5 -127q-18 -35 -48.5 -64.5t-68 -64.5t-65.5 -74q-61 -88 -76.5 -198t25.5 -197q25 -50 95.5 -123t84.5 -109q9 -24 15.5 -67.5t19 -79t41.5 -62.5
q23 -21 52.5 -27.5t55 2.5t46.5 28t27 48t-3 64q-11 30 -31.5 45.5t-41.5 26t-30 28.5q-14 27 -23.5 94t-14.5 80q-10 22 -31.5 42t-41.5 32.5t-38 33.5t-23 46q-5 26 8.5 48t33.5 37t42 38.5t31 48.5q13 37 -1 101.5t3 78.5q13 18 35.5 27.5t55.5 26t65 49.5q29 28 47 96
t37.5 130t52.5 81q24 14 95.5 37t107.5 55q45 40 52.5 88t-18.5 79.5t-69 29.5z" />
    <glyph glyph-name="parenright" unicode=")" horiz-adv-x="780" 
d="M418 1393q-28 27 -71.5 31.5t-82 -9t-66 -43t-26.5 -65.5q1 -29 19.5 -49.5t45.5 -33.5t55 -26.5t52.5 -37.5t34.5 -58q15 -53 -5 -122t-20 -106q0 -34 19 -81t40.5 -87.5t34.5 -97t3 -110.5q-6 -38 -28 -68.5t-46.5 -47t-53.5 -39t-44 -42.5q-25 -36 -44.5 -129.5
t-50.5 -126.5q-22 -23 -67 -32t-87 -18t-59 -36q-27 -43 -8 -86.5t69.5 -59.5t123.5 7q42 16 69 42.5t37.5 50t24 52.5t28.5 45q21 24 72.5 53.5t75.5 57.5q25 30 33.5 71t14 89.5t21.5 85.5q13 30 50 74t64 87t28 86q2 56 -36.5 122.5t-43.5 94.5q-6 29 5.5 90t4.5 93
q-10 35 -32.5 58t-48 45.5t-38.5 53.5q-11 25 -15.5 71t-14.5 86t-37 65z" />
    <glyph glyph-name="asterisk" unicode="*" horiz-adv-x="935" 
d="M262 1479q22 -2 40.5 -14t29.5 -25.5t24.5 -29t24.5 -21.5q24 -15 53.5 -8t46.5 34q8 13 19.5 47.5t27 59.5t39.5 37q54 26 101 -6.5t37 -96.5q-5 -29 -41.5 -62t-42.5 -42q-16 -25 -8.5 -48.5t30.5 -29.5q13 -4 57.5 -6t67.5 -13q29 -15 40 -46t0 -61t-40 -42
q-17 -12 -65 -3t-56 9q-25 -2 -41 -20.5t-12 -44.5q2 -9 10.5 -32t15 -42.5t6.5 -44.5t-12 -43q-30 -45 -79 -55t-93 18q-22 14 -28.5 39t-4 65.5t2.5 44.5q-1 29 -27 41.5t-51 1.5q-13 -6 -33.5 -24t-42 -31t-45.5 -12q-49 2 -75.5 40t-6.5 89q10 27 32.5 42t52 24.5
t40.5 17.5q23 17 24 42t-18 42q-8 7 -34 18.5t-44.5 27.5t-23.5 40q-12 53 18 90t84 33z" />
    <glyph glyph-name="plus" unicode="+" horiz-adv-x="1064" 
d="M614 1049q-33 -18 -52 -45t-23 -55t-5 -59.5t1.5 -58.5t-3.5 -51q-11 -53 -53.5 -84t-101.5 -20q-24 4 -55.5 21.5t-64.5 27.5t-75 4q-53 -8 -85 -43t-36 -75.5t18 -78.5t68 -51q46 -9 73.5 -1t70 22.5t69.5 15.5q33 1 48 -25t11.5 -60t-20.5 -58q-12 -17 -48 -48
t-58.5 -63.5t-22.5 -75.5q0 -58 33.5 -92.5t78 -38.5t90.5 16t69 60t28 92.5t1.5 108t-1.5 74.5q6 48 40.5 72t74.5 16q21 -4 59.5 -23.5t77 -30.5t76.5 -2q51 13 79.5 54t27.5 85.5t-34.5 81.5t-92.5 41q-26 2 -63.5 -7t-65 -18t-51.5 -7.5t-33 20.5q-10 22 0.5 43.5t34 41
t49 40t49 49.5t30.5 60q10 40 -7 74.5t-50 51t-75 19.5t-81 -20z" />
    <glyph glyph-name="comma" unicode="," horiz-adv-x="589" 
d="M461 233q18 -52 11 -114t-39 -123.5t-70.5 -108.5t-83.5 -68t-78 -3q-25 14 -26.5 50t11 72.5t24 74.5t7.5 53q-5 22 -25 34.5t-42 17t-44 18t-30 36.5q-26 73 46 125q69 48 166 43q110 -5 159 -80z" />
    <glyph glyph-name="hyphen" unicode="-" horiz-adv-x="909" 
d="M186 561q32 21 84 18t92 -15t89 -25t75 -13q40 0 100.5 33t106.5 29q66 -6 84 -70q19 -63 -18 -125q-44 -74 -129 -74q-61 0 -111.5 20.5t-88.5 38t-75 13.5q-32 -3 -63.5 -26t-66 -41t-79.5 -13q-63 8 -88 54t-1 103t89 93z" />
    <glyph glyph-name="period" unicode="." horiz-adv-x="575" 
d="M307 332q-75 20 -133.5 -25t-69.5 -129q-5 -44 11.5 -97.5t54 -100t84.5 -62.5q69 -24 128.5 17.5t68.5 127.5q9 92 -29.5 170t-114.5 99z" />
    <glyph glyph-name="slash" unicode="/" horiz-adv-x="901" 
d="M844 1436q-78 22 -144.5 -7.5t-76.5 -103.5q-4 -27 12 -52t36 -45t34.5 -43.5t5.5 -57.5t-49 -78q-10 -11 -91 -92.5t-138.5 -149.5t-74.5 -113q-17 -46 -24 -142t-27 -146q-13 -33 -49.5 -62.5t-44.5 -40.5q-16 -20 -27.5 -64t-27.5 -67q-31 -44 -48.5 -96t-7.5 -84
q15 -50 56.5 -69.5t93.5 -2.5q147 47 135 232q-1 19 21 70t30 81q6 22 2.5 73t10.5 81q20 52 71.5 117t101.5 123t64 91q15 34 28.5 85.5t24.5 74.5q14 29 41.5 55.5t51.5 43t46 42.5t29 56q8 35 -8 81t-16 60q0 11 6.5 37.5t9 45t-10.5 38.5t-46 29z" />
    <glyph glyph-name="zero" unicode="0" horiz-adv-x="956" 
d="M639 1378q-37 6 -67.5 -9.5t-48 -37.5t-41 -49.5t-42.5 -38.5q-20 -11 -67.5 -23t-85 -32t-60.5 -58q-20 -35 -22 -86t2 -94.5t-12 -103.5q-12 -38 -47.5 -92t-61.5 -109t-27 -115q-1 -42 13 -83.5t31.5 -69t40.5 -62t32 -55.5q9 -18 19 -52t18.5 -63.5t24.5 -63.5
t36 -58.5t54.5 -41t79.5 -16.5q55 -1 96 12t65.5 38t40 49t32.5 56.5t30 49.5q14 20 66 69t69 89q14 35 16 73.5t-4 68t-13 68.5t-7 66q2 52 28 108t50 110.5t22 107.5q-1 42 -18.5 81.5t-46.5 81t-37 56.5q-10 20 -19.5 53t-17.5 58.5t-21 51.5t-38 43t-62 23zM694 1055
q10 -35 -5 -74.5t-33 -82t-15 -79.5q3 -29 25 -91t20 -95q-4 -43 -44.5 -100t-49.5 -91q-8 -31 -5.5 -91t-11.5 -83q-17 -41 -57 -66.5t-82.5 -28t-81 23t-51.5 77.5q-12 29 -0.5 103.5t8.5 109.5q-2 30 -28.5 85.5t-20.5 103.5q3 31 27.5 58.5t54 56.5t41.5 57
q13 36 16 116t17 111q14 30 43.5 52t64.5 28.5t69 0.5t61.5 -32.5t37.5 -68.5z" />
    <glyph glyph-name="one" unicode="1" horiz-adv-x="948" 
d="M199 911q-22 -30 -24 -65t12 -60.5t42.5 -40.5t61.5 -8t64.5 42t53 76.5t52.5 88.5t59 70q35 24 64.5 18t43.5 -38.5t1 -69.5q-12 -30 -52.5 -76t-52.5 -76q-15 -36 -17 -94t-3 -66q-5 -29 -45 -76t-56 -92q-15 -47 -11.5 -91t-1 -92.5t-28.5 -72.5q-19 -19 -45.5 -20
t-51 8.5t-60 16.5t-66.5 0q-43 -10 -66.5 -43t-23 -69t23.5 -67.5t64 -38.5q36 -6 83 20t71 23q22 -3 64 -27.5t75 -23.5q32 1 68 30t59 34q21 5 57 -5.5t65 -15.5t79 15q56 28 73 84.5t-13 99.5t-93 37q-22 -2 -52.5 -20.5t-52 -35.5t-48.5 -25t-42 11q-20 16 -9.5 43.5
t30 49t43 53.5t29.5 57q10 42 7.5 99t0.5 102q3 32 31 66.5t60.5 75.5t43.5 85q11 35 2 118.5t-6 108.5q5 38 49.5 89.5t56.5 74.5q22 50 15.5 94t-40 67.5t-73.5 6.5q-36 -15 -70.5 -68.5t-58.5 -62.5q-25 -10 -65.5 -3t-69 10.5t-70.5 -21.5q-32 -24 -45 -94t-33 -95
q-20 -27 -76 -55.5t-83 -65.5z" />
    <glyph glyph-name="two" unicode="2" horiz-adv-x="1157" 
d="M862 299q9 -57 -27 -99.5t-90 -33.5q-38 7 -82 33.5t-67 31.5q-30 6 -93 -2t-93 -4q-43 6 -50.5 41.5t27.5 67.5q26 24 70 48.5t85 53.5t74 72q39 50 80.5 141.5t67.5 124.5q18 22 57 54.5t68 57.5t50.5 64t16.5 82q-4 34 -23 56t-41 32t-51 28t-46 40q-14 17 -31 51
t-29 55.5t-39 36t-65 8.5q-46 -8 -73 -37t-51 -73.5t-48 -67.5q-32 -31 -91 -60t-81 -54q-30 -34 -39.5 -73t1.5 -69t33 -52.5t55 -23.5t69 19q29 18 54.5 61.5t48.5 89t44 62.5q37 30 77.5 28t65 -29t33 -67.5t-17.5 -87.5q-25 -47 -66.5 -87t-79 -63.5t-82 -54.5
t-69.5 -57q-41 -42 -97.5 -159t-87.5 -150t-104 -68.5t-107 -72.5q-42 -46 -51.5 -100t18 -91t83.5 -37q30 0 57.5 12.5t49.5 30.5t44.5 36.5t52.5 31t64 12.5q30 0 52.5 -13t37.5 -32t28.5 -38.5t34 -35.5t46.5 -20q40 -6 76 6.5t77 40.5t57 35q33 15 115 21t121 18
q38 11 65.5 46t24.5 77q-2 35 -27 70.5t-28 53.5q-3 23 12.5 80t15.5 92q0 47 -34 79t-88 32q-55 0 -95.5 -38t-42.5 -79q-2 -48 35.5 -100.5t42.5 -83.5z" />
    <glyph glyph-name="three" unicode="3" horiz-adv-x="985" 
d="M369 1206q-24 -2 -77 15.5t-87 3.5q-45 -18 -54 -65t20.5 -88.5t82.5 -45.5q35 -3 65 1.5t48 11t52 21t58 23.5q46 14 68.5 2.5t20 -42.5t-30.5 -62q-24 -26 -56.5 -42.5t-72 -30.5t-60.5 -25q-111 -59 -76 -146q13 -33 51.5 -43.5t83.5 -1.5t89 31q72 31 118.5 3
t44.5 -85q-1 -34 -19.5 -63.5t-40 -48t-41 -44.5t-21.5 -53q-2 -33 14 -76.5t14 -76.5q-3 -57 -52 -93.5t-97 -33.5q-42 3 -74 30.5t-41 78t29 122.5q22 45 21 79.5t-23.5 53t-52.5 23t-67.5 -11.5t-66.5 -50q-44 -51 -66 -130.5t-3 -125.5q10 -25 33.5 -41t47.5 -23.5
t53 -20.5t46 -30t42 -62.5t54 -73.5t74 -29q33 -1 61.5 14t51 42t38.5 52t34 57t28 46q18 25 57.5 56.5t72 65t46.5 76.5q15 59 7.5 87t-22 65t-12.5 63q2 25 20 64.5t34.5 71t26 72.5t-6.5 69q-14 29 -50 37t-71 3.5t-65 4.5t-35 39q-5 36 38 70t112 75t100 74
q32 35 37.5 74t-14 62.5t-52.5 18.5q-26 -3 -74.5 -25.5t-85.5 -23.5q-35 -1 -84 26.5t-84 22.5q-27 -4 -49.5 -26.5t-48 -43.5t-61.5 -24z" />
    <glyph glyph-name="four" unicode="4" horiz-adv-x="1062" 
d="M369 1075q-21 -30 -66 -70.5t-65 -78.5q-19 -34 -25.5 -93.5t-22.5 -91.5q-15 -31 -58 -65.5t-60 -63.5q-35 -63 -10.5 -120t92.5 -72q53 -5 73.5 -2.5t64 15t70.5 16.5q64 8 94 -23.5t15 -93.5q-8 -35 -41 -97.5t-41 -113.5q-16 -102 45 -142q48 -32 107 -5
q66 31 82 111q3 12 4 24q3 35 -3 97.5t-3 104.5q3 50 28.5 81t67.5 28q17 -1 49.5 -10.5t57.5 -13t79 4.5q52 12 81 67t16.5 110.5t-64.5 68.5q-27 6 -49.5 -3t-36 -24t-33 -29t-39.5 -16q-47 -4 -70 23t-8 70q7 21 45 75t39 88q2 62 -42.5 89.5t-97 10t-73.5 -68.5
q-14 -29 -11 -110t-15 -115q-17 -32 -57 -49t-80 -16t-72.5 20t-36.5 51q-3 28 13 50.5t38.5 36.5t49.5 38.5t40 52.5q17 35 27.5 106.5t28.5 102.5q17 28 76.5 60.5t84.5 62.5q26 33 34 66.5t-1 59t-29 43.5t-46.5 23.5t-57.5 -4.5t-59 -36q-42 -40 -77.5 -123.5
t-51.5 -106.5z" />
    <glyph glyph-name="five" unicode="5" horiz-adv-x="1081" 
d="M575 1274q-36 -5 -94.5 3.5t-103 5t-78.5 -35.5q-24 -24 -32 -56.5t-4 -62.5t4.5 -65t-7.5 -64q-9 -34 -35.5 -77.5t-34.5 -61.5q-19 -44 3.5 -85.5t66.5 -47.5t82.5 0t84 21t71.5 20q62 12 110.5 -11.5t48.5 -68.5q-1 -31 -34.5 -84t-36.5 -78q-3 -34 7.5 -87t8.5 -83
q-3 -45 -31.5 -81t-68.5 -51t-81 -15t-74 26.5t-44 73.5q-1 21 -2 30.5t5 30t9.5 30t12 30.5t12.5 31q12 37 3 66.5t-36 47.5q-37 24 -79.5 12.5t-74.5 -48t-58 -84.5t-30.5 -97t7.5 -86q11 -25 35 -41.5t49 -23.5t54.5 -20t47.5 -29q17 -16 43 -50t46 -61.5t52 -50
t66 -23.5q38 -1 66.5 20.5t42.5 49t32 63.5t31 52q19 22 64 56.5t77 69.5t43 78q11 37 4.5 78t-19 70t-24 65t-10.5 64t24.5 86.5t26.5 87.5q5 56 -19.5 89.5t-74.5 33.5q-22 0 -126.5 -23.5t-153.5 -9.5q-63 19 -62 83q2 61 57 114q58 55 134 53q48 -1 88 -16t63 -32.5
t59.5 -32t79.5 -15.5q40 -1 74 22.5t51 55.5t16.5 66t-24.5 52q-16 13 -57 15t-58 14q-11 7 -22.5 28.5t-28 38t-45.5 19.5q-32 3 -64 -18t-67 -46t-68 -30z" />
    <glyph glyph-name="six" unicode="6" horiz-adv-x="968" 
d="M324 1145q-21 -27 -57 -56.5t-66.5 -59.5t-46.5 -66q-19 -45 -21 -160.5t-10 -153.5q-7 -34 -24.5 -79l-28 -72t-16.5 -67.5t9 -65.5q16 -37 51 -64t76.5 -51.5t61.5 -46.5q15 -18 33 -50t33.5 -58t37 -52t54.5 -40t77 -13q45 1 80 24.5t53.5 52t42.5 64.5t42 53
q11 10 47.5 35t60.5 44.5t44 57t17 80.5t-23 78.5t-39 52t-56.5 42t-46.5 32.5q-21 17 -46 51t-43 60.5t-51 47t-73 19.5q-57 -2 -88.5 -45.5t-25.5 -95.5t44 -78q33 -23 102.5 -32.5t102.5 -40.5q29 -28 39 -64t0 -69.5t-30.5 -65.5t-52 -50.5t-65 -25t-69.5 11.5
q-30 15 -48 38.5t-34 57.5t-29 52q-8 11 -38.5 42.5t-48.5 61.5t-22 70q-5 45 8.5 85t33.5 66t46.5 62.5t40.5 66.5q17 38 27 121.5t33 122.5q24 41 74 59.5t100 8t74 -46.5q22 -33 29.5 -85.5t7.5 -91.5t21.5 -71.5t70.5 -38.5q61 -7 98 54t29 138q-3 34 -15.5 62
t-33.5 49.5t-39 35.5t-46.5 33t-41.5 29q-10 8 -56.5 54t-86 69t-83.5 21q-45 -2 -80 -28t-52 -56t-37 -70t-31 -55z" />
    <glyph glyph-name="seven" unicode="7" horiz-adv-x="901" 
d="M145 1384q-44 -9 -65.5 -43.5t-18 -74.5t32 -78.5t76.5 -54.5q44 -15 109 -11t117 16t105.5 14.5t73.5 -15.5q35 -26 26.5 -79t-36.5 -106t-72.5 -93t-82.5 -40q-35 0 -65 23t-60 45.5t-66 21.5q-34 -1 -61 -28t-37.5 -63t0.5 -75t45 -61q22 -14 61 -19.5t70 -6.5
t57 -14.5t29 -43.5q4 -33 -22 -74.5t-65.5 -84.5t-79.5 -90t-68.5 -106.5t-28.5 -117.5q0 -77 44 -124.5t99 -41.5t84 64q22 44 22.5 162t18.5 153q23 46 95.5 106t95.5 103q23 44 32 141t37 139q22 33 50.5 53.5t52.5 37t38 40.5q15 26 8.5 75.5t4.5 72.5q13 25 51 48
t53 38q23 24 25 58.5t-20 59t-60 21.5q-29 -2 -67 -26t-70 -23q-35 1 -74.5 37t-75.5 37q-37 1 -97.5 -27.5t-96.5 -25.5q-34 3 -73.5 27.5t-76.5 43t-74 10.5z" />
    <glyph glyph-name="eight" unicode="8" horiz-adv-x="962" 
d="M428 1290q-15 -14 -52.5 -43t-60.5 -49t-43 -56t-20 -75q0 -35 18 -64t43 -48t49.5 -37t39.5 -40t12 -47q-3 -23 -35 -46t-70.5 -39.5t-80.5 -44.5t-62 -58q-24 -37 -28.5 -85.5t0 -85t-8.5 -83.5q-6 -18 -18.5 -44.5t-22 -45.5t-18.5 -47.5t-8 -51.5t10 -57
q13 -36 43 -54t60 -20.5t68 -8t60 -17.5q16 -8 60.5 -38.5t80.5 -43.5t80 -8q41 4 71 21t45.5 36t43.5 56.5t51 62.5q19 19 66 59t69.5 69.5t28.5 68.5q6 37 -7.5 69.5t-33 64.5t-24.5 58q-5 28 9.5 94t-3.5 99q-12 29 -46 47t-67.5 25t-60 24.5t-25.5 46.5q1 24 32.5 55.5
t69 58.5t70 67.5t33.5 80.5q1 39 -13 65t-46.5 55t-38.5 36q-14 16 -29 58t-36 68.5t-60 28.5q-36 1 -67.5 -14t-49 -33.5t-42 -48t-36.5 -41.5zM559 1231q38 20 72 -13.5t28 -95.5q-2 -27 -20.5 -55.5t-45 -48t-54.5 -30.5t-52.5 -6t-35.5 28q-10 15 -5 32t13 26.5t21 26
t18 29.5q3 8 11.5 36.5t19.5 45t30 25.5zM524 668q85 -1 127.5 -71.5t42.5 -188.5q0 -85 -26 -151.5t-80 -78.5q-42 -10 -92 6.5t-64 16.5q-17 0 -45 -6t-51 -6t-47 12q-39 24 -42 84.5t29 101.5q14 20 53.5 63t55.5 74q6 11 17 37t19.5 41t22.5 32.5t34 26t46 7.5z" />
    <glyph glyph-name="nine" unicode="9" horiz-adv-x="997" 
d="M666 199q21 27 57 56.5t66.5 59.5t46.5 66q19 44 20.5 159.5t9.5 153.5q7 34 24.5 79l28 72t16.5 68t-9 66q-16 37 -51 64t-76.5 51.5t-61.5 46.5q-15 18 -33 50t-33.5 58t-37 52t-54.5 40t-77 13q-36 -1 -65.5 -16t-49.5 -38.5t-35 -48t-33 -51t-34 -41.5
q-11 -10 -37.5 -27t-47.5 -33.5t-43 -38.5t-33 -52.5t-9 -65.5t14 -63.5t32.5 -49.5t38 -35t44 -31t37.5 -26q21 -17 46 -51t43 -60.5t51 -47t73 -19.5q57 2 88 45.5t25 95.5t-44 78q-33 23 -102.5 33t-102.5 41q-29 28 -38.5 64t0 69.5t30.5 65.5t52.5 50t65 24.5
t69.5 -11.5q30 -15 48 -38.5t33.5 -57t28.5 -51.5q8 -11 38.5 -42.5t48.5 -61.5t22 -70q5 -45 -8.5 -85.5t-33.5 -66.5t-46.5 -62.5t-40.5 -66.5q-17 -38 -27 -121.5t-33 -122.5q-24 -41 -74 -59.5t-100 -7.5t-74 47q-22 33 -29.5 85.5t-7.5 91.5t-21.5 71.5t-70.5 38.5
q-61 7 -98 -54.5t-29 -138.5q3 -34 15.5 -62.5t34 -49.5t39.5 -35.5t46.5 -33t41.5 -28.5q10 -8 56 -53.5t85.5 -68.5t83.5 -21q45 2 80 28t52.5 56t37.5 70t31 55z" />
    <glyph glyph-name="colon" unicode=":" horiz-adv-x="573" 
d="M371 412q-68 -7 -130 30.5t-84.5 100t9.5 139.5q24 49 73.5 71t104 11t92.5 -51q50 -52 56 -122t-28.5 -121.5t-92.5 -57.5zM180 -121q-58 6 -92.5 57.5t-28.5 121.5t56 122q38 40 92.5 51.5t104 -10.5t73.5 -71q32 -77 9.5 -140t-84.5 -100.5t-130 -30.5z" />
    <glyph glyph-name="semicolon" unicode=";" horiz-adv-x="634" 
d="M258 756q-59 -41 -73 -107.5t20 -109.5q35 -51 97.5 -65t135.5 20q77 39 103 113.5t-15 129.5q-32 43 -84 56t-100 1t-84 -38zM471 219q14 -41 6 -94t-31 -101.5t-56.5 -94.5t-70.5 -74t-73 -40.5t-64 7.5q-26 14 -23 51t17.5 72t28.5 72.5t12 52.5q-4 22 -23.5 36
t-41 20t-42 21t-26.5 39q-21 74 54 120q70 44 167 33q108 -12 152 -88q9 -15 14 -32z" />
    <glyph glyph-name="less" unicode="&#x3c;" horiz-adv-x="1017" 
d="M846 926q96 116 63 205q-22 58 -88 73q-75 18 -139 -34q-5 -4 -10 -9q-34 -32 -57.5 -83.5t-46 -96.5t-56.5 -68q-47 -32 -179 -69t-183 -68q-83 -49 -87.5 -131t70.5 -133q31 -20 100.5 -41t98.5 -55q25 -28 44 -101.5t52 -103.5q29 -26 70 -36t78.5 -15.5t56.5 -22.5
q22 -19 55.5 -86.5t67.5 -87.5q33 -19 67 -21.5t61 9t46 35t25 52t-5 64t-41 68.5q-26 30 -68.5 44.5t-87 28t-71.5 40.5q-35 35 -77 116.5t-73 106.5q-22 17 -66.5 32.5t-68.5 34.5t-24 58q0 34 37 63t95.5 53t121 47.5t124.5 58t95 73.5z" />
    <glyph glyph-name="equal" unicode="=" horiz-adv-x="1284" 
d="M610 827q-30 -8 -98 3t-104 -5q-53 -20 -78.5 -56t-21 -71.5t38 -66t89.5 -39.5q32 -5 71 9.5t70.5 34t74 36.5t79.5 16q36 -1 73.5 -15.5t66.5 -31.5t79 -29.5t109 -9.5q50 2 89 23t58 51t25 62t-6 60t-39 42q-26 15 -55 9.5t-49 -18.5t-48 -25t-53 -9q-27 3 -50.5 20
t-39 36.5t-40 37t-52.5 20.5q-36 4 -69 -13t-65 -41t-55 -30zM197 541q-52 -3 -88 -27t-48 -57.5t-8 -68t32.5 -62t72.5 -37.5q53 -11 142 12t138 23q41 0 155 -28.5t181 -14.5q44 9 77 28.5t49 44t22.5 52t-3 53t-27.5 46.5t-51 33t-73 11q-29 -1 -66 -16t-68 -32t-76 -30
t-89 -10q-47 3 -133.5 43t-138.5 37z" />
    </font>
</defs>
</svg>
